<?xml version="1.0" encoding="UTF-8" standalone="no"?>
<!-- Created with Inkscape (http://www.inkscape.org/) -->

<svg
   xmlns:dc="http://purl.org/dc/elements/1.1/"
   xmlns:cc="http://creativecommons.org/ns#"
   xmlns:rdf="http://www.w3.org/1999/02/22-rdf-syntax-ns#"
   xmlns:svg="http://www.w3.org/2000/svg"
   xmlns="http://www.w3.org/2000/svg"
   xmlns:sodipodi="http://sodipodi.sourceforge.net/DTD/sodipodi-0.dtd"
   xmlns:inkscape="http://www.inkscape.org/namespaces/inkscape"
   width="234"
   height="333.00003"
   id="svg2"
   version="1.1"
   inkscape:version="0.92.4 (5da689c313, 2019-01-14)"
   sodipodi:docname="diamonds_3.svg"
   inkscape:export-filename="C:\Users\fowle\OneDrive\Projects\Playing-Cards\fronts\png-096-dpi\diamonds_3.png"
   inkscape:export-xdpi="96"
   inkscape:export-ydpi="96">
  <defs
     id="defs4" />
  <sodipodi:namedview
     id="base"
     pagecolor="#ffffff"
     bordercolor="#666666"
     borderopacity="1.0"
     inkscape:pageopacity="0.0"
     inkscape:pageshadow="2"
     inkscape:zoom="2.1916676"
     inkscape:cx="107.93904"
     inkscape:cy="173.28676"
     inkscape:document-units="px"
     inkscape:current-layer="layer1"
     showgrid="false"
     inkscape:showpageshadow="false"
     showguides="true"
     inkscape:guide-bbox="true"
     inkscape:snap-global="true"
     inkscape:window-width="1456"
     inkscape:window-height="976"
     inkscape:window-x="532"
     inkscape:window-y="25"
     inkscape:window-maximized="0"
     showborder="false"
     fit-margin-top="0"
     fit-margin-left="0"
     fit-margin-right="0"
     fit-margin-bottom="0">
    <inkscape:grid
       type="xygrid"
       id="grid3767"
       empspacing="5"
       visible="true"
       enabled="true"
       snapvisiblegridlinesonly="true"
       originx="0"
       originy="5.1666068e-06" />
  </sodipodi:namedview>
  <metadata
     id="metadata7">
    <rdf:RDF>
      <cc:Work
         rdf:about="">
        <dc:format>image/svg+xml</dc:format>
        <dc:type
           rdf:resource="http://purl.org/dc/dcmitype/StillImage" />
        <dc:title></dc:title>
      </cc:Work>
    </rdf:RDF>
  </metadata>
  <g
     inkscape:label="Layer 1"
     inkscape:groupmode="layer"
     id="layer1"
     transform="translate(0,-719.36216)">
    <g
       id="g911">
      <rect
         rx="8.9191856"
         ry="8.9457436"
         y="719.74011"
         x="0.37795275"
         height="332.24411"
         width="233.24409"
         id="rect4266"
         style="fill:#ffffff;fill-opacity:1;stroke:#808080;stroke-width:0.75590551;stroke-linecap:butt;stroke-linejoin:miter;stroke-miterlimit:4;stroke-dasharray:none;stroke-opacity:1" />
      <g
         transform="matrix(0.07348588,0,0,0.07370838,-248.01731,933.60062)"
         id="g4233"
         style="fill:none;stroke:#000000;stroke-width:3.18132639;stroke-opacity:1" />
      <g
         clip-path="none"
         style="fill:none;stroke:#000000;stroke-width:3.18132639;stroke-opacity:1"
         id="g4211"
         transform="matrix(0.07348588,0,0,0.07370838,-248.01728,933.60062)" />
      <g
         transform="matrix(0.07348588,0,0,0.07370838,-248.01731,933.60062)"
         id="g4227"
         style="fill:none;stroke:#000000;stroke-width:3.18132639;stroke-opacity:1" />
      <path
         inkscape:export-ydpi="95.969437"
         inkscape:export-xdpi="95.969437"
         inkscape:export-filename="D:\DAN\Documents\Projects\Playing Cards\test.png"
         inkscape:connector-curvature="0"
         id="path4884-1"
         d="M 117,814.07624 145.24371,785.73971 117,757.40317 88.756294,785.73971 Z"
         style="fill:#ff0000;fill-opacity:1;stroke:none;stroke-width:1" />
      <path
         inkscape:export-ydpi="95.969437"
         inkscape:export-xdpi="95.969437"
         inkscape:export-filename="D:\DAN\Documents\Projects\Playing Cards\test.png"
         inkscape:connector-curvature="0"
         id="path4884-1-4"
         d="M 117,1014.3212 145.24371,985.98462 117,957.64809 88.756294,985.98462 Z"
         style="fill:#ff0000;fill-opacity:1;stroke:none;stroke-width:1" />
      <path
         inkscape:export-ydpi="95.969437"
         inkscape:export-xdpi="95.969437"
         inkscape:export-filename="D:\DAN\Documents\Projects\Playing Cards\test.png"
         inkscape:connector-curvature="0"
         id="path4884-1-7"
         d="M 117,914.1987 145.24371,885.86217 117,857.52563 88.756294,885.86217 Z"
         style="fill:#ff0000;fill-opacity:1;stroke:none;stroke-width:1" />
      <path
         inkscape:connector-curvature="0"
         id="path4884-1-4-5-3"
         d="m 17.205569,780.7021 9.414569,-9.44551 -9.414569,-9.44552 -9.4145688,9.44552 z"
         style="fill:#ff0000;fill-opacity:1;stroke:none;stroke-width:1" />
      <path
         inkscape:connector-curvature="0"
         id="path4884-1-4-5-3-5"
         d="m 216.79443,991.02224 9.41457,9.44556 -9.41457,9.4455 -9.41457,-9.4455 z"
         style="fill:#ff0000;fill-opacity:1;stroke:none;stroke-width:1" />
      <g
         id="text3755-0"
         style="font-style:normal;font-variant:normal;font-weight:bold;font-stretch:normal;font-size:3.77201176px;line-height:0%;font-family:'Levenim MT';-inkscape-font-specification:'Sans Bold';letter-spacing:0px;word-spacing:0px;fill:#ff0000;fill-opacity:1;stroke:none;stroke-width:1"
         transform="scale(1.0092549,0.99083001)"
         aria-label="3">
        <path
           id="path892"
           style="font-size:39.92524338px;line-height:1.25;stroke-width:1"
           d="m 26.376029,754.4354 q 0,3.97693 -2.787749,6.12135 -2.514823,1.94948 -6.589225,1.94948 -9.2794998,0 -9.2794998,-8.77264 0,-0.40939 0.1364633,-0.77979 0.2924212,-0.17545 0.6628214,-0.17545 h 2.5343171 q 0.3704,0 0.682316,0.17545 0.09747,0.27293 0.155958,0.64333 0.331411,2.41735 1.364633,3.50905 1.15019,1.20868 3.528549,1.20868 1.949475,0 3.177644,-1.05272 1.286653,-1.13069 1.286653,-3.04118 0,-4.05491 -4.425308,-4.75672 -0.545853,-0.078 -0.818779,-0.23394 -0.155958,-0.31191 -0.155958,-3.15814 0,-0.3704 0.175453,-0.70182 1.462106,-0.42888 2.924212,-0.87726 1.540085,-0.70181 1.540085,-2.94371 0,-3.39208 -3.976929,-3.39208 -1.832506,0 -2.865727,0.89676 -0.545853,0.48737 -1.130696,1.65705 -0.428884,0.89676 -0.857769,0.89676 H 9.1426718 q -0.9552426,0 -0.9552426,-0.85777 0,-3.25562 2.5538118,-5.14661 2.30038,-1.69605 5.653477,-1.69605 3.85996,0 6.296803,1.61807 2.865728,1.89099 2.865728,5.57549 0,4.44481 -4.386318,6.04338 5.205098,2.2029 5.205098,7.29103 z" />
      </g>
      <g
         id="text3755-2-2"
         style="font-style:normal;font-variant:normal;font-weight:bold;font-stretch:normal;font-size:3.77201176px;line-height:0%;font-family:'Levenim MT';-inkscape-font-specification:'Sans Bold';letter-spacing:0px;word-spacing:0px;fill:#ff0000;fill-opacity:1;stroke:none;stroke-width:1"
         transform="scale(-1.0092549,-0.99083001)"
         aria-label="3">
        <path
           id="path895"
           style="font-size:39.92524338px;line-height:1.25;stroke-width:1"
           d="m -205.47817,-1033.6859 q 0,3.9769 -2.78775,6.1213 -2.51482,1.9495 -6.58923,1.9495 -9.2795,0 -9.2795,-8.7726 0,-0.4094 0.13647,-0.7798 0.29242,-0.1755 0.66282,-0.1755 h 2.53432 q 0.3704,0 0.68231,0.1755 0.0975,0.2729 0.15596,0.6433 0.33141,2.4173 1.36463,3.509 1.15019,1.2087 3.52855,1.2087 1.94948,0 3.17765,-1.0527 1.28665,-1.1307 1.28665,-3.0412 0,-4.0549 -4.42531,-4.7567 -0.54585,-0.078 -0.81878,-0.2339 -0.15596,-0.3119 -0.15596,-3.1582 0,-0.3704 0.17546,-0.7018 1.4621,-0.4289 2.92421,-0.8773 1.54008,-0.7018 1.54008,-2.9437 0,-3.392 -3.97692,-3.392 -1.83251,0 -2.86573,0.8967 -0.54585,0.4874 -1.1307,1.6571 -0.42888,0.8967 -0.85777,0.8967 h -2.51482 q -0.95524,0 -0.95524,-0.8577 0,-3.2557 2.55381,-5.1467 2.30038,-1.696 5.65348,-1.696 3.85996,0 6.2968,1.6181 2.86573,1.8909 2.86573,5.5755 0,4.4448 -4.38632,6.0433 5.2051,2.2029 5.2051,7.2911 z" />
      </g>
    </g>
  </g>
</svg>
