<?xml version="1.0" encoding="UTF-8" standalone="no"?>
<!-- Created with Inkscape (http://www.inkscape.org/) -->

<svg
   xmlns:dc="http://purl.org/dc/elements/1.1/"
   xmlns:cc="http://creativecommons.org/ns#"
   xmlns:rdf="http://www.w3.org/1999/02/22-rdf-syntax-ns#"
   xmlns:svg="http://www.w3.org/2000/svg"
   xmlns="http://www.w3.org/2000/svg"
   xmlns:sodipodi="http://sodipodi.sourceforge.net/DTD/sodipodi-0.dtd"
   xmlns:inkscape="http://www.inkscape.org/namespaces/inkscape"
   width="234"
   height="333.00003"
   id="svg2"
   version="1.1"
   inkscape:version="0.92.4 (5da689c313, 2019-01-14)"
   sodipodi:docname="spades_4.svg"
   inkscape:export-filename="C:\Users\fowle\OneDrive\Projects\Playing-Cards\fronts\png-096-dpi\spades_4.png"
   inkscape:export-xdpi="96"
   inkscape:export-ydpi="96">
  <title
     id="title897">Four of Spades Playing Card</title>
  <defs
     id="defs4" />
  <sodipodi:namedview
     id="base"
     pagecolor="#ffffff"
     bordercolor="#666666"
     borderopacity="1.0"
     inkscape:pageopacity="0.0"
     inkscape:pageshadow="2"
     inkscape:zoom="2.1916676"
     inkscape:cx="109.9177"
     inkscape:cy="166.48677"
     inkscape:document-units="px"
     inkscape:current-layer="layer1"
     showgrid="false"
     inkscape:showpageshadow="false"
     showguides="true"
     inkscape:guide-bbox="true"
     inkscape:snap-global="true"
     inkscape:window-width="1456"
     inkscape:window-height="976"
     inkscape:window-x="445"
     inkscape:window-y="0"
     inkscape:window-maximized="0"
     fit-margin-top="0"
     fit-margin-left="0"
     fit-margin-right="0"
     fit-margin-bottom="0"
     showborder="false">
    <inkscape:grid
       type="xygrid"
       id="grid3767"
       empspacing="5"
       visible="true"
       enabled="true"
       snapvisiblegridlinesonly="true"
       originx="0"
       originy="5.1666068e-06" />
  </sodipodi:namedview>
  <metadata
     id="metadata7">
    <rdf:RDF>
      <cc:Work
         rdf:about="">
        <dc:format>image/svg+xml</dc:format>
        <dc:type
           rdf:resource="http://purl.org/dc/dcmitype/StillImage" />
        <dc:title>Four of Spades Playing Card</dc:title>
        <cc:license
           rdf:resource="http://creativecommons.org/publicdomain/zero/1.0/" />
        <dc:date>2020-05-05</dc:date>
        <dc:creator>
          <cc:Agent>
            <dc:title>Daniel S. Fowler</dc:title>
          </cc:Agent>
        </dc:creator>
        <dc:rights>
          <cc:Agent>
            <dc:title>Public Domain</dc:title>
          </cc:Agent>
        </dc:rights>
        <dc:publisher>
          <cc:Agent>
            <dc:title>https://tekeye.uk</dc:title>
          </cc:Agent>
        </dc:publisher>
        <dc:language>en-GB</dc:language>
        <dc:subject>
          <rdf:Bag>
            <rdf:li>four; spades; playing; card; black; white</rdf:li>
          </rdf:Bag>
        </dc:subject>
        <dc:description>A four of spades playing card.</dc:description>
      </cc:Work>
      <cc:License
         rdf:about="http://creativecommons.org/publicdomain/zero/1.0/">
        <cc:permits
           rdf:resource="http://creativecommons.org/ns#Reproduction" />
        <cc:permits
           rdf:resource="http://creativecommons.org/ns#Distribution" />
        <cc:permits
           rdf:resource="http://creativecommons.org/ns#DerivativeWorks" />
      </cc:License>
    </rdf:RDF>
  </metadata>
  <g
     inkscape:label="Layer 1"
     inkscape:groupmode="layer"
     id="layer1"
     transform="translate(0,-719.36216)">
    <g
       id="g919">
      <rect
         rx="8.9191856"
         ry="8.9457436"
         y="719.74011"
         x="0.37795275"
         height="332.24411"
         width="233.24409"
         id="rect4266"
         style="fill:#ffffff;fill-opacity:1;stroke:#808080;stroke-width:0.75590551;stroke-linecap:butt;stroke-linejoin:miter;stroke-miterlimit:4;stroke-dasharray:none;stroke-opacity:1" />
      <g
         transform="matrix(0.07348588,0,0,0.07370838,-248.01731,933.60062)"
         id="g4233"
         style="fill:none;stroke:#000000;stroke-width:3.18132639;stroke-opacity:1" />
      <g
         clip-path="none"
         style="fill:none;stroke:#000000;stroke-width:3.18132639;stroke-opacity:1"
         id="g4211"
         transform="matrix(0.07348588,0,0,0.07370838,-248.01728,933.60062)" />
      <g
         transform="matrix(0.07348588,0,0,0.07370838,-248.01731,933.60062)"
         id="g4227"
         style="fill:none;stroke:#000000;stroke-width:3.18132639;stroke-opacity:1" />
      <path
         sodipodi:nodetypes="cccccccccccccccc"
         inkscape:connector-curvature="0"
         id="path2985-3-11"
         d="m 12.898825,780.70209 c 0,-0.55605 -0.03079,-0.95768 -0.03079,-1.51377 1.149566,0 2.395148,0 3.544708,0 0,-1.3218 0,-1.41528 0,-2.73712 -2.243931,0.0723 -4.67246,0.23894 -6.7739019,-0.687 -1.6266179,-0.89273 -2.075448,-2.97087 -1.7474947,-4.67934 0.2807048,-1.92755 1.3522742,-3.6393 2.7501936,-4.95764 1.819108,-1.94577 4.139071,-3.2593 6.561151,-4.31616 2.472354,1.07475 4.843466,2.43125 6.685643,4.42831 1.659299,1.55933 2.764852,3.76316 2.730888,6.0706 0.03599,1.6655 -0.995685,3.42548 -2.697384,3.78891 -1.903705,0.52719 -3.830472,0.43365 -5.784745,0.35232 0,1.32184 0,1.41532 0,2.73712 1.14956,0 2.203119,0 3.352688,0 0,0.55609 0.03079,0.95772 0.03079,1.51377 -2.632285,-0.0186 -5.778625,-0.0186 -8.621752,0 z"
         style="fill:#000000;stroke:none;stroke-width:1" />
      <path
         sodipodi:nodetypes="cccccccccccccccc"
         inkscape:connector-curvature="0"
         id="path2985-3-11-7"
         d="m 212.48766,991.02222 c 0,0.55606 -0.0308,0.95768 -0.0308,1.51377 1.14955,0 2.39513,0 3.54471,0 0,1.3218 0,1.41528 0,2.73712 -2.24393,-0.0723 -4.67248,-0.23894 -6.77391,0.687 -1.62662,0.89273 -2.07544,2.97087 -1.7475,4.67939 0.28071,1.9275 1.35228,3.6392 2.75018,4.9576 1.81912,1.9458 4.13909,3.2593 6.56118,4.3161 2.47235,-1.0747 4.84345,-2.4312 6.68563,-4.4283 1.65931,-1.5593 2.76487,-3.7631 2.73088,-6.07056 0.036,-1.6655 -0.99569,-3.42548 -2.69737,-3.78891 -1.90372,-0.52719 -3.83047,-0.43365 -5.78475,-0.35232 0,-1.32184 0,-1.41532 0,-2.73712 1.14955,0 2.20314,0 3.35269,0 0,-0.55609 0.0307,-0.95771 0.0307,-1.51377 -2.63231,0.0186 -5.77863,0.0186 -8.62177,0 z"
         style="fill:#000000;stroke:none;stroke-width:1" />
      <path
         sodipodi:nodetypes="cccccccccccccccc"
         inkscape:connector-curvature="0"
         id="path2985-3-3"
         d="m 45.70946,814.07624 c 0,-1.66823 -0.09238,-2.87307 -0.09238,-4.5413 3.448704,0 7.185441,0 10.634123,0 0,-3.96545 0,-4.24592 0,-8.2114 -6.731793,0.2169 -14.01738,0.71685 -20.321702,-2.06095 -4.879854,-2.67821 -6.226348,-8.91266 -5.242485,-14.03808 0.842118,-5.78261 4.056821,-10.91785 8.250581,-14.87291 5.457325,-5.83729 12.417214,-9.77784 19.683448,-12.94844 7.417061,3.22422 14.530399,7.29373 20.056933,13.28492 4.977887,4.67796 8.294558,11.2895 8.192664,18.21177 0.107967,4.99649 -2.987067,10.27644 -8.092154,11.36674 -5.711113,1.58155 -11.491414,1.30096 -17.35423,1.05695 0,3.96548 0,4.24595 0,8.2114 3.448679,0 6.609354,0 10.058058,0 0,1.66823 0.0924,2.87307 0.0924,4.5413 -7.896858,-0.0556 -17.335871,-0.0556 -25.865256,0 z"
         style="fill:#000000;stroke:none;stroke-width:1" />
      <path
         sodipodi:nodetypes="cccccccccccccccc"
         inkscape:connector-curvature="0"
         id="path2985-3-3-5"
         d="m 162.45012,814.07624 c 0,-1.66823 -0.0924,-2.87307 -0.0924,-4.5413 3.44871,0 7.18544,0 10.63413,0 0,-3.96545 0,-4.24592 0,-8.2114 -6.7318,0.2169 -14.01738,0.71685 -20.3217,-2.06095 -4.87986,-2.67821 -6.22636,-8.91266 -5.24249,-14.03808 0.84212,-5.78261 4.05682,-10.91785 8.25058,-14.87291 5.45733,-5.83729 12.41722,-9.77784 19.68345,-12.94844 7.41706,3.22422 14.5304,7.29373 20.05693,13.28492 4.97789,4.67796 8.29456,11.2895 8.19267,18.21177 0.10796,4.99649 -2.98707,10.27644 -8.09216,11.36674 -5.71111,1.58155 -11.49141,1.30096 -17.35423,1.05695 0,3.96548 0,4.24595 0,8.2114 3.44868,0 6.60936,0 10.05806,0 0,1.66823 0.0924,2.87307 0.0924,4.5413 -7.89686,-0.0556 -17.33587,-0.0556 -25.86526,0 z"
         style="fill:#000000;stroke:none;stroke-width:1" />
      <path
         sodipodi:nodetypes="cccccccccccccccc"
         inkscape:connector-curvature="0"
         id="path2985-3-38-2"
         d="m 45.70946,957.64807 c 0,1.66823 -0.09238,2.87307 -0.09238,4.54131 3.448704,0 7.185441,0 10.634123,0 0,3.96548 0,4.24591 0,8.21139 -6.731793,-0.2169 -14.01738,-0.71685 -20.321702,2.06098 -4.879854,2.67818 -6.226348,8.91263 -5.242485,14.03805 0.842118,5.78261 4.056821,10.91788 8.250581,14.8729 5.457325,5.8373 12.417214,9.7779 19.683448,12.9485 7.417061,-3.2242 14.530399,-7.2937 20.056933,-13.285 4.977887,-4.67793 8.294558,-11.28947 8.192664,-18.21174 0.107967,-4.99646 -2.987067,-10.27644 -8.092154,-11.3667 -5.711113,-1.58159 -11.491414,-1.301 -17.35423,-1.05699 0,-3.96548 0,-4.24591 0,-8.21139 3.448679,0 6.609354,0 10.058058,0 0,-1.66824 0.0924,-2.87308 0.0924,-4.54131 -7.896858,0.0556 -17.335871,0.0556 -25.865256,0 z"
         style="fill:#000000;stroke:none;stroke-width:1" />
      <path
         sodipodi:nodetypes="cccccccccccccccc"
         inkscape:connector-curvature="0"
         id="path2985-3-38-2-3"
         d="m 162.45012,957.64807 c 0,1.66824 -0.0924,2.87308 -0.0924,4.54131 3.44871,0 7.18544,0 10.63412,0 0,3.96548 0,4.24592 0,8.2114 -6.73179,-0.2169 -14.01738,-0.71685 -20.3217,2.06098 -4.87985,2.67818 -6.22635,8.91263 -5.24248,14.03805 0.84212,5.78261 4.05682,10.91788 8.25058,14.87289 5.45732,5.8373 12.41721,9.7779 19.68345,12.9485 7.41706,-3.2242 14.53039,-7.2937 20.05693,-13.285 4.97789,-4.67792 8.29456,-11.28946 8.19266,-18.21174 0.10797,-4.99645 -2.98706,-10.27643 -8.09215,-11.3667 -5.71111,-1.58159 -11.49142,-1.30099 -17.35423,-1.05698 0,-3.96548 0,-4.24592 0,-8.2114 3.44868,0 6.60935,0 10.05806,0 0,-1.66823 0.0924,-2.87307 0.0924,-4.54131 -7.89685,0.0556 -17.33587,0.0556 -25.86525,0 z"
         style="fill:#000000;stroke:none;stroke-width:1" />
      <g
         id="text3755-5"
         style="font-style:normal;font-variant:normal;font-weight:bold;font-stretch:normal;font-size:3.77201176px;line-height:0%;font-family:'Levenim MT';-inkscape-font-specification:'Sans Bold';letter-spacing:0px;word-spacing:0px;fill:#000000;fill-opacity:1;stroke:none;stroke-width:1"
         transform="scale(0.9367271,1.0675468)"
         aria-label="4">
        <path
           id="path899"
           style="font-size:37.69855499px;line-height:1.25;stroke-width:1"
           d="m 28.418244,706.77169 q 0,0.38656 -0.14726,0.75471 -0.331335,0.18407 -0.699485,0.18407 H 15.753885 q -1.362154,0 -1.362154,-1.38056 0,-0.22089 0.03682,-0.77311 0.03681,-0.55223 0.03681,-0.84675 0,-0.64426 0.276112,-0.82834 0.202483,-0.12885 0.901967,-0.12885 h 4.601875 v -2.83475 H 9.9187087 q -1.6014522,0 -1.6014522,-1.49101 0,-0.2577 0.055223,-0.93878 0.055222,-0.69949 0.055222,-1.10445 0,-0.62586 0.7178924,-1.56464 l 10.6395332,-13.9897 q 0.497003,-0.66267 1.25171,-0.66267 h 2.42979 q 0.865152,0 0.865152,0.95719 v 15.02052 q 0.66267,0 1.509415,-0.0368 0.865153,-0.0368 1.10445,-0.0368 0.994005,0 1.233302,0.497 0.239298,0.4786 0.239298,2.39298 0,0.34974 -0.05522,0.53382 -0.110445,0.42337 -0.846745,0.42337 h -3.184497 v 2.83475 q 0.681078,0 1.54623,-0.0368 0.865153,-0.0368 1.086042,-0.0368 1.049228,0 1.270118,0.53382 0.184075,0.44178 0.184075,2.55864 z m -8.099299,-19.69602 q -1.012413,1.54623 -7.473444,10.0689 h 7.399814 q 0,-0.9756 -0.03682,-3.35016 -0.05522,-2.15368 -0.03682,-3.36858 0.01841,-1.84075 0.14726,-3.35016 z" />
      </g>
      <g
         id="text3755-2-28"
         style="font-style:normal;font-variant:normal;font-weight:bold;font-stretch:normal;font-size:3.77201176px;line-height:0%;font-family:'Levenim MT';-inkscape-font-specification:'Sans Bold';letter-spacing:0px;word-spacing:0px;fill:#000000;fill-opacity:1;stroke:none;stroke-width:1"
         transform="scale(-0.9367271,-1.0675468)"
         aria-label="4">
        <path
           id="path902"
           style="font-size:37.69855499px;line-height:1.25;stroke-width:1"
           d="m -221.38771,-952.85044 q 0,0.38656 -0.14726,0.75471 -0.33134,0.18407 -0.69949,0.18407 h -11.81761 q -1.36215,0 -1.36215,-1.38056 0,-0.22089 0.0368,-0.77311 0.0368,-0.55223 0.0368,-0.84675 0,-0.64426 0.27611,-0.82834 0.20248,-0.12885 0.90197,-0.12885 h 4.60187 v -2.83475 h -10.32661 q -1.60145,0 -1.60145,-1.49101 0,-0.25771 0.0552,-0.93878 0.0552,-0.69949 0.0552,-1.10445 0,-0.62586 0.71789,-1.56464 l 10.63953,-13.9897 q 0.49701,-0.66267 1.25171,-0.66267 h 2.42979 q 0.86515,0 0.86515,0.95719 v 15.02052 q 0.66267,0 1.50942,-0.0368 0.86515,-0.0368 1.10445,-0.0368 0.994,0 1.2333,0.497 0.2393,0.4786 0.2393,2.39298 0,0.34974 -0.0552,0.53381 -0.11045,0.42338 -0.84675,0.42338 h -3.1845 v 2.83475 q 0.68108,0 1.54623,-0.0368 0.86516,-0.0368 1.08605,-0.0368 1.04922,0 1.27011,0.53382 0.18408,0.44178 0.18408,2.55864 z m -8.0993,-19.69602 q -1.01241,1.54623 -7.47344,10.0689 h 7.39981 q 0,-0.9756 -0.0368,-3.35017 -0.0552,-2.15367 -0.0368,-3.36857 0.0184,-1.84075 0.14726,-3.35016 z" />
      </g>
    </g>
  </g>
</svg>
