<?xml version="1.0" encoding="UTF-8" standalone="no"?>
<!-- Created with Inkscape (http://www.inkscape.org/) -->

<svg
   xmlns:dc="http://purl.org/dc/elements/1.1/"
   xmlns:cc="http://creativecommons.org/ns#"
   xmlns:rdf="http://www.w3.org/1999/02/22-rdf-syntax-ns#"
   xmlns:svg="http://www.w3.org/2000/svg"
   xmlns="http://www.w3.org/2000/svg"
   xmlns:sodipodi="http://sodipodi.sourceforge.net/DTD/sodipodi-0.dtd"
   xmlns:inkscape="http://www.inkscape.org/namespaces/inkscape"
   width="234"
   height="333.00003"
   id="svg2"
   version="1.1"
   inkscape:version="0.92.4 (5da689c313, 2019-01-14)"
   sodipodi:docname="hearts_10.svg"
   inkscape:export-filename="C:\Users\fowle\OneDrive\Projects\Playing-Cards\fronts\png-096-dpi\hearts_10.png"
   inkscape:export-xdpi="96"
   inkscape:export-ydpi="96">
  <title
     id="title897">Ten of Hearts Playing Card</title>
  <defs
     id="defs4" />
  <sodipodi:namedview
     id="base"
     pagecolor="#ffffff"
     bordercolor="#666666"
     borderopacity="1.0"
     inkscape:pageopacity="0.0"
     inkscape:pageshadow="2"
     inkscape:zoom="2.1916676"
     inkscape:cx="32.54102"
     inkscape:cy="163.89266"
     inkscape:document-units="px"
     inkscape:current-layer="layer1"
     showgrid="false"
     inkscape:showpageshadow="false"
     showguides="true"
     inkscape:guide-bbox="true"
     inkscape:snap-global="true"
     inkscape:window-width="1456"
     inkscape:window-height="976"
     inkscape:window-x="448"
     inkscape:window-y="23"
     inkscape:window-maximized="0"
     fit-margin-top="0"
     fit-margin-left="0"
     fit-margin-right="0"
     fit-margin-bottom="0"
     showborder="false">
    <inkscape:grid
       type="xygrid"
       id="grid3767"
       empspacing="5"
       visible="true"
       enabled="true"
       snapvisiblegridlinesonly="true"
       originx="0"
       originy="5.1666068e-06" />
  </sodipodi:namedview>
  <metadata
     id="metadata7">
    <rdf:RDF>
      <cc:Work
         rdf:about="">
        <dc:format>image/svg+xml</dc:format>
        <dc:type
           rdf:resource="http://purl.org/dc/dcmitype/StillImage" />
        <dc:title>Ten of Hearts Playing Card</dc:title>
        <cc:license
           rdf:resource="http://creativecommons.org/publicdomain/zero/1.0/" />
        <dc:date>2020-05-05</dc:date>
        <dc:creator>
          <cc:Agent>
            <dc:title>Daniel S. Fowler</dc:title>
          </cc:Agent>
        </dc:creator>
        <dc:rights>
          <cc:Agent>
            <dc:title>Public Domain</dc:title>
          </cc:Agent>
        </dc:rights>
        <dc:publisher>
          <cc:Agent>
            <dc:title>https://tekeye.uk</dc:title>
          </cc:Agent>
        </dc:publisher>
        <dc:language>en-GB</dc:language>
        <dc:subject>
          <rdf:Bag>
            <rdf:li>ten; hearts; playing; card; white; red;</rdf:li>
          </rdf:Bag>
        </dc:subject>
        <dc:description>A ten of hearts playing card.</dc:description>
      </cc:Work>
      <cc:License
         rdf:about="http://creativecommons.org/publicdomain/zero/1.0/">
        <cc:permits
           rdf:resource="http://creativecommons.org/ns#Reproduction" />
        <cc:permits
           rdf:resource="http://creativecommons.org/ns#Distribution" />
        <cc:permits
           rdf:resource="http://creativecommons.org/ns#DerivativeWorks" />
      </cc:License>
    </rdf:RDF>
  </metadata>
  <g
     inkscape:label="Layer 1"
     inkscape:groupmode="layer"
     id="layer1"
     transform="translate(0,-719.36216)">
    <g
       id="g935">
      <rect
         rx="8.9191856"
         ry="8.9457436"
         y="719.74011"
         x="0.37795275"
         height="332.24411"
         width="233.24409"
         id="rect4266"
         style="fill:#ffffff;fill-opacity:1;stroke:#808080;stroke-width:0.75590551;stroke-linecap:butt;stroke-linejoin:miter;stroke-miterlimit:4;stroke-dasharray:none;stroke-opacity:1" />
      <g
         transform="matrix(0.07348588,0,0,0.07370838,-248.01731,933.60062)"
         id="g4233"
         style="fill:none;stroke:#000000;stroke-width:3.18132639;stroke-opacity:1" />
      <g
         clip-path="none"
         style="fill:none;stroke:#000000;stroke-width:3.18132639;stroke-opacity:1"
         id="g4211"
         transform="matrix(0.07348588,0,0,0.07370838,-248.01728,933.60062)" />
      <g
         transform="matrix(0.07348588,0,0,0.07370838,-248.01731,933.60062)"
         id="g4227"
         style="fill:none;stroke:#000000;stroke-width:3.18132639;stroke-opacity:1" />
      <g
         id="text3216-7"
         style="font-style:normal;font-variant:normal;font-weight:bold;font-stretch:normal;font-size:3.77201176px;line-height:0%;font-family:'Levenim MT';-inkscape-font-specification:'Sans Bold';letter-spacing:0px;word-spacing:0px;fill:#ff0000;fill-opacity:1;stroke:none;stroke-width:1"
         transform="scale(0.72184748,1.3853342)"
         aria-label="1">
        <path
           id="path902"
           style="font-size:28.97036934px;line-height:1.25;stroke-width:1"
           d="m 23.835468,544.63039 q 0,0.35364 -0.127311,0.62241 -0.339497,0.11317 -0.735576,0.11317 H 12.533063 q -0.933616,0 -0.933616,-0.9902 0,-0.16975 0.02829,-0.53754 0.02829,-0.38193 0.02829,-0.57997 0,-0.93362 0.82045,-0.93362 h 3.522276 v -13.07061 h -4.300289 q -0.905324,0 -0.905324,-0.9902 0,-0.21219 0.04244,-0.67899 0.05658,-0.48096 0.05658,-0.72143 0,-0.48096 0.905324,-0.48096 0.254622,0 0.961907,0.0566 0.707284,0.0424 1.103364,0.0424 2.26331,0 2.744263,-1.57017 h 2.701827 v 17.41334 q 0.947761,0 2.036979,-0.0566 1.103363,-0.0707 1.315549,-0.0707 0.82045,0 1.018489,0.43852 0.155603,0.38193 0.155603,1.99454 z" />
      </g>
      <g
         id="text3990-14"
         style="font-style:normal;font-variant:normal;font-weight:bold;font-stretch:normal;font-size:3.77201176px;line-height:0%;font-family:'Levenim MT';-inkscape-font-specification:'Sans Bold';letter-spacing:0px;word-spacing:0px;fill:#ff0000;fill-opacity:1;stroke:none;stroke-width:1"
         transform="scale(0.69918846,1.4302296)"
         aria-label="0">
        <path
           id="path899"
           style="font-size:27.65928841px;line-height:1.25;stroke-width:1"
           d="m 38.072907,518.57679 q 0,9.66994 -6.685228,9.66994 -6.779767,0 -6.779767,-9.72396 0,-10.08862 6.914822,-10.08862 6.550173,0 6.550173,10.14264 z m -3.511433,-0.28362 q 0,-6.92833 -3.227817,-6.92833 -1.890772,0 -2.687597,2.74162 -0.499704,1.72871 -0.499704,4.30826 0,6.92833 3.187301,6.92833 1.904277,0 2.714608,-2.72811 0.513209,-1.75572 0.513209,-4.32177 z" />
      </g>
      <g
         id="text3216-7-2"
         style="font-style:normal;font-variant:normal;font-weight:bold;font-stretch:normal;font-size:3.77201176px;line-height:0%;font-family:'Levenim MT';-inkscape-font-specification:'Sans Bold';letter-spacing:0px;word-spacing:0px;fill:#ff0000;fill-opacity:1;stroke:none;stroke-width:1"
         transform="scale(-0.72184748,-1.3853342)"
         aria-label="1">
        <path
           id="path908"
           style="font-size:28.97036934px;line-height:1.25;stroke-width:1"
           d="m -300.33276,-734.2844 q 0,0.35364 -0.12731,0.62241 -0.3395,0.11316 -0.73558,0.11316 h -10.43951 q -0.93362,0 -0.93362,-0.9902 0,-0.16974 0.0283,-0.53753 0.0283,-0.38194 0.0283,-0.57998 0,-0.93361 0.82045,-0.93361 h 3.52228 v -13.07062 h -4.30029 q -0.90532,0 -0.90532,-0.9902 0,-0.21218 0.0424,-0.67899 0.0566,-0.48095 0.0566,-0.72143 0,-0.48095 0.90532,-0.48095 0.25462,0 0.96191,0.0566 0.70728,0.0424 1.10336,0.0424 2.26331,0 2.74426,-1.57017 h 2.70183 v 17.41334 q 0.94776,0 2.03698,-0.0566 1.10336,-0.0707 1.31555,-0.0707 0.82045,0 1.01849,0.43851 0.1556,0.38194 0.1556,1.99455 z" />
      </g>
      <g
         id="text3990-14-6"
         style="font-style:normal;font-variant:normal;font-weight:bold;font-stretch:normal;font-size:3.77201176px;line-height:0%;font-family:'Levenim MT';-inkscape-font-specification:'Sans Bold';letter-spacing:0px;word-spacing:0px;fill:#ff0000;fill-opacity:1;stroke:none;stroke-width:1"
         transform="scale(-0.69918846,-1.4302296)"
         aria-label="0">
        <path
           id="path905"
           style="font-size:27.65928841px;line-height:1.25;stroke-width:1"
           d="m -296.60082,-720.19244 q 0,9.66995 -6.68523,9.66995 -6.77977,0 -6.77977,-9.72397 0,-10.08862 6.91482,-10.08862 6.55018,0 6.55018,10.14264 z m -3.51144,-0.28361 q 0,-6.92833 -3.22781,-6.92833 -1.89078,0 -2.6876,2.74162 -0.4997,1.7287 -0.4997,4.30826 0,6.92832 3.1873,6.92832 1.90427,0 2.7146,-2.72811 0.51321,-1.75572 0.51321,-4.32176 z" />
      </g>
      <path
         sodipodi:nodetypes="csssssssscssssssssc"
         inkscape:connector-curvature="0"
         id="path3940-9"
         d="m 58.597133,814.07624 c -2.653214,-5.69589 -6.07814,-11.01838 -10.147368,-15.76947 -2.624249,-3.06398 -5.508873,-5.88504 -8.43128,-8.65507 -2.282814,-2.16375 -4.606141,-4.31575 -6.473992,-6.85891 -1.261866,-1.71813 -2.314885,-3.62962 -2.816556,-5.7134 -0.908632,-3.77411 0.07987,-7.82001 1.944736,-11.21027 1.092153,-1.98547 2.489526,-3.81145 4.21076,-5.26296 2.557405,-2.15665 5.894117,-3.44611 9.203118,-3.16466 3.034567,0.2581 5.872369,1.80791 8.086801,3.93638 1.959831,1.88375 3.486372,4.23197 4.456324,6.8049 0.969951,-2.57293 2.496492,-4.92115 4.456323,-6.8049 2.214432,-2.12847 5.052234,-3.67828 8.08677,-3.93638 3.309001,-0.28145 6.645713,1.00801 9.203118,3.16466 1.721265,1.45151 3.118607,3.27749 4.21076,5.26296 1.8649,3.39026 2.853399,7.43616 1.944767,11.21027 -0.501671,2.08378 -1.554722,3.99527 -2.816588,5.7134 -1.867819,2.54316 -4.191178,4.69516 -6.47396,6.85891 -2.922407,2.77003 -5.807063,5.59109 -8.431311,8.65507 -4.069228,4.75109 -7.494154,10.07358 -10.147368,15.76947"
         style="fill:#ff0000;fill-opacity:1;stroke:none;stroke-width:1" />
      <path
         sodipodi:nodetypes="csssssssscssssssssc"
         inkscape:connector-curvature="0"
         id="path3940-9-3"
         d="m 58.597133,880.82455 c -2.653214,-5.6959 -6.07814,-11.01839 -10.147368,-15.76947 -2.624249,-3.06398 -5.508873,-5.88505 -8.43128,-8.65508 -2.282814,-2.16375 -4.606141,-4.31575 -6.473992,-6.85891 -1.261866,-1.71812 -2.314885,-3.62962 -2.816556,-5.7134 -0.908632,-3.77411 0.07987,-7.82001 1.944736,-11.21027 1.092153,-1.98547 2.489526,-3.81145 4.21076,-5.26296 2.557405,-2.15664 5.894117,-3.44611 9.203118,-3.16466 3.034567,0.2581 5.872369,1.80791 8.086801,3.93638 1.959831,1.88375 3.486372,4.23197 4.456324,6.8049 0.969951,-2.57293 2.496492,-4.92115 4.456323,-6.8049 2.214432,-2.12847 5.052234,-3.67828 8.08677,-3.93638 3.309001,-0.28145 6.645713,1.00802 9.203118,3.16466 1.721265,1.45151 3.118607,3.27749 4.21076,5.26296 1.8649,3.39026 2.853399,7.43616 1.944767,11.21027 -0.501671,2.08378 -1.554722,3.99528 -2.816588,5.7134 -1.867819,2.54316 -4.191178,4.69516 -6.47396,6.85891 -2.922407,2.77003 -5.807063,5.5911 -8.431311,8.65508 -4.069228,4.75108 -7.494154,10.07357 -10.147368,15.76947"
         style="fill:#ff0000;fill-opacity:1;stroke:none;stroke-width:1" />
      <path
         inkscape:transform-center-y="71.513382"
         inkscape:transform-center-x="78.569004"
         sodipodi:nodetypes="csssssssscssssssssc"
         inkscape:connector-curvature="0"
         id="path3940-9-1"
         d="m 175.33779,814.07624 c -2.65321,-5.69589 -6.07814,-11.01838 -10.14737,-15.76947 -2.62425,-3.06398 -5.50887,-5.88504 -8.43128,-8.65508 -2.28281,-2.16374 -4.60614,-4.31575 -6.47399,-6.85891 -1.26187,-1.71812 -2.31489,-3.62962 -2.81656,-5.7134 -0.90863,-3.7741 0.0799,-7.82001 1.94474,-11.21026 1.09215,-1.98547 2.48953,-3.81145 4.21076,-5.26296 2.5574,-2.15665 5.89412,-3.44611 9.20312,-3.16466 3.03456,0.2581 5.87237,1.80791 8.0868,3.93638 1.95983,1.88375 3.48637,4.23197 4.45632,6.8049 0.96995,-2.57293 2.4965,-4.92115 4.45633,-6.8049 2.21443,-2.12847 5.05223,-3.67828 8.08677,-3.93638 3.309,-0.28145 6.64571,1.00801 9.20311,3.16466 1.72127,1.45151 3.11861,3.27749 4.21076,5.26296 1.8649,3.39025 2.8534,7.43616 1.94477,11.21026 -0.50167,2.08378 -1.55472,3.99528 -2.81659,5.7134 -1.86782,2.54316 -4.19117,4.69517 -6.47396,6.85891 -2.9224,2.77004 -5.80706,5.5911 -8.43131,8.65508 -4.06923,4.75109 -7.49415,10.07358 -10.14737,15.76947"
         style="fill:#ff0000;fill-opacity:1;stroke:none;stroke-width:1" />
      <path
         sodipodi:nodetypes="csssssssscssssssssc"
         inkscape:connector-curvature="0"
         id="path3940-9-9"
         d="m 116.96746,847.4504 c -2.65321,-5.6959 -6.07814,-11.01839 -10.14737,-15.76948 -2.62425,-3.06398 -5.50887,-5.88504 -8.431277,-8.65508 -2.282813,-2.16374 -4.606141,-4.31574 -6.473991,-6.8589 -1.261866,-1.71812 -2.314886,-3.62962 -2.816557,-5.7134 -0.908631,-3.77411 0.07987,-7.82001 1.944736,-11.21027 1.092153,-1.98547 2.489526,-3.81145 4.210761,-5.26296 2.557404,-2.15664 5.894118,-3.44611 9.203118,-3.16466 3.03457,0.25811 5.87237,1.80791 8.0868,3.93638 1.95983,1.88375 3.48637,4.23197 4.45632,6.80491 0.96996,-2.57294 2.4965,-4.92116 4.45633,-6.80491 2.21443,-2.12847 5.05223,-3.67827 8.08677,-3.93638 3.309,-0.28145 6.64571,1.00802 9.20312,3.16466 1.72126,1.45151 3.1186,3.27749 4.21076,5.26296 1.8649,3.39026 2.85339,7.43616 1.94476,11.21027 -0.50167,2.08378 -1.55472,3.99528 -2.81659,5.7134 -1.86781,2.54316 -4.19117,4.69516 -6.47396,6.8589 -2.9224,2.77004 -5.80706,5.5911 -8.43131,8.65508 -4.06922,4.75109 -7.49415,10.07358 -10.14736,15.76948"
         style="fill:#ff0000;fill-opacity:1;stroke:none;stroke-width:1" />
      <path
         sodipodi:nodetypes="csssssssscssssssssc"
         inkscape:connector-curvature="0"
         id="path3940-9-8"
         d="m 175.33779,880.82455 c -2.65321,-5.6959 -6.07814,-11.01839 -10.14737,-15.76947 -2.62425,-3.06398 -5.50887,-5.88505 -8.43128,-8.65508 -2.28281,-2.16375 -4.60614,-4.31575 -6.47399,-6.85891 -1.26187,-1.71812 -2.31489,-3.62962 -2.81656,-5.7134 -0.90863,-3.77411 0.0799,-7.82001 1.94474,-11.21027 1.09215,-1.98547 2.48953,-3.81145 4.21076,-5.26296 2.5574,-2.15664 5.89412,-3.44611 9.20312,-3.16466 3.03456,0.2581 5.87237,1.80791 8.0868,3.93638 1.95983,1.88375 3.48637,4.23197 4.45632,6.8049 0.96995,-2.57293 2.4965,-4.92115 4.45633,-6.8049 2.21443,-2.12847 5.05223,-3.67828 8.08677,-3.93638 3.309,-0.28145 6.64571,1.00802 9.20311,3.16466 1.72127,1.45151 3.11861,3.27749 4.21076,5.26296 1.8649,3.39026 2.8534,7.43616 1.94477,11.21027 -0.50167,2.08378 -1.55472,3.99528 -2.81659,5.7134 -1.86782,2.54316 -4.19117,4.69516 -6.47396,6.85891 -2.9224,2.77003 -5.80706,5.5911 -8.43131,8.65508 -4.06923,4.75108 -7.49415,10.07357 -10.14737,15.76947"
         style="fill:#ff0000;fill-opacity:1;stroke:none;stroke-width:1" />
      <path
         sodipodi:nodetypes="csssssssscssssssssc"
         inkscape:connector-curvature="0"
         id="path3940-9-6"
         d="m 58.597133,957.64807 c -2.653214,5.69589 -6.07814,11.01839 -10.147368,15.76947 -2.624249,3.06398 -5.508873,5.88505 -8.43128,8.65508 -2.282814,2.16374 -4.606141,4.31575 -6.473992,6.85891 -1.261866,1.71812 -2.314885,3.62962 -2.816556,5.7134 -0.908632,3.77411 0.07987,7.81997 1.944736,11.21027 1.092153,1.9855 2.489526,3.8114 4.21076,5.263 2.557405,2.1566 5.894117,3.4461 9.203118,3.1646 3.034567,-0.2581 5.872369,-1.8079 8.086801,-3.9364 1.959831,-1.8837 3.486372,-4.2319 4.456324,-6.8049 0.969951,2.573 2.496492,4.9212 4.456323,6.8049 2.214432,2.1285 5.052234,3.6783 8.08677,3.9364 3.309001,0.2815 6.645713,-1.008 9.203118,-3.1646 1.721265,-1.4516 3.118607,-3.2775 4.21076,-5.263 1.8649,-3.3903 2.853399,-7.43616 1.944767,-11.21027 -0.501671,-2.08378 -1.554722,-3.99528 -2.816588,-5.7134 -1.867819,-2.54316 -4.191178,-4.69517 -6.47396,-6.85891 -2.922407,-2.77003 -5.807063,-5.5911 -8.431311,-8.65508 -4.069228,-4.75108 -7.494154,-10.07358 -10.147368,-15.76947"
         style="fill:#ff0000;fill-opacity:1;stroke:none;stroke-width:1" />
      <path
         sodipodi:nodetypes="csssssssscssssssssc"
         inkscape:connector-curvature="0"
         id="path3940-9-3-5"
         d="m 58.597133,890.89976 c -2.653214,5.6959 -6.07814,11.01839 -10.147368,15.76948 -2.624249,3.06398 -5.508873,5.88504 -8.43128,8.65508 -2.282814,2.16374 -4.606141,4.31575 -6.473992,6.8589 -1.261866,1.71813 -2.314885,3.62963 -2.816556,5.7134 -0.908632,3.77411 0.07987,7.82001 1.944736,11.21027 1.092153,1.98547 2.489526,3.81145 4.21076,5.26296 2.557405,2.15665 5.894117,3.44611 9.203118,3.16466 3.034567,-0.2581 5.872369,-1.80791 8.086801,-3.93638 1.959831,-1.88374 3.486372,-4.23197 4.456324,-6.8049 0.969951,2.57293 2.496492,4.92116 4.456323,6.8049 2.214432,2.12847 5.052234,3.67828 8.08677,3.93638 3.309001,0.28145 6.645713,-1.00801 9.203118,-3.16466 1.721265,-1.45151 3.118607,-3.27749 4.21076,-5.26296 1.8649,-3.39026 2.853399,-7.43616 1.944767,-11.21027 -0.501671,-2.08377 -1.554722,-3.99527 -2.816588,-5.7134 -1.867819,-2.54315 -4.191178,-4.69516 -6.47396,-6.8589 -2.922407,-2.77004 -5.807063,-5.5911 -8.431311,-8.65508 -4.069228,-4.75109 -7.494154,-10.07358 -10.147368,-15.76948"
         style="fill:#ff0000;fill-opacity:1;stroke:none;stroke-width:1" />
      <path
         inkscape:transform-center-y="-71.513389"
         inkscape:transform-center-x="78.569004"
         sodipodi:nodetypes="csssssssscssssssssc"
         inkscape:connector-curvature="0"
         id="path3940-9-1-0"
         d="m 175.33779,957.64807 c -2.65321,5.69589 -6.07814,11.01839 -10.14737,15.76947 -2.62425,3.06398 -5.50887,5.88505 -8.43128,8.65508 -2.28281,2.16375 -4.60614,4.31575 -6.47399,6.85891 -1.26187,1.71812 -2.31489,3.62962 -2.81656,5.7134 -0.90863,3.77411 0.0799,7.81997 1.94474,11.21027 1.09215,1.9855 2.48953,3.8114 4.21076,5.263 2.5574,2.1566 5.89412,3.4461 9.20312,3.1646 3.03456,-0.2581 5.87237,-1.8079 8.0868,-3.9364 1.95983,-1.8837 3.48637,-4.2319 4.45632,-6.8049 0.96995,2.573 2.4965,4.9212 4.45633,6.8049 2.21443,2.1285 5.05223,3.6783 8.08677,3.9364 3.309,0.2815 6.64571,-1.008 9.20311,-3.1646 1.72127,-1.4516 3.11861,-3.2775 4.21076,-5.263 1.8649,-3.3903 2.8534,-7.43616 1.94477,-11.21027 -0.50167,-2.08378 -1.55472,-3.99528 -2.81659,-5.7134 -1.86782,-2.54316 -4.19117,-4.69516 -6.47396,-6.85891 -2.9224,-2.77003 -5.80706,-5.5911 -8.43131,-8.65508 -4.06923,-4.75108 -7.49415,-10.07358 -10.14737,-15.76947"
         style="fill:#ff0000;fill-opacity:1;stroke:none;stroke-width:1" />
      <path
         sodipodi:nodetypes="csssssssscssssssssc"
         inkscape:connector-curvature="0"
         id="path3940-9-9-2"
         d="m 116.96746,924.27392 c -2.65321,5.69589 -6.07814,11.01838 -10.14737,15.76947 -2.62425,3.06398 -5.50887,5.88505 -8.431277,8.65508 -2.282813,2.16374 -4.606141,4.31575 -6.473991,6.85891 -1.261866,1.71812 -2.314886,3.62962 -2.816557,5.7134 -0.908631,3.77411 0.07987,7.82001 1.944736,11.21026 1.092153,1.98547 2.489526,3.81146 4.210761,5.26296 2.557404,2.15665 5.894118,3.44611 9.203118,3.16466 3.03457,-0.2581 5.87237,-1.8079 8.0868,-3.93638 1.95983,-1.88374 3.48637,-4.23196 4.45632,-6.8049 0.96996,2.57294 2.4965,4.92116 4.45633,6.8049 2.21443,2.12848 5.05223,3.67828 8.08677,3.93638 3.309,0.28145 6.64571,-1.00801 9.20312,-3.16466 1.72126,-1.4515 3.1186,-3.27749 4.21076,-5.26296 1.8649,-3.39025 2.85339,-7.43615 1.94476,-11.21026 -0.50167,-2.08378 -1.55472,-3.99528 -2.81659,-5.7134 -1.86781,-2.54316 -4.19117,-4.69517 -6.47396,-6.85891 -2.9224,-2.77003 -5.80706,-5.5911 -8.43131,-8.65508 -4.06922,-4.75109 -7.49415,-10.07358 -10.14736,-15.76947"
         style="fill:#ff0000;fill-opacity:1;stroke:none;stroke-width:1" />
      <path
         sodipodi:nodetypes="csssssssscssssssssc"
         inkscape:connector-curvature="0"
         id="path3940-9-8-8"
         d="m 175.33779,890.89976 c -2.65321,5.6959 -6.07814,11.01839 -10.14737,15.76948 -2.62425,3.06398 -5.50887,5.88504 -8.43128,8.65508 -2.28281,2.16374 -4.60614,4.31575 -6.47399,6.8589 -1.26187,1.71813 -2.31489,3.62963 -2.81656,5.7134 -0.90863,3.77411 0.0799,7.82001 1.94474,11.21027 1.09215,1.98547 2.48953,3.81145 4.21076,5.26296 2.5574,2.15665 5.89412,3.44611 9.20312,3.16466 3.03456,-0.2581 5.87237,-1.80791 8.0868,-3.93638 1.95983,-1.88374 3.48637,-4.23197 4.45632,-6.8049 0.96995,2.57293 2.4965,4.92116 4.45633,6.8049 2.21443,2.12847 5.05223,3.67828 8.08677,3.93638 3.309,0.28145 6.64571,-1.00801 9.20311,-3.16466 1.72127,-1.45151 3.11861,-3.27749 4.21076,-5.26296 1.8649,-3.39026 2.8534,-7.43616 1.94477,-11.21027 -0.50167,-2.08377 -1.55472,-3.99527 -2.81659,-5.7134 -1.86782,-2.54315 -4.19117,-4.69516 -6.47396,-6.8589 -2.9224,-2.77004 -5.80706,-5.5911 -8.43131,-8.65508 -4.06923,-4.75109 -7.49415,-10.07358 -10.14737,-15.76948"
         style="fill:#ff0000;fill-opacity:1;stroke:none;stroke-width:1" />
      <path
         sodipodi:nodetypes="csssssssscssssssssc"
         inkscape:connector-curvature="0"
         id="path3940-9-6-6"
         d="m 216.78358,991.02223 c -0.88441,1.89861 -2.02605,3.67279 -3.38244,5.25649 -0.87477,1.02131 -1.83631,1.96168 -2.81044,2.88501 -0.76095,0.72126 -1.53539,1.43857 -2.158,2.28627 -0.42062,0.5728 -0.77162,1.2099 -0.93886,1.9045 -0.30286,1.258 0.0267,2.6067 0.64826,3.7368 0.36406,0.6618 0.82983,1.2704 1.40359,1.7543 0.85245,0.7189 1.96469,1.1487 3.0677,1.0549 1.01153,-0.086 1.95745,-0.6027 2.69561,-1.3122 0.65328,-0.6279 1.16211,-1.4106 1.48543,-2.2683 0.32333,0.8577 0.83216,1.6404 1.48543,2.2683 0.73817,0.7095 1.68408,1.2261 2.69561,1.3122 1.10298,0.094 2.21522,-0.336 3.06771,-1.0549 0.57376,-0.4839 1.03953,-1.0925 1.40359,-1.7543 0.62161,-1.1301 0.95112,-2.4788 0.64825,-3.7368 -0.16723,-0.6946 -0.51824,-1.3317 -0.93888,-1.9045 -0.62259,-0.8477 -1.39706,-1.56501 -2.15798,-2.28627 -0.97412,-0.92333 -1.93569,-1.8637 -2.81043,-2.88501 -1.35642,-1.5837 -2.49807,-3.35788 -3.38247,-5.25649"
         style="fill:#ff0000;fill-opacity:1;stroke:none;stroke-width:1" />
      <path
         sodipodi:nodetypes="csssssssscssssssssc"
         inkscape:connector-curvature="0"
         id="path3940-9-0"
         d="m 17.194721,780.70209 c -0.884405,-1.89863 -2.026047,-3.67279 -3.382454,-5.25649 -0.874748,-1.02132 -1.83629,-1.96168 -2.810428,-2.88502 -0.760935,-0.72125 -1.5353778,-1.43859 -2.1579946,-2.28631 -0.4206242,-0.5727 -0.7716307,-1.20987 -0.9388523,-1.90447 -0.3028792,-1.25803 0.026612,-2.60666 0.6482433,-3.73675 0.364052,-0.66182 0.8298441,-1.27049 1.4035868,-1.75432 0.8524708,-0.71888 1.9647078,-1.1487 3.0677058,-1.05489 1.011523,0.086 1.957455,0.60264 2.695602,1.31213 0.653276,0.62792 1.162121,1.41066 1.48544,2.2683 0.323318,-0.85764 0.832163,-1.64038 1.48544,-2.2683 0.738146,-0.70949 1.684078,-1.22609 2.695592,-1.31213 1.102998,-0.0938 2.215235,0.33601 3.067703,1.05489 0.573755,0.48383 1.039537,1.0925 1.403586,1.75432 0.621635,1.13009 0.951135,2.47872 0.648256,3.73675 -0.167221,0.6946 -0.518241,1.33177 -0.938861,1.90447 -0.622608,0.84772 -1.39706,1.56506 -2.157986,2.28631 -0.974135,0.92334 -1.935689,1.8637 -2.810437,2.88502 -1.356411,1.5837 -2.498053,3.35786 -3.382457,5.25649"
         style="fill:#ff0000;fill-opacity:1;stroke:none;stroke-width:1" />
    </g>
  </g>
</svg>
