<?xml version="1.0" encoding="UTF-8" standalone="no"?>
<!-- Created with Inkscape (http://www.inkscape.org/) -->

<svg
   xmlns:dc="http://purl.org/dc/elements/1.1/"
   xmlns:cc="http://creativecommons.org/ns#"
   xmlns:rdf="http://www.w3.org/1999/02/22-rdf-syntax-ns#"
   xmlns:svg="http://www.w3.org/2000/svg"
   xmlns="http://www.w3.org/2000/svg"
   xmlns:sodipodi="http://sodipodi.sourceforge.net/DTD/sodipodi-0.dtd"
   xmlns:inkscape="http://www.inkscape.org/namespaces/inkscape"
   width="234"
   height="333.00003"
   id="svg2"
   version="1.1"
   inkscape:version="0.92.4 (5da689c313, 2019-01-14)"
   sodipodi:docname="spades_10.svg"
   inkscape:export-filename="C:\Users\fowle\OneDrive\Projects\Playing-Cards\fronts\png-096-dpi\spades_10.png"
   inkscape:export-xdpi="96"
   inkscape:export-ydpi="96">
  <title
     id="title884">Ten of Spades Playing Card</title>
  <defs
     id="defs4" />
  <sodipodi:namedview
     id="base"
     pagecolor="#ffffff"
     bordercolor="#666666"
     borderopacity="1.0"
     inkscape:pageopacity="0.0"
     inkscape:pageshadow="2"
     inkscape:zoom="1.7419355"
     inkscape:cx="74.193153"
     inkscape:cy="192.37034"
     inkscape:document-units="px"
     inkscape:current-layer="layer1"
     showgrid="false"
     inkscape:showpageshadow="false"
     showguides="true"
     inkscape:guide-bbox="true"
     inkscape:snap-global="true"
     inkscape:window-width="1456"
     inkscape:window-height="976"
     inkscape:window-x="374"
     inkscape:window-y="31"
     inkscape:window-maximized="0"
     fit-margin-top="0"
     fit-margin-left="0"
     fit-margin-right="0"
     fit-margin-bottom="0"
     showborder="false">
    <inkscape:grid
       type="xygrid"
       id="grid3767"
       empspacing="5"
       visible="true"
       enabled="true"
       snapvisiblegridlinesonly="true"
       originx="0"
       originy="5.1666068e-06" />
  </sodipodi:namedview>
  <metadata
     id="metadata7">
    <rdf:RDF>
      <cc:Work
         rdf:about="">
        <dc:format>image/svg+xml</dc:format>
        <dc:type
           rdf:resource="http://purl.org/dc/dcmitype/StillImage" />
        <dc:title>Ten of Spades Playing Card</dc:title>
        <cc:license
           rdf:resource="http://creativecommons.org/publicdomain/zero/1.0/" />
        <dc:date>2020-05-05</dc:date>
        <dc:creator>
          <cc:Agent>
            <dc:title>Daniel S. Fowler</dc:title>
          </cc:Agent>
        </dc:creator>
        <dc:rights>
          <cc:Agent>
            <dc:title>Public Domain</dc:title>
          </cc:Agent>
        </dc:rights>
        <dc:publisher>
          <cc:Agent>
            <dc:title>https://tekeye.uk</dc:title>
          </cc:Agent>
        </dc:publisher>
        <dc:language>en-GB</dc:language>
        <dc:subject>
          <rdf:Bag>
            <rdf:li>ten; spades; playing; card; black; white</rdf:li>
          </rdf:Bag>
        </dc:subject>
        <dc:description>A ten of spades playing card.</dc:description>
      </cc:Work>
      <cc:License
         rdf:about="http://creativecommons.org/publicdomain/zero/1.0/">
        <cc:permits
           rdf:resource="http://creativecommons.org/ns#Reproduction" />
        <cc:permits
           rdf:resource="http://creativecommons.org/ns#Distribution" />
        <cc:permits
           rdf:resource="http://creativecommons.org/ns#DerivativeWorks" />
      </cc:License>
    </rdf:RDF>
  </metadata>
  <g
     inkscape:label="Layer 1"
     inkscape:groupmode="layer"
     id="layer1"
     transform="translate(0,-719.36216)">
    <g
       id="g922">
      <rect
         rx="8.9191856"
         ry="8.9457436"
         y="719.74011"
         x="0.37795275"
         height="332.24411"
         width="233.24409"
         id="rect4266"
         style="fill:#ffffff;fill-opacity:1;stroke:#808080;stroke-width:0.75590551;stroke-linecap:butt;stroke-linejoin:miter;stroke-miterlimit:4;stroke-dasharray:none;stroke-opacity:1" />
      <g
         transform="matrix(0.07348588,0,0,0.07370838,-248.01731,933.60062)"
         id="g4233"
         style="fill:none;stroke:#000000;stroke-width:3.18132639;stroke-opacity:1" />
      <g
         clip-path="none"
         style="fill:none;stroke:#000000;stroke-width:3.18132639;stroke-opacity:1"
         id="g4211"
         transform="matrix(0.07348588,0,0,0.07370838,-248.01728,933.60062)" />
      <g
         transform="matrix(0.07348588,0,0,0.07370838,-248.01731,933.60062)"
         id="g4227"
         style="fill:none;stroke:#000000;stroke-width:3.18132639;stroke-opacity:1" />
      <path
         sodipodi:nodetypes="cccccccccccccccc"
         inkscape:connector-curvature="0"
         id="path2985-3-2"
         d="m 45.70946,880.82455 c 0,-1.66823 -0.09238,-2.87306 -0.09238,-4.54129 3.448704,0 7.185441,0 10.634123,0 0,-3.96548 0,-4.24593 0,-8.2114 -6.731793,0.2169 -14.01738,0.71685 -20.321702,-2.06098 -4.879854,-2.6782 -6.226348,-8.91265 -5.242485,-14.03806 0.842118,-5.7826 4.056821,-10.91787 8.250581,-14.8729 5.457325,-5.8373 12.417214,-9.77786 19.683448,-12.94846 7.417061,3.22421 14.530402,7.29372 20.056936,13.28494 4.977887,4.67794 8.294558,11.28949 8.192665,18.21177 0.107966,4.99647 -2.987068,10.27644 -8.092155,11.36671 -5.711113,1.58158 -11.491417,1.30097 -17.354233,1.05698 0,3.96547 0,4.24592 0,8.2114 3.448679,0 6.609354,0 10.058061,0 0,1.66823 0.0924,2.87306 0.0924,4.54129 -7.896862,-0.0556 -17.335875,-0.0556 -25.865261,0 z"
         style="fill:#000000;stroke:none;stroke-width:1" />
      <g
         id="text3216-7"
         style="font-style:normal;font-variant:normal;font-weight:bold;font-stretch:normal;font-size:3.77201176px;line-height:0%;font-family:'Levenim MT';-inkscape-font-specification:'Sans Bold';letter-spacing:0px;word-spacing:0px;fill:#000000;fill-opacity:1;stroke:none;stroke-width:1"
         transform="scale(0.72184748,1.3853342)"
         aria-label="1">
        <path
           id="path889"
           style="font-size:28.97036934px;line-height:1.25;stroke-width:1"
           d="m 23.835468,544.63039 q 0,0.35364 -0.127311,0.62241 -0.339497,0.11317 -0.735576,0.11317 H 12.533063 q -0.933616,0 -0.933616,-0.9902 0,-0.16975 0.02829,-0.53754 0.02829,-0.38193 0.02829,-0.57997 0,-0.93362 0.82045,-0.93362 h 3.522276 v -13.07061 h -4.300289 q -0.905324,0 -0.905324,-0.9902 0,-0.21219 0.04244,-0.67899 0.05658,-0.48096 0.05658,-0.72143 0,-0.48096 0.905324,-0.48096 0.254622,0 0.961907,0.0566 0.707284,0.0424 1.103364,0.0424 2.26331,0 2.744263,-1.57017 h 2.701827 v 17.41334 q 0.947761,0 2.036979,-0.0566 1.103363,-0.0707 1.315549,-0.0707 0.82045,0 1.018489,0.43852 0.155603,0.38193 0.155603,1.99454 z" />
      </g>
      <g
         id="text3990-14"
         style="font-style:normal;font-variant:normal;font-weight:bold;font-stretch:normal;font-size:3.77201176px;line-height:0%;font-family:'Levenim MT';-inkscape-font-specification:'Sans Bold';letter-spacing:0px;word-spacing:0px;fill:#000000;fill-opacity:1;stroke:none;stroke-width:1"
         transform="scale(0.69918846,1.4302296)"
         aria-label="0">
        <path
           id="path886"
           style="font-size:27.65928841px;line-height:1.25;stroke-width:1"
           d="m 38.072907,518.57679 q 0,9.66994 -6.685228,9.66994 -6.779767,0 -6.779767,-9.72396 0,-10.08862 6.914822,-10.08862 6.550173,0 6.550173,10.14264 z m -3.511433,-0.28362 q 0,-6.92833 -3.227817,-6.92833 -1.890772,0 -2.687597,2.74162 -0.499704,1.72871 -0.499704,4.30826 0,6.92833 3.187301,6.92833 1.904277,0 2.714608,-2.72811 0.513209,-1.75572 0.513209,-4.32177 z" />
      </g>
      <g
         id="text3216-7-2"
         style="font-style:normal;font-variant:normal;font-weight:bold;font-stretch:normal;font-size:3.77201176px;line-height:0%;font-family:'Levenim MT';-inkscape-font-specification:'Sans Bold';letter-spacing:0px;word-spacing:0px;fill:#000000;fill-opacity:1;stroke:none;stroke-width:1"
         transform="scale(-0.72184748,-1.3853342)"
         aria-label="1">
        <path
           id="path895"
           style="font-size:28.97036934px;line-height:1.25;stroke-width:1"
           d="m -300.33276,-734.2844 q 0,0.35364 -0.12731,0.62241 -0.3395,0.11316 -0.73558,0.11316 h -10.43951 q -0.93362,0 -0.93362,-0.9902 0,-0.16974 0.0283,-0.53753 0.0283,-0.38194 0.0283,-0.57998 0,-0.93361 0.82045,-0.93361 h 3.52228 v -13.07062 h -4.30029 q -0.90532,0 -0.90532,-0.9902 0,-0.21218 0.0424,-0.67899 0.0566,-0.48095 0.0566,-0.72143 0,-0.48095 0.90532,-0.48095 0.25462,0 0.96191,0.0566 0.70728,0.0424 1.10336,0.0424 2.26331,0 2.74426,-1.57017 h 2.70183 v 17.41334 q 0.94776,0 2.03698,-0.0566 1.10336,-0.0707 1.31555,-0.0707 0.82045,0 1.01849,0.43851 0.1556,0.38194 0.1556,1.99455 z" />
      </g>
      <g
         id="text3990-14-6"
         style="font-style:normal;font-variant:normal;font-weight:bold;font-stretch:normal;font-size:3.77201176px;line-height:0%;font-family:'Levenim MT';-inkscape-font-specification:'Sans Bold';letter-spacing:0px;word-spacing:0px;fill:#000000;fill-opacity:1;stroke:none;stroke-width:1"
         transform="scale(-0.69918846,-1.4302296)"
         aria-label="0">
        <path
           id="path892"
           style="font-size:27.65928841px;line-height:1.25;stroke-width:1"
           d="m -296.60082,-720.19244 q 0,9.66995 -6.68523,9.66995 -6.77977,0 -6.77977,-9.72397 0,-10.08862 6.91482,-10.08862 6.55018,0 6.55018,10.14264 z m -3.51144,-0.28361 q 0,-6.92833 -3.22781,-6.92833 -1.89078,0 -2.6876,2.74162 -0.4997,1.7287 -0.4997,4.30826 0,6.92832 3.1873,6.92832 1.90427,0 2.7146,-2.72811 0.51321,-1.75572 0.51321,-4.32176 z" />
      </g>
      <path
         sodipodi:nodetypes="cccccccccccccccc"
         inkscape:connector-curvature="0"
         id="path2985-3-1-7"
         d="m 45.70946,890.89976 c 0,1.66821 -0.09238,2.87305 -0.09238,4.54128 3.448704,0 7.185441,0 10.634123,0 0,3.96548 0,4.24592 0,8.2114 -6.731793,-0.2169 -14.01738,-0.71685 -20.321702,2.06098 -4.879854,2.67821 -6.226348,8.91266 -5.242485,14.03805 0.842118,5.7826 4.056821,10.91788 8.250581,14.8729 5.457325,5.8373 12.417214,9.77787 19.683448,12.94848 7.417061,-3.22422 14.530399,-7.29373 20.056933,-13.28496 4.977887,-4.67792 8.294558,-11.2895 8.192664,-18.21177 0.107967,-4.99645 -2.987067,-10.27643 -8.092154,-11.3667 -5.711113,-1.58159 -11.491414,-1.30096 -17.35423,-1.05698 0,-3.96548 0,-4.24592 0,-8.2114 3.448679,0 6.609354,0 10.058058,0 0,-1.66823 0.0924,-2.87307 0.0924,-4.54128 -7.896858,0.0556 -17.335871,0.0556 -25.865256,0 z"
         style="fill:#000000;stroke:none;stroke-width:1" />
      <path
         sodipodi:nodetypes="cccccccccccccccc"
         inkscape:connector-curvature="0"
         id="path2985-3"
         d="m 162.45012,880.82455 c 0,-1.66823 -0.0924,-2.87306 -0.0924,-4.54129 3.44871,0 7.18544,0 10.63412,0 0,-3.96548 0,-4.24592 0,-8.2114 -6.73179,0.2169 -14.01738,0.71685 -20.3217,-2.06098 -4.87985,-2.6782 -6.22635,-8.91265 -5.24248,-14.03806 0.84212,-5.7826 4.05682,-10.91787 8.25058,-14.8729 5.45732,-5.8373 12.41721,-9.77786 19.68345,-12.94846 7.41706,3.22421 14.53039,7.29372 20.05693,13.28494 4.97789,4.67794 8.29456,11.28949 8.19266,18.21177 0.10797,4.99647 -2.98706,10.27644 -8.09215,11.36671 -5.71111,1.58158 -11.49142,1.30098 -17.35423,1.05698 0,3.96548 0,4.24592 0,8.2114 3.44868,0 6.60935,0 10.05806,0 0,1.66823 0.0924,2.87306 0.0924,4.54129 -7.89685,-0.0556 -17.33587,-0.0556 -25.86525,0 z"
         style="fill:#000000;stroke:none;stroke-width:1" />
      <path
         sodipodi:nodetypes="cccccccccccccccc"
         inkscape:connector-curvature="0"
         id="path2985-3-1"
         d="m 162.45012,814.07624 c 0,-1.66822 -0.0924,-2.87306 -0.0924,-4.54129 3.44871,0 7.18544,0 10.63412,0 0,-3.96547 0,-4.24592 0,-8.2114 -6.73179,0.21691 -14.01738,0.71686 -20.3217,-2.06097 -4.87985,-2.6782 -6.22635,-8.91265 -5.24248,-14.03806 0.84212,-5.7826 4.05682,-10.91787 8.25058,-14.8729 5.45732,-5.8373 12.41721,-9.77786 19.68345,-12.94846 7.41706,3.22421 14.53039,7.29372 20.05693,13.28494 4.97789,4.67794 8.29456,11.28949 8.19266,18.21176 0.10797,4.99647 -2.98706,10.27644 -8.09215,11.36671 -5.71111,1.58158 -11.49142,1.30098 -17.35423,1.05698 0,3.96548 0,4.24593 0,8.2114 3.44868,0 6.60935,0 10.05806,0 0,1.66823 0.0924,2.87307 0.0924,4.54129 -7.89685,-0.0556 -17.33587,-0.0556 -25.86525,0 z"
         style="fill:#000000;stroke:none;stroke-width:1" />
      <path
         sodipodi:nodetypes="cccccccccccccccc"
         inkscape:connector-curvature="0"
         id="path2985-3-3"
         d="m 45.70946,814.07624 c 0,-1.66822 -0.09238,-2.87306 -0.09238,-4.54129 3.448704,0 7.185441,0 10.634123,0 0,-3.96547 0,-4.24592 0,-8.2114 -6.731793,0.21691 -14.01738,0.71686 -20.321702,-2.06097 -4.879854,-2.6782 -6.226348,-8.91265 -5.242485,-14.03806 0.842118,-5.7826 4.056821,-10.91787 8.250581,-14.8729 5.457325,-5.8373 12.417214,-9.77786 19.683448,-12.94846 7.417061,3.22421 14.530399,7.29372 20.056933,13.28493 4.977887,4.67795 8.294558,11.2895 8.192664,18.21177 0.107967,4.99647 -2.987067,10.27644 -8.092154,11.36671 -5.711113,1.58158 -11.491414,1.30098 -17.35423,1.05698 0,3.96548 0,4.24593 0,8.2114 3.448679,0 6.609354,0 10.058058,0 0,1.66823 0.0924,2.87307 0.0924,4.54129 -7.896858,-0.0556 -17.335871,-0.0556 -25.865256,0 z"
         style="fill:#000000;stroke:none;stroke-width:1" />
      <path
         sodipodi:nodetypes="cccccccccccccccc"
         inkscape:connector-curvature="0"
         id="path2985-3-34"
         d="m 104.07979,847.4504 c 0,-1.66823 -0.0924,-2.87306 -0.0924,-4.5413 3.44871,0 7.18544,0 10.63413,0 0,-3.96547 0,-4.24592 0,-8.2114 -6.7318,0.21691 -14.01738,0.71686 -20.321707,-2.06097 -4.879853,-2.6782 -6.226347,-8.91265 -5.242483,-14.03806 0.842117,-5.7826 4.056819,-10.91787 8.25058,-14.8729 5.45732,-5.8373 12.41721,-9.77786 19.68345,-12.94846 7.41706,3.22421 14.5304,7.29372 20.05693,13.28494 4.97789,4.67794 8.29456,11.28949 8.19267,18.21177 0.10796,4.99647 -2.98707,10.27644 -8.09216,11.36671 -5.71111,1.58158 -11.49141,1.30097 -17.35423,1.05697 0,3.96548 0,4.24593 0,8.2114 3.44868,0 6.60936,0 10.05806,0 0,1.66824 0.0924,2.87307 0.0924,4.5413 -7.89686,-0.0556 -17.33588,-0.0556 -25.86526,0 z"
         style="fill:#000000;stroke:none;stroke-width:1" />
      <path
         sodipodi:nodetypes="cccccccccccccccc"
         inkscape:connector-curvature="0"
         id="path2985-3-11"
         d="m 12.898825,780.70209 c 0,-0.55607 -0.03079,-0.95768 -0.03079,-1.51376 1.149566,0 2.395148,0 3.544708,0 0,-1.32183 0,-1.41531 0,-2.73713 -2.243931,0.0723 -4.67246,0.23895 -6.7739019,-0.687 -1.6266179,-0.89273 -2.075448,-2.97088 -1.7474947,-4.67935 0.2807048,-1.92753 1.3522742,-3.63929 2.7501936,-4.95763 1.819108,-1.94577 4.139071,-3.25929 6.561151,-4.31616 2.472354,1.07474 4.843466,2.43124 6.685643,4.42831 1.659299,1.55932 2.764852,3.76317 2.730888,6.07059 0.03599,1.66549 -0.995685,3.42549 -2.697384,3.78891 -1.903705,0.52719 -3.830472,0.43366 -5.784745,0.35233 0,1.32182 0,1.4153 0,2.73713 1.14956,0 2.203119,0 3.352688,0 0,0.55608 0.03079,0.95769 0.03079,1.51376 -2.632285,-0.0185 -5.778625,-0.0185 -8.621752,0 z"
         style="fill:#000000;stroke:none;stroke-width:1" />
      <path
         sodipodi:nodetypes="cccccccccccccccc"
         inkscape:connector-curvature="0"
         id="path2985-3-38"
         d="m 45.70946,957.64807 c 0,1.66823 -0.09238,2.87307 -0.09238,4.54131 3.448704,0 7.185441,0 10.634123,0 0,3.96548 0,4.24591 0,8.21139 -6.731793,-0.2169 -14.01738,-0.71685 -20.321702,2.06098 -4.879854,2.67818 -6.226348,8.91263 -5.242485,14.03805 0.842118,5.78261 4.056821,10.91788 8.250581,14.8729 5.457325,5.8373 12.417214,9.7779 19.683448,12.9485 7.417061,-3.2242 14.530399,-7.2937 20.056933,-13.285 4.977887,-4.67793 8.294558,-11.28947 8.192664,-18.21174 0.107967,-4.99646 -2.987067,-10.27644 -8.092154,-11.3667 -5.711113,-1.58159 -11.491414,-1.301 -17.35423,-1.05699 0,-3.96548 0,-4.24591 0,-8.21139 3.448679,0 6.609354,0 10.058058,0 0,-1.66824 0.0924,-2.87308 0.0924,-4.54131 -7.896858,0.0556 -17.335871,0.0556 -25.865256,0 z"
         style="fill:#000000;stroke:none;stroke-width:1" />
      <path
         sodipodi:nodetypes="cccccccccccccccc"
         inkscape:connector-curvature="0"
         id="path2985-3-2-4"
         d="m 104.07979,924.27392 c 0,1.66823 -0.0924,2.87304 -0.0924,4.54127 3.44871,0 7.18544,0 10.63413,0 0,3.96548 0,4.24595 0,8.21143 -6.7318,-0.21693 -14.01738,-0.71688 -20.321707,2.06095 -4.879853,2.67821 -6.226347,8.91266 -5.242483,14.03808 0.842117,5.78261 4.056819,10.91785 8.25058,14.87291 5.45732,5.83729 12.41721,9.77784 19.68345,12.94844 7.41706,-3.22422 14.5304,-7.29373 20.05692,-13.28492 4.97789,-4.67796 8.29458,-11.2895 8.19268,-18.21177 0.10796,-4.99649 -2.98708,-10.27644 -8.09216,-11.36674 -5.71111,-1.58155 -11.49141,-1.30096 -17.35423,-1.05695 0,-3.96548 0,-4.24595 0,-8.21143 3.44868,0 6.60935,0 10.05806,0 0,-1.66823 0.0924,-2.87304 0.0924,-4.54127 -7.89686,0.0556 -17.33588,0.0556 -25.86526,0 z"
         style="fill:#000000;stroke:none;stroke-width:1" />
      <path
         sodipodi:nodetypes="cccccccccccccccc"
         inkscape:connector-curvature="0"
         id="path2985-3-3-2"
         d="m 162.45011,957.64807 c 0,1.66823 -0.0924,2.87307 -0.0924,4.54131 3.44868,0 7.18542,0 10.6341,0 0,3.96548 0,4.24591 0,8.21139 -6.73179,-0.2169 -14.01738,-0.71685 -20.32169,2.06098 -4.87985,2.67818 -6.22636,8.91263 -5.24247,14.03805 0.8421,5.78261 4.0568,10.91788 8.25058,14.8729 5.45731,5.8373 12.41719,9.7778 19.68346,12.9485 7.41705,-3.2242 14.53038,-7.2937 20.05692,-13.285 4.97789,-4.67793 8.29455,-11.28947 8.19265,-18.21174 0.10799,-4.99649 -2.98705,-10.27644 -8.09213,-11.3667 -5.71113,-1.58159 -11.49143,-1.301 -17.35425,-1.05699 0,-3.96548 0,-4.24591 0,-8.21139 3.44868,0 6.60937,0 10.05805,0 0,-1.66824 0.0924,-2.87308 0.0924,-4.54131 -7.89688,0.0556 -17.3359,0.0556 -25.86528,0 z"
         style="fill:#000000;stroke:none;stroke-width:1" />
      <path
         sodipodi:nodetypes="cccccccccccccccc"
         inkscape:connector-curvature="0"
         id="path2985-3-34-7"
         d="m 162.45009,890.89973 c 0,1.66824 -0.0923,2.87308 -0.0923,4.54131 3.44868,0 7.18542,0 10.6341,0 0,3.96548 0,4.24592 0,8.2114 -6.73179,-0.2169 -14.01738,-0.71685 -20.32169,2.06098 -4.87986,2.67818 -6.22633,8.91266 -5.24248,14.03805 0.84211,5.7826 4.05681,10.91788 8.25059,14.8729 5.45731,5.8373 12.41719,9.77787 19.68345,12.94848 7.41704,-3.22422 14.53038,-7.29373 20.05692,-13.28496 4.97789,-4.67795 8.29455,-11.2895 8.19265,-18.21177 0.10799,-4.99645 -2.98705,-10.27643 -8.09213,-11.3667 -5.71113,-1.58159 -11.49143,-1.30099 -17.35426,-1.05698 0,-3.96548 0,-4.24592 0,-8.2114 3.44869,0 6.60938,0 10.05809,0 0,-1.66823 0.0924,-2.87307 0.0924,-4.54131 -7.89688,0.0556 -17.3359,0.0556 -25.86528,0 z"
         style="fill:#000000;stroke:none;stroke-width:1" />
      <path
         sodipodi:nodetypes="cccccccccccccccc"
         inkscape:connector-curvature="0"
         id="path2985-3-11-7"
         d="m 212.48766,991.02222 c 0,0.55606 -0.0308,0.95768 -0.0308,1.51377 1.14955,0 2.39513,0 3.54471,0 0,1.3218 0,1.41528 0,2.73712 -2.24393,-0.0723 -4.67248,-0.23894 -6.77391,0.687 -1.62662,0.89273 -2.07544,2.97087 -1.7475,4.67939 0.28071,1.9275 1.35228,3.6392 2.75018,4.9576 1.81912,1.9458 4.13909,3.2593 6.56118,4.3161 2.47235,-1.0747 4.84345,-2.4312 6.68563,-4.4283 1.65931,-1.5593 2.76487,-3.7631 2.73088,-6.07056 0.036,-1.6655 -0.99569,-3.42548 -2.69737,-3.78891 -1.90372,-0.52719 -3.83047,-0.43365 -5.78475,-0.35232 0,-1.32184 0,-1.41532 0,-2.73712 1.14955,0 2.20314,0 3.35269,0 0,-0.55609 0.0307,-0.95771 0.0307,-1.51377 -2.63231,0.0186 -5.77863,0.0186 -8.62177,0 z"
         style="fill:#000000;stroke:none;stroke-width:1" />
    </g>
  </g>
</svg>
