<?xml version="1.0" encoding="UTF-8" standalone="no"?>
<!-- Created with Inkscape (http://www.inkscape.org/) -->

<svg
   width="234"
   height="333.00003"
   id="svg2"
   version="1.1"
   inkscape:version="1.1.2 (b8e25be8, 2022-02-05)"
   sodipodi:docname="hearts_6 dark.svg"
   inkscape:export-filename="C:\Users\fowle\OneDrive\Projects\Playing-Cards\fronts\png-096-dpi\hearts_6.png"
   inkscape:export-xdpi="96"
   inkscape:export-ydpi="96"
   xmlns:inkscape="http://www.inkscape.org/namespaces/inkscape"
   xmlns:sodipodi="http://sodipodi.sourceforge.net/DTD/sodipodi-0.dtd"
   xmlns="http://www.w3.org/2000/svg"
   xmlns:svg="http://www.w3.org/2000/svg"
   xmlns:rdf="http://www.w3.org/1999/02/22-rdf-syntax-ns#"
   xmlns:cc="http://creativecommons.org/ns#"
   xmlns:dc="http://purl.org/dc/elements/1.1/">
  <title
     id="title897">Six of Hearts Playing Card</title>
  <defs
     id="defs4" />
  <sodipodi:namedview
     id="base"
     pagecolor="#ffffff"
     bordercolor="#666666"
     borderopacity="1.0"
     inkscape:pageopacity="0.0"
     inkscape:pageshadow="2"
     inkscape:zoom="1.549743"
     inkscape:cx="245.52458"
     inkscape:cy="183.90146"
     inkscape:document-units="px"
     inkscape:current-layer="text3755-2-2"
     showgrid="false"
     inkscape:showpageshadow="false"
     showguides="true"
     inkscape:guide-bbox="true"
     inkscape:snap-global="true"
     inkscape:window-width="1456"
     inkscape:window-height="976"
     inkscape:window-x="220"
     inkscape:window-y="261"
     inkscape:window-maximized="0"
     fit-margin-top="0"
     fit-margin-left="0"
     fit-margin-right="0"
     fit-margin-bottom="0"
     showborder="false"
     inkscape:pagecheckerboard="0">
    <inkscape:grid
       type="xygrid"
       id="grid3767"
       empspacing="5"
       visible="true"
       enabled="true"
       snapvisiblegridlinesonly="true"
       originx="0"
       originy="5.1666068e-06" />
  </sodipodi:namedview>
  <metadata
     id="metadata7">
    <rdf:RDF>
      <cc:Work
         rdf:about="">
        <dc:format>image/svg+xml</dc:format>
        <dc:type
           rdf:resource="http://purl.org/dc/dcmitype/StillImage" />
        <dc:title>Six of Hearts Playing Card</dc:title>
        <cc:license
           rdf:resource="http://creativecommons.org/publicdomain/zero/1.0/" />
        <dc:date>2020-05-05</dc:date>
        <dc:creator>
          <cc:Agent>
            <dc:title>Daniel S. Fowler</dc:title>
          </cc:Agent>
        </dc:creator>
        <dc:rights>
          <cc:Agent>
            <dc:title>Public Domain</dc:title>
          </cc:Agent>
        </dc:rights>
        <dc:publisher>
          <cc:Agent>
            <dc:title>https://tekeye.uk</dc:title>
          </cc:Agent>
        </dc:publisher>
        <dc:language>en-GB</dc:language>
        <dc:subject>
          <rdf:Bag>
            <rdf:li>six; hearts; playing; card; white; red;</rdf:li>
          </rdf:Bag>
        </dc:subject>
        <dc:description>A six of hearts playing card.</dc:description>
      </cc:Work>
      <cc:License
         rdf:about="http://creativecommons.org/publicdomain/zero/1.0/">
        <cc:permits
           rdf:resource="http://creativecommons.org/ns#Reproduction" />
        <cc:permits
           rdf:resource="http://creativecommons.org/ns#Distribution" />
        <cc:permits
           rdf:resource="http://creativecommons.org/ns#DerivativeWorks" />
      </cc:License>
    </rdf:RDF>
  </metadata>
  <g
     inkscape:label="Layer 1"
     inkscape:groupmode="layer"
     id="layer1"
     transform="translate(0,-719.36216)">
    <rect
       style="fill:#000000;fill-opacity:1;stroke:#808080;stroke-width:0.755906;stroke-linecap:butt;stroke-linejoin:miter;stroke-miterlimit:4;stroke-dasharray:none;stroke-opacity:1"
       id="rect4266"
       width="233.244"
       height="332.24411"
       x="0.37795275"
       y="719.74011"
       ry="8.9457436"
       rx="8.9191856" />
    <g
       style="fill:none;stroke:#000000;stroke-width:3.18132639;stroke-opacity:1"
       id="g4233"
       transform="matrix(0.07348588,0,0,0.07370838,-248.01731,933.60062)" />
    <g
       transform="matrix(0.07348588,0,0,0.07370838,-248.01728,933.60062)"
       id="g4211"
       style="fill:none;stroke:#000000;stroke-width:3.18132639;stroke-opacity:1"
       clip-path="none" />
    <g
       style="fill:none;stroke:#000000;stroke-width:3.18132639;stroke-opacity:1"
       id="g4227"
       transform="matrix(0.07348588,0,0,0.07370838,-248.01731,933.60062)" />
    <path
       style="fill:#ff0000;fill-opacity:1;stroke:none;stroke-width:1"
       d="m 17.194709,780.70209 c -0.884404,-1.89864 -2.026046,-3.67279 -3.382435,-5.25649 -0.87477,-1.02134 -1.836311,-1.96168 -2.810437,-2.88504 -0.760948,-0.72123 -1.5353906,-1.43858 -2.1580074,-2.28628 -0.4206116,-0.57272 -0.7716181,-1.20988 -0.9388522,-1.90447 -0.3028667,-1.25805 0.026675,-2.60668 0.6482558,-3.73677 0.3640614,-0.66182 0.8298315,-1.27049 1.4035868,-1.75432 0.852458,-0.71887 1.964695,-1.1487 3.067706,-1.05487 1.011533,0.086 1.957446,0.60262 2.695611,1.3121 0.653277,0.62794 1.162103,1.41066 1.48543,2.26831 0.323328,-0.85765 0.832154,-1.64037 1.485431,-2.26831 0.738165,-0.70948 1.684078,-1.22609 2.695611,-1.3121 1.102986,-0.0938 2.215223,0.336 3.06769,1.05487 0.573755,0.48383 1.039538,1.0925 1.403587,1.75432 0.621635,1.13009 0.951135,2.47872 0.648256,3.73677 -0.167222,0.69459 -0.518241,1.33175 -0.938862,1.90447 -0.622607,0.8477 -1.397059,1.56505 -2.157985,2.28628 -0.974135,0.92336 -1.935695,1.8637 -2.810434,2.88504 -1.35642,1.5837 -2.498062,3.35785 -3.382467,5.25649"
       id="path3940-9-0"
       inkscape:connector-curvature="0"
       sodipodi:nodetypes="csssssssscssssssssc" />
    <path
       style="fill:#ff0000;fill-opacity:1;stroke:none;stroke-width:1"
       d="m 216.78358,991.02223 c -0.88441,1.89861 -2.02605,3.67279 -3.38244,5.25649 -0.87477,1.02131 -1.83631,1.96168 -2.81044,2.88501 -0.76095,0.72126 -1.53539,1.43857 -2.158,2.28627 -0.42062,0.5728 -0.77162,1.2099 -0.93886,1.9045 -0.30286,1.258 0.0267,2.6067 0.64826,3.7368 0.36406,0.6618 0.82983,1.2704 1.40359,1.7543 0.85245,0.7189 1.96469,1.1487 3.0677,1.0549 1.01153,-0.086 1.95745,-0.6027 2.69561,-1.3122 0.65328,-0.6279 1.16211,-1.4106 1.48543,-2.2683 0.32333,0.8577 0.83216,1.6404 1.48543,2.2683 0.73817,0.7095 1.68408,1.2261 2.69561,1.3122 1.10298,0.094 2.21522,-0.336 3.06771,-1.0549 0.57376,-0.4839 1.03953,-1.0925 1.40359,-1.7543 0.62161,-1.1301 0.95112,-2.4788 0.64825,-3.7368 -0.16723,-0.6946 -0.51824,-1.3317 -0.93888,-1.9045 -0.62259,-0.8477 -1.39706,-1.56501 -2.15798,-2.28627 -0.97412,-0.92333 -1.93569,-1.8637 -2.81043,-2.88501 -1.35642,-1.5837 -2.49807,-3.35788 -3.38247,-5.25649"
       id="path3940-9-6-6"
       inkscape:connector-curvature="0"
       sodipodi:nodetypes="csssssssscssssssssc" />
    <path
       style="fill:#ff0000;fill-opacity:1;stroke:none;stroke-width:1"
       d="m 58.597133,814.07624 c -2.653214,-5.69589 -6.07814,-11.01838 -10.147368,-15.76947 -2.624249,-3.06398 -5.508873,-5.88504 -8.43128,-8.65507 -2.282814,-2.16375 -4.606141,-4.31575 -6.473992,-6.85891 -1.261866,-1.71812 -2.314885,-3.62962 -2.816556,-5.7134 -0.908632,-3.77411 0.07987,-7.82001 1.944736,-11.21027 1.092153,-1.98547 2.489526,-3.81145 4.21076,-5.26296 2.557405,-2.15664 5.894117,-3.44611 9.203118,-3.16466 3.034567,0.25811 5.872369,1.80791 8.086801,3.93638 1.959831,1.88375 3.486372,4.23197 4.456324,6.80491 0.969951,-2.57294 2.496492,-4.92116 4.456323,-6.80491 2.214432,-2.12847 5.052234,-3.67827 8.08677,-3.93638 3.309001,-0.28145 6.645713,1.00802 9.203118,3.16466 1.721265,1.45151 3.118607,3.27749 4.21076,5.26296 1.8649,3.39026 2.853402,7.43616 1.944767,11.21027 -0.501671,2.08378 -1.554722,3.99528 -2.816588,5.7134 -1.867819,2.54316 -4.191178,4.69516 -6.47396,6.85891 -2.922407,2.77003 -5.807063,5.59109 -8.431311,8.65507 -4.069228,4.75109 -7.494154,10.07358 -10.147368,15.76947"
       id="path3940-9"
       inkscape:connector-curvature="0"
       sodipodi:nodetypes="csssssssscssssssssc" />
    <path
       style="fill:#ff0000;fill-opacity:1;stroke:none;stroke-width:1"
       d="m 58.597133,914.1987 c -2.653214,-5.69589 -6.07814,-11.01839 -10.147368,-15.76947 -2.624249,-3.06398 -5.508873,-5.88505 -8.43128,-8.65508 -2.282814,-2.16375 -4.606141,-4.31575 -6.473992,-6.85891 -1.261866,-1.71812 -2.314885,-3.62962 -2.816556,-5.7134 -0.908632,-3.77411 0.07987,-7.82001 1.944736,-11.21027 1.092153,-1.98547 2.489526,-3.81145 4.21076,-5.26296 2.557405,-2.15664 5.894117,-3.44611 9.203118,-3.16466 3.034567,0.25811 5.872369,1.80791 8.086801,3.93638 1.959831,1.88375 3.486372,4.23197 4.456324,6.80491 0.969951,-2.57294 2.496492,-4.92116 4.456323,-6.80491 2.214432,-2.12847 5.052234,-3.67827 8.08677,-3.93638 3.309001,-0.28145 6.645713,1.00802 9.203118,3.16466 1.721265,1.45151 3.118607,3.27749 4.21076,5.26296 1.8649,3.39026 2.853402,7.43616 1.944767,11.21027 -0.501671,2.08378 -1.554722,3.99528 -2.816588,5.7134 -1.867819,2.54316 -4.191178,4.69516 -6.47396,6.85891 -2.922407,2.77003 -5.807063,5.5911 -8.431311,8.65508 -4.069228,4.75108 -7.494154,10.07358 -10.147368,15.76947"
       id="path3940-9-3"
       inkscape:connector-curvature="0"
       sodipodi:nodetypes="csssssssscssssssssc" />
    <path
       style="fill:#ff0000;fill-opacity:1;stroke:none;stroke-width:1"
       d="m 175.33779,814.07624 c -2.65322,-5.69589 -6.07814,-11.01838 -10.14737,-15.76947 -2.62425,-3.06398 -5.50887,-5.88504 -8.43128,-8.65508 -2.28281,-2.16374 -4.60614,-4.31574 -6.47399,-6.8589 -1.26187,-1.71813 -2.31489,-3.62962 -2.81656,-5.7134 -0.90863,-3.77411 0.0799,-7.82001 1.94474,-11.21027 1.09215,-1.98547 2.48952,-3.81145 4.21076,-5.26296 2.5574,-2.15664 5.89411,-3.44611 9.20311,-3.16466 3.03457,0.25811 5.87237,1.80791 8.08681,3.93638 1.95983,1.88375 3.48637,4.23197 4.45632,6.8049 0.96995,-2.57293 2.49649,-4.92115 4.45632,-6.8049 2.21443,-2.12847 5.05223,-3.67827 8.08677,-3.93638 3.309,-0.28145 6.64571,1.00802 9.20312,3.16466 1.72126,1.45151 3.1186,3.27749 4.21076,5.26296 1.8649,3.39026 2.8534,7.43616 1.94476,11.21027 -0.50167,2.08378 -1.55472,3.99527 -2.81658,5.7134 -1.86782,2.54316 -4.19118,4.69516 -6.47396,6.8589 -2.92241,2.77004 -5.80707,5.5911 -8.43131,8.65508 -4.06923,4.75109 -7.49416,10.07358 -10.14737,15.76947"
       id="path3940-9-1"
       inkscape:connector-curvature="0"
       sodipodi:nodetypes="csssssssscssssssssc"
       inkscape:transform-center-x="78.569003"
       inkscape:transform-center-y="71.51338" />
    <path
       style="fill:#ff0000;fill-opacity:1;stroke:none;stroke-width:1"
       d="m 175.33779,914.1987 c -2.65322,-5.69589 -6.07814,-11.01839 -10.14737,-15.76947 -2.62425,-3.06398 -5.50887,-5.88505 -8.43128,-8.65508 -2.28281,-2.16375 -4.60614,-4.31575 -6.47399,-6.85891 -1.26187,-1.71812 -2.31489,-3.62962 -2.81656,-5.7134 -0.90863,-3.77411 0.0799,-7.82001 1.94474,-11.21027 1.09215,-1.98547 2.48952,-3.81145 4.21076,-5.26296 2.5574,-2.15664 5.89411,-3.44611 9.20311,-3.16466 3.03457,0.25811 5.87237,1.80791 8.08681,3.93638 1.95983,1.88375 3.48637,4.23197 4.45632,6.80491 0.96995,-2.57294 2.49649,-4.92116 4.45632,-6.80491 2.21443,-2.12847 5.05223,-3.67827 8.08677,-3.93638 3.309,-0.28145 6.64571,1.00802 9.20312,3.16466 1.72126,1.45151 3.1186,3.27749 4.21076,5.26296 1.8649,3.39026 2.8534,7.43616 1.94476,11.21027 -0.50167,2.08378 -1.55472,3.99528 -2.81658,5.7134 -1.86782,2.54316 -4.19118,4.69516 -6.47396,6.85891 -2.92241,2.77003 -5.80707,5.5911 -8.43131,8.65508 -4.06923,4.75108 -7.49416,10.07358 -10.14737,15.76947"
       id="path3940-9-8"
       inkscape:connector-curvature="0"
       sodipodi:nodetypes="csssssssscssssssssc" />
    <path
       style="fill:#ff0000;fill-opacity:1;stroke:none;stroke-width:1"
       d="m 58.597133,957.64806 c -2.653214,5.6959 -6.07814,11.01839 -10.147368,15.76948 -2.624249,3.06398 -5.508873,5.88504 -8.43128,8.65508 -2.282814,2.16374 -4.606141,4.31575 -6.473992,6.85891 -1.261866,1.71812 -2.314885,3.62962 -2.816556,5.7134 -0.908632,3.77411 0.07987,7.81997 1.944736,11.21027 1.092153,1.9855 2.489526,3.8114 4.21076,5.263 2.557405,2.1566 5.894117,3.4461 9.203118,3.1646 3.034567,-0.2581 5.872369,-1.8079 8.086801,-3.9364 1.959831,-1.8837 3.486372,-4.2319 4.456324,-6.8049 0.969951,2.573 2.496492,4.9212 4.456323,6.8049 2.214432,2.1285 5.052234,3.6783 8.08677,3.9364 3.309001,0.2815 6.645713,-1.008 9.203118,-3.1646 1.721265,-1.4516 3.118607,-3.2775 4.21076,-5.263 1.8649,-3.3903 2.853399,-7.43616 1.944767,-11.21027 -0.501671,-2.08378 -1.554722,-3.99528 -2.816588,-5.7134 -1.867819,-2.54316 -4.191178,-4.69517 -6.47396,-6.85891 -2.922407,-2.77004 -5.807063,-5.5911 -8.431311,-8.65508 -4.069228,-4.75109 -7.494154,-10.07358 -10.147368,-15.76948"
       id="path3940-9-6"
       inkscape:connector-curvature="0"
       sodipodi:nodetypes="csssssssscssssssssc" />
    <path
       style="fill:#ff0000;fill-opacity:1;stroke:none;stroke-width:1"
       d="m 175.33779,957.64806 c -2.65321,5.6959 -6.07814,11.01839 -10.14737,15.76948 -2.62425,3.06398 -5.50887,5.88504 -8.43128,8.65508 -2.28281,2.16375 -4.60614,4.31575 -6.47399,6.85891 -1.26187,1.71812 -2.31489,3.62962 -2.81656,5.7134 -0.90863,3.77411 0.0799,7.81997 1.94474,11.21027 1.09215,1.9855 2.48953,3.8114 4.21076,5.263 2.5574,2.1566 5.89412,3.4461 9.20312,3.1646 3.03456,-0.2581 5.87237,-1.8079 8.0868,-3.9364 1.95983,-1.8837 3.48637,-4.2319 4.45632,-6.8049 0.96995,2.573 2.4965,4.9212 4.45633,6.8049 2.21443,2.1285 5.05223,3.6783 8.08677,3.9364 3.309,0.2815 6.64571,-1.008 9.20311,-3.1646 1.72127,-1.4516 3.11861,-3.2775 4.21076,-5.263 1.8649,-3.3903 2.8534,-7.43616 1.94477,-11.21027 -0.50167,-2.08378 -1.55472,-3.99528 -2.81659,-5.7134 -1.86782,-2.54316 -4.19117,-4.69516 -6.47396,-6.85891 -2.9224,-2.77004 -5.80706,-5.5911 -8.43131,-8.65508 -4.06923,-4.75109 -7.49415,-10.07358 -10.14737,-15.76948"
       id="path3940-9-1-0"
       inkscape:connector-curvature="0"
       sodipodi:nodetypes="csssssssscssssssssc"
       inkscape:transform-center-x="78.569004"
       inkscape:transform-center-y="-71.513392" />
    <g
       id="text3755-0"
       style="font-style:normal;font-variant:normal;font-weight:bold;font-stretch:normal;font-size:3.77201px;line-height:0%;font-family:'Levenim MT';-inkscape-font-specification:'Sans Bold';letter-spacing:0px;word-spacing:0px;fill:#ff0000;fill-opacity:1;stroke:none;stroke-width:1"
       transform="matrix(0.99029285,0,0,1.0098023,4.3390048e-7,-3.5953301e-4)"
       aria-label="6">
      <path
         id="path897"
         style="font-size:39.1751px;line-height:1.25;stroke-width:1"
         d="m 26.881078,738.99851 q 0,4.24652 -2.467574,6.71409 -2.448446,2.46758 -6.694968,2.46758 -9.8511667,0 -9.8511667,-13.61948 0,-6.00634 2.1232612,-9.7364 2.6397305,-4.7056 8.1869895,-4.7056 3.213584,0 5.336845,1.31986 2.544088,1.56854 2.544088,4.59084 0,0.6695 -0.937296,0.6695 h -2.831014 q -0.554726,0 -0.937296,-0.63124 -0.554726,-0.9373 -0.87991,-1.2051 -0.784268,-0.63124 -2.295417,-0.63124 -2.544088,0 -3.959596,2.37193 -1.109451,1.91285 -1.243351,4.70561 2.238032,-1.77895 5.355974,-1.77895 3.959596,0 6.312398,2.79276 2.238033,2.63973 2.238033,6.67584 z m -4.992534,-0.11477 q 0,-2.18065 -1.090323,-3.59616 -1.205094,-1.56853 -3.328355,-1.56853 -2.104133,0 -3.290099,1.56853 -1.071194,1.41551 -1.071194,3.59616 0,2.085 1.12858,3.53876 1.224223,1.58767 3.251841,1.58767 2.065876,0 3.290099,-1.56854 1.109451,-1.43463 1.109451,-3.55789 z" />
    </g>
    <g
       id="text3755-2-2"
       style="font-style:normal;font-variant:normal;font-weight:bold;font-stretch:normal;font-size:3.77201px;line-height:0%;font-family:'Levenim MT';-inkscape-font-specification:'Sans Bold';letter-spacing:0px;word-spacing:0px;fill:#ff0000;fill-opacity:1;stroke:none;stroke-width:1"
       transform="matrix(-0.99029285,0,0,-1.0098023,228.86379,-58.740182)"
       aria-label="6">
      <path
         id="path900"
         style="font-size:39.1751px;line-height:1.25;stroke-width:1"
         d="m 21.694502,-1073.697 q 0,4.2466 -2.46758,6.7141 -2.44844,2.4676 -6.69497,2.4676 -9.8511604,0 -9.8511604,-13.6195 0,-6.0063 2.12326,-9.7364 2.63973,-4.7056 8.1869904,-4.7056 3.21358,0 5.33684,1.3199 2.54409,1.5685 2.54409,4.5908 0,0.6695 -0.93729,0.6695 h -2.83102 q -0.55473,0 -0.9373,-0.6312 -0.55472,-0.9373 -0.87991,-1.2051 -0.78426,-0.6313 -2.29541,-0.6313 -2.54409,0 -3.9596004,2.372 -1.10945,1.9128 -1.24335,4.7056 2.2380304,-1.779 5.3559804,-1.779 3.95959,0 6.31239,2.7928 2.23804,2.6397 2.23804,6.6758 z m -4.99254,-0.1147 q 0,-2.1807 -1.09032,-3.5962 -1.2051,-1.5685 -3.32836,-1.5685 -2.10413,0 -3.2900904,1.5685 -1.0712,1.4155 -1.0712,3.5962 0,2.085 1.12858,3.5387 1.2242204,1.5877 3.2518404,1.5877 2.06588,0 3.2901,-1.5685 1.10945,-1.4347 1.10945,-3.5579 z" />
    </g>
  </g>
</svg>
