<?xml version="1.0" encoding="UTF-8" standalone="no"?>
<!-- Created with Inkscape (http://www.inkscape.org/) -->

<svg
   xmlns:dc="http://purl.org/dc/elements/1.1/"
   xmlns:cc="http://creativecommons.org/ns#"
   xmlns:rdf="http://www.w3.org/1999/02/22-rdf-syntax-ns#"
   xmlns:svg="http://www.w3.org/2000/svg"
   xmlns="http://www.w3.org/2000/svg"
   xmlns:sodipodi="http://sodipodi.sourceforge.net/DTD/sodipodi-0.dtd"
   xmlns:inkscape="http://www.inkscape.org/namespaces/inkscape"
   width="234"
   height="333.00003"
   id="svg2"
   version="1.1"
   inkscape:version="0.92.4 (5da689c313, 2019-01-14)"
   sodipodi:docname="hearts_2.svg"
   inkscape:export-filename="C:\Users\fowle\OneDrive\Projects\Playing-Cards\fronts\png-096-dpi\hearts_2.png"
   inkscape:export-xdpi="96"
   inkscape:export-ydpi="96">
  <title
     id="title899">Two of Diamonds Playing Card</title>
  <defs
     id="defs4" />
  <sodipodi:namedview
     id="base"
     pagecolor="#ffffff"
     bordercolor="#666666"
     borderopacity="1.0"
     inkscape:pageopacity="0.0"
     inkscape:pageshadow="2"
     inkscape:zoom="1.549743"
     inkscape:cx="113.01881"
     inkscape:cy="163.89266"
     inkscape:document-units="px"
     inkscape:current-layer="layer1"
     showgrid="false"
     inkscape:showpageshadow="false"
     showguides="true"
     inkscape:guide-bbox="true"
     inkscape:snap-global="true"
     inkscape:window-width="1456"
     inkscape:window-height="976"
     inkscape:window-x="460"
     inkscape:window-y="33"
     inkscape:window-maximized="0"
     showborder="false"
     fit-margin-top="0"
     fit-margin-left="0"
     fit-margin-right="0"
     fit-margin-bottom="0">
    <inkscape:grid
       type="xygrid"
       id="grid3767"
       empspacing="5"
       visible="true"
       enabled="true"
       snapvisiblegridlinesonly="true"
       originx="0"
       originy="5.1666068e-06" />
  </sodipodi:namedview>
  <metadata
     id="metadata7">
    <rdf:RDF>
      <cc:Work
         rdf:about="">
        <dc:format>image/svg+xml</dc:format>
        <dc:type
           rdf:resource="http://purl.org/dc/dcmitype/StillImage" />
        <dc:title>Two of Diamonds Playing Card</dc:title>
        <cc:license
           rdf:resource="http://creativecommons.org/publicdomain/zero/1.0/" />
        <dc:date>2020-05-05</dc:date>
        <dc:creator>
          <cc:Agent>
            <dc:title>Daniel S. Fowler</dc:title>
          </cc:Agent>
        </dc:creator>
        <dc:rights>
          <cc:Agent>
            <dc:title>Public Domain</dc:title>
          </cc:Agent>
        </dc:rights>
        <dc:publisher>
          <cc:Agent>
            <dc:title>https://tekeye.uk</dc:title>
          </cc:Agent>
        </dc:publisher>
        <dc:language>en-GB</dc:language>
        <dc:subject>
          <rdf:Bag>
            <rdf:li>two; diamonds; playing; card; white; red;</rdf:li>
          </rdf:Bag>
        </dc:subject>
        <dc:description>A two of diamonds playing card.</dc:description>
      </cc:Work>
      <cc:License
         rdf:about="http://creativecommons.org/publicdomain/zero/1.0/">
        <cc:permits
           rdf:resource="http://creativecommons.org/ns#Reproduction" />
        <cc:permits
           rdf:resource="http://creativecommons.org/ns#Distribution" />
        <cc:permits
           rdf:resource="http://creativecommons.org/ns#DerivativeWorks" />
      </cc:License>
    </rdf:RDF>
  </metadata>
  <g
     inkscape:label="Layer 1"
     inkscape:groupmode="layer"
     id="layer1"
     transform="translate(0,-719.36216)">
    <g
       id="g913">
      <rect
         rx="8.9191856"
         ry="8.9457436"
         y="719.74011"
         x="0.37795275"
         height="332.24411"
         width="233.24409"
         id="rect4266"
         style="fill:#ffffff;fill-opacity:1;stroke:#808080;stroke-width:0.75590551;stroke-linecap:butt;stroke-linejoin:miter;stroke-miterlimit:4;stroke-dasharray:none;stroke-opacity:1" />
      <g
         transform="matrix(0.07348588,0,0,0.07370838,-248.01731,933.60062)"
         id="g4233"
         style="fill:none;stroke:#000000;stroke-width:3.18132639;stroke-opacity:1" />
      <g
         clip-path="none"
         style="fill:none;stroke:#000000;stroke-width:3.18132639;stroke-opacity:1"
         id="g4211"
         transform="matrix(0.07348588,0,0,0.07370838,-248.01728,933.60062)" />
      <g
         transform="matrix(0.07348588,0,0,0.07370838,-248.01731,933.60062)"
         id="g4227"
         style="fill:none;stroke:#000000;stroke-width:3.18132639;stroke-opacity:1" />
      <path
         sodipodi:nodetypes="csssssssscssssssssc"
         inkscape:connector-curvature="0"
         id="path3940-9-0"
         d="m 17.194709,780.70209 c -0.884404,-1.89864 -2.026046,-3.67279 -3.382435,-5.25649 -0.87477,-1.02134 -1.836311,-1.96168 -2.810437,-2.88504 -0.760948,-0.72123 -1.5353906,-1.43858 -2.1580074,-2.28628 -0.4206116,-0.57272 -0.7716181,-1.20988 -0.9388522,-1.90447 -0.3028667,-1.25805 0.026675,-2.60668 0.6482558,-3.73677 0.3640614,-0.66182 0.8298315,-1.27049 1.4035868,-1.75432 0.852458,-0.71887 1.964695,-1.1487 3.067706,-1.05487 1.011533,0.086 1.957446,0.60262 2.695611,1.3121 0.653277,0.62794 1.162103,1.41066 1.48543,2.26831 0.323328,-0.85765 0.832154,-1.64037 1.485431,-2.26831 0.738165,-0.70948 1.684078,-1.22609 2.695611,-1.3121 1.102986,-0.0938 2.215223,0.336 3.06769,1.05487 0.573755,0.48383 1.039538,1.0925 1.403587,1.75432 0.621635,1.13009 0.951135,2.47872 0.648256,3.73677 -0.167222,0.69459 -0.518241,1.33175 -0.938862,1.90447 -0.622607,0.8477 -1.397059,1.56505 -2.157985,2.28628 -0.974135,0.92336 -1.935695,1.8637 -2.810434,2.88504 -1.35642,1.5837 -2.498062,3.35785 -3.382467,5.25649"
         style="fill:#ff0000;fill-opacity:1;stroke:none;stroke-width:1" />
      <path
         sodipodi:nodetypes="csssssssscssssssssc"
         inkscape:connector-curvature="0"
         id="path3940-9-6-6"
         d="m 216.78358,991.02223 c -0.88441,1.89861 -2.02605,3.67279 -3.38244,5.25649 -0.87477,1.02131 -1.83631,1.96168 -2.81044,2.88501 -0.76095,0.72126 -1.53539,1.43857 -2.158,2.28627 -0.42062,0.5728 -0.77162,1.2099 -0.93886,1.9045 -0.30286,1.258 0.0267,2.6067 0.64826,3.7368 0.36406,0.6618 0.82983,1.2704 1.40359,1.7543 0.85245,0.7189 1.96469,1.1487 3.0677,1.0549 1.01153,-0.086 1.95745,-0.6027 2.69561,-1.3122 0.65328,-0.6279 1.16211,-1.4106 1.48543,-2.2683 0.32333,0.8577 0.83216,1.6404 1.48543,2.2683 0.73817,0.7095 1.68408,1.2261 2.69561,1.3122 1.10298,0.094 2.21522,-0.336 3.06771,-1.0549 0.57376,-0.4839 1.03953,-1.0925 1.40359,-1.7543 0.62161,-1.1301 0.95112,-2.4788 0.64825,-3.7368 -0.16723,-0.6946 -0.51824,-1.3317 -0.93888,-1.9045 -0.62259,-0.8477 -1.39706,-1.56501 -2.15798,-2.28627 -0.97412,-0.92333 -1.93569,-1.8637 -2.81043,-2.88501 -1.35642,-1.5837 -2.49807,-3.35788 -3.38247,-5.25649"
         style="fill:#ff0000;fill-opacity:1;stroke:none;stroke-width:1" />
      <path
         sodipodi:nodetypes="csssssssscssssssssc"
         inkscape:connector-curvature="0"
         id="path3940-9"
         d="m 116.96746,814.07624 c -2.65321,-5.69589 -6.07814,-11.01838 -10.14737,-15.76947 -2.62425,-3.06398 -5.50887,-5.88504 -8.431277,-8.65507 -2.282813,-2.16375 -4.606141,-4.31575 -6.473991,-6.85891 -1.261866,-1.71812 -2.314886,-3.62962 -2.816557,-5.7134 -0.908631,-3.77411 0.07987,-7.82001 1.944736,-11.21027 1.092153,-1.98547 2.489526,-3.81145 4.210761,-5.26296 2.557404,-2.15664 5.894118,-3.44611 9.203118,-3.16466 3.03457,0.25811 5.87237,1.80791 8.0868,3.93638 1.95983,1.88375 3.48637,4.23197 4.45632,6.80491 0.96996,-2.57294 2.4965,-4.92116 4.45633,-6.80491 2.21443,-2.12847 5.05223,-3.67827 8.08677,-3.93638 3.309,-0.28145 6.64571,1.00802 9.20312,3.16466 1.72126,1.45151 3.1186,3.27749 4.21076,5.26296 1.8649,3.39026 2.8534,7.43616 1.94476,11.21027 -0.50167,2.08378 -1.55472,3.99528 -2.81659,5.7134 -1.86781,2.54316 -4.19117,4.69516 -6.47396,6.85891 -2.9224,2.77003 -5.80706,5.59109 -8.43131,8.65507 -4.06922,4.75109 -7.49415,10.07358 -10.14736,15.76947"
         style="fill:#ff0000;fill-opacity:1;stroke:none;stroke-width:1" />
      <path
         sodipodi:nodetypes="csssssssscssssssssc"
         inkscape:connector-curvature="0"
         id="path3940-9-6"
         d="m 116.96746,957.64806 c -2.65321,5.6959 -6.07814,11.01839 -10.14737,15.76948 -2.62425,3.06398 -5.50887,5.88504 -8.431277,8.65508 -2.282813,2.16374 -4.606141,4.31575 -6.473991,6.85891 -1.261866,1.71812 -2.314886,3.62962 -2.816557,5.7134 -0.908631,3.77411 0.07987,7.81997 1.944736,11.21027 1.092153,1.9855 2.489526,3.8114 4.210761,5.263 2.557404,2.1566 5.894118,3.4461 9.203118,3.1646 3.03457,-0.2581 5.87237,-1.8079 8.0868,-3.9364 1.95983,-1.8837 3.48637,-4.2319 4.45632,-6.8049 0.96996,2.573 2.4965,4.9212 4.45633,6.8049 2.21443,2.1285 5.05223,3.6783 8.08677,3.9364 3.309,0.2815 6.64571,-1.008 9.20312,-3.1646 1.72126,-1.4516 3.1186,-3.2775 4.21076,-5.263 1.8649,-3.3903 2.85339,-7.43616 1.94476,-11.21027 -0.50167,-2.08378 -1.55472,-3.99528 -2.81659,-5.7134 -1.86781,-2.54316 -4.19117,-4.69517 -6.47396,-6.85891 -2.9224,-2.77004 -5.80706,-5.5911 -8.43131,-8.65508 -4.06922,-4.75109 -7.49415,-10.07358 -10.14736,-15.76948"
         style="fill:#ff0000;fill-opacity:1;stroke:none;stroke-width:1" />
      <g
         id="text3755-0"
         style="font-style:normal;font-variant:normal;font-weight:bold;font-stretch:normal;font-size:3.77201176px;line-height:0%;font-family:'Levenim MT';-inkscape-font-specification:'Sans Bold';letter-spacing:0px;word-spacing:0px;fill:#ff0000;fill-opacity:1;stroke:none;stroke-width:1"
         transform="scale(0.98105485,1.019311)"
         aria-label="2">
        <path
           id="path893"
           style="font-size:39.34609222px;line-height:1.25;stroke-width:1"
           d="m 26.999715,735.55243 -0.710843,5.64831 H 7.9414512 q 0.4226631,-4.86062 3.9192398,-8.58774 l 6.224675,-5.3025 q 3.246821,-2.80495 3.246821,-5.62911 0,-1.88277 -1.07587,-2.99706 -1.056658,-1.13351 -2.920218,-1.13351 -2.151739,0 -3.208397,1.15272 -0.691631,0.76848 -1.056658,2.36307 -0.365027,1.69065 -0.576359,1.95962 -0.307391,0.0961 -0.710842,0.0961 H 9.3631362 q -0.4226631,0 -0.7300545,-0.17291 -0.1344837,-0.40345 -0.1344837,-0.90296 0,-4.0153 2.632038,-6.37837 2.516767,-2.26701 6.551278,-2.26701 3.746332,0 6.128615,1.99804 2.535979,2.11332 2.535979,5.80202 0,3.63106 -2.804946,6.64733 -0.97981,1.07587 -5.571468,4.59166 -3.342881,2.59362 -4.111359,4.66851 h 8.952773 l 0.153695,-1.72908 q 0.211332,-0.92217 1.133506,-0.92217 h 1.921196 q 1.114293,0 0.97981,1.09508 z" />
      </g>
      <g
         id="text3755-2-2"
         style="font-style:normal;font-variant:normal;font-weight:bold;font-stretch:normal;font-size:3.77201176px;line-height:0%;font-family:'Levenim MT';-inkscape-font-specification:'Sans Bold';letter-spacing:0px;word-spacing:0px;fill:#ff0000;fill-opacity:1;stroke:none;stroke-width:1"
         transform="scale(-0.98105494,-1.0193109)"
         aria-label="2">
        <path
           id="path896"
           style="font-size:39.34609222px;line-height:1.25;stroke-width:1"
           d="m -211.51903,-1002.6064 -0.71084,5.64833 h -18.34742 q 0.42266,-4.86063 3.91924,-8.58773 l 6.22467,-5.3025 q 3.24682,-2.805 3.24682,-5.6291 0,-1.8828 -1.07587,-2.9971 -1.05665,-1.1335 -2.92021,-1.1335 -2.15174,0 -3.2084,1.1527 -0.69163,0.7685 -1.05666,2.3631 -0.36503,1.6907 -0.57636,1.9596 -0.30739,0.096 -0.71084,0.096 h -2.42071 q -0.42266,0 -0.73005,-0.1729 -0.13449,-0.4035 -0.13449,-0.903 0,-4.0153 2.63204,-6.3784 2.51677,-2.267 6.55128,-2.267 3.74633,0 6.12862,1.9981 2.53597,2.1133 2.53597,5.802 0,3.631 -2.80494,6.6473 -0.97981,1.0759 -5.57147,4.5917 -3.34288,2.5936 -4.11136,4.6685 h 8.95277 l 0.1537,-1.7291 q 0.21133,-0.9222 1.13351,-0.9222 h 1.92119 q 1.11429,0 0.97981,1.0951 z" />
      </g>
    </g>
  </g>
</svg>
