<?xml version="1.0" encoding="UTF-8" standalone="no"?>
<!-- Created with Inkscape (http://www.inkscape.org/) -->

<svg
   xmlns:dc="http://purl.org/dc/elements/1.1/"
   xmlns:cc="http://creativecommons.org/ns#"
   xmlns:rdf="http://www.w3.org/1999/02/22-rdf-syntax-ns#"
   xmlns:svg="http://www.w3.org/2000/svg"
   xmlns="http://www.w3.org/2000/svg"
   xmlns:sodipodi="http://sodipodi.sourceforge.net/DTD/sodipodi-0.dtd"
   xmlns:inkscape="http://www.inkscape.org/namespaces/inkscape"
   width="234"
   height="333"
   id="svg2"
   version="1.1"
   inkscape:version="0.92.4 (5da689c313, 2019-01-14)"
   sodipodi:docname="hearts_5.svg"
   inkscape:export-filename="C:\Users\fowle\OneDrive\Projects\Playing-Cards\fronts\png-096-dpi\hearts_5.png"
   inkscape:export-xdpi="96.000008"
   inkscape:export-ydpi="96.000008">
  <title
     id="title896">Five of Hearts Playing Card</title>
  <defs
     id="defs4" />
  <sodipodi:namedview
     id="base"
     pagecolor="#ffffff"
     bordercolor="#666666"
     borderopacity="1.0"
     inkscape:pageopacity="0.0"
     inkscape:pageshadow="2"
     inkscape:zoom="2.1916676"
     inkscape:cx="34.926791"
     inkscape:cy="162.57698"
     inkscape:document-units="px"
     inkscape:current-layer="layer1"
     showgrid="false"
     inkscape:showpageshadow="false"
     showguides="true"
     inkscape:guide-bbox="true"
     inkscape:snap-global="true"
     inkscape:window-width="1456"
     inkscape:window-height="976"
     inkscape:window-x="507"
     inkscape:window-y="29"
     inkscape:window-maximized="0"
     fit-margin-top="0"
     fit-margin-left="0"
     fit-margin-right="0"
     fit-margin-bottom="0"
     showborder="false">
    <inkscape:grid
       type="xygrid"
       id="grid3767"
       empspacing="5"
       visible="true"
       enabled="true"
       snapvisiblegridlinesonly="true"
       originx="0"
       originy="-8.6386128e-05" />
  </sodipodi:namedview>
  <metadata
     id="metadata7">
    <rdf:RDF>
      <cc:Work
         rdf:about="">
        <dc:format>image/svg+xml</dc:format>
        <dc:type
           rdf:resource="http://purl.org/dc/dcmitype/StillImage" />
        <dc:title>Five of Hearts Playing Card</dc:title>
        <cc:license
           rdf:resource="http://creativecommons.org/publicdomain/zero/1.0/" />
        <dc:date>2020-05-05</dc:date>
        <dc:creator>
          <cc:Agent>
            <dc:title>Daniel S. Fowler</dc:title>
          </cc:Agent>
        </dc:creator>
        <dc:rights>
          <cc:Agent>
            <dc:title>Public Domain</dc:title>
          </cc:Agent>
        </dc:rights>
        <dc:publisher>
          <cc:Agent>
            <dc:title>https://tekeye.uk</dc:title>
          </cc:Agent>
        </dc:publisher>
        <dc:language>en-GB</dc:language>
        <dc:subject>
          <rdf:Bag>
            <rdf:li>five; hearts; playing; card; white; red;</rdf:li>
          </rdf:Bag>
        </dc:subject>
        <dc:description>A five of hearts playing card.</dc:description>
      </cc:Work>
      <cc:License
         rdf:about="http://creativecommons.org/publicdomain/zero/1.0/">
        <cc:permits
           rdf:resource="http://creativecommons.org/ns#Reproduction" />
        <cc:permits
           rdf:resource="http://creativecommons.org/ns#Distribution" />
        <cc:permits
           rdf:resource="http://creativecommons.org/ns#DerivativeWorks" />
      </cc:License>
    </rdf:RDF>
  </metadata>
  <g
     inkscape:label="Layer 1"
     inkscape:groupmode="layer"
     id="layer1"
     transform="translate(0,-719.3621)">
    <g
       id="g919">
      <rect
         rx="8.9191856"
         ry="8.9457426"
         y="719.74005"
         x="0.37795275"
         height="332.24408"
         width="233.24409"
         id="rect4266"
         style="fill:#ffffff;fill-opacity:1;stroke:#808080;stroke-width:0.75590551;stroke-linecap:butt;stroke-linejoin:miter;stroke-miterlimit:4;stroke-dasharray:none;stroke-opacity:1" />
      <g
         transform="matrix(0.07348588,0,0,0.07370838,-248.01731,933.60063)"
         id="g4233"
         style="fill:none;stroke:#000000;stroke-width:3.18132615;stroke-opacity:1" />
      <g
         clip-path="none"
         style="fill:none;stroke:#000000;stroke-width:3.18132615;stroke-opacity:1"
         id="g4211"
         transform="matrix(0.07348588,0,0,0.07370838,-248.01728,933.60063)" />
      <g
         transform="matrix(0.07348588,0,0,0.07370838,-248.01731,933.60063)"
         id="g4227"
         style="fill:none;stroke:#000000;stroke-width:3.18132615;stroke-opacity:1" />
      <path
         sodipodi:nodetypes="csssssssscssssssssc"
         inkscape:connector-curvature="0"
         id="path3940-9-0"
         d="m 17.194709,780.70206 c -0.884404,-1.89863 -2.026046,-3.67278 -3.382435,-5.25648 -0.87477,-1.02135 -1.836311,-1.96168 -2.810437,-2.88504 -0.760948,-0.72123 -1.5353906,-1.43859 -2.1580074,-2.28629 -0.4206116,-0.57272 -0.7716181,-1.20987 -0.9388522,-1.90446 -0.3028667,-1.25806 0.026675,-2.60669 0.6482558,-3.73679 0.3640614,-0.66181 0.8298315,-1.27048 1.4035868,-1.7543 0.852458,-0.71887 1.964695,-1.14871 3.067706,-1.05488 1.011533,0.086 1.957446,0.60263 2.695611,1.3121 0.653277,0.62794 1.162103,1.41066 1.48543,2.26832 0.323328,-0.85766 0.832154,-1.64038 1.485431,-2.26832 0.738165,-0.70947 1.684078,-1.22609 2.695611,-1.3121 1.102986,-0.0939 2.215223,0.33601 3.06769,1.05488 0.573755,0.48382 1.039538,1.09249 1.403587,1.7543 0.621635,1.1301 0.951135,2.47873 0.648256,3.73679 -0.167222,0.69459 -0.518241,1.33174 -0.938862,1.90446 -0.622607,0.8477 -1.397059,1.56506 -2.157985,2.28629 -0.974135,0.92336 -1.935695,1.86369 -2.810434,2.88504 -1.35642,1.5837 -2.498062,3.35785 -3.382467,5.25648"
         style="fill:#ff0000;fill-opacity:1;stroke:none;stroke-width:1" />
      <g
         id="text3755"
         style="font-style:normal;font-variant:normal;font-weight:bold;font-stretch:normal;font-size:3.77201152px;line-height:0%;font-family:'Levenim MT';-inkscape-font-specification:'Sans Bold';letter-spacing:0px;word-spacing:0px;fill:#ff0000;fill-opacity:1;stroke:none;stroke-width:0.99999994"
         transform="scale(0.99509934,1.0049248)"
         aria-label="5">
        <path
           id="path898"
           style="font-size:39.90935898px;line-height:1.25;stroke-width:0.99999994"
           d="m 26.751238,742.3019 q 0,4.36509 -2.650231,6.93737 -2.630744,2.57228 -6.99583,2.57228 -4.189703,0 -6.625577,-2.04613 -2.6502312,-2.18254 -2.6502312,-6.2943 0,-0.66256 1.0522976,-0.66256 h 2.5527956 q 0.409227,0 0.759993,0.11693 0.116922,0.19487 0.155896,0.50666 0.331279,2.20203 1.266654,3.15689 1.052298,1.07178 3.234841,1.07178 2.182543,0 3.527145,-1.53947 1.266655,-1.46152 1.266655,-3.66355 0,-5.43687 -4.501495,-5.43687 -1.636907,0 -3.293302,1.13024 h -3.215353 q -0.448201,0 -0.857428,-0.11692 -0.1948699,-0.19487 -0.1948699,-0.4482 0,-2.76715 0.2923048,-6.97634 0.2533311,-3.50766 0.5066621,-6.99583 h 14.615243 q 0.506662,0 0.915889,0.15589 0.175383,0.38974 0.175383,2.72818 0,0.38974 -0.03897,0.64307 -0.136409,0.62359 -1.130245,0.62359 H 14.338024 q 0.05846,1.05229 -0.175383,3.21535 -0.233844,2.14357 -0.175383,3.19587 2.00716,-1.24717 4.189703,-1.24717 4.014321,0 6.35276,2.72818 2.221517,2.57228 2.221517,6.64506 z" />
      </g>
      <g
         id="text3755-2"
         style="font-style:normal;font-variant:normal;font-weight:bold;font-stretch:normal;font-size:3.77201152px;line-height:0%;font-family:'Levenim MT';-inkscape-font-specification:'Sans Bold';letter-spacing:0px;word-spacing:0px;fill:#ff0000;fill-opacity:1;stroke:none;stroke-width:0.99999994"
         transform="scale(-0.99509934,-1.0049248)"
         aria-label="5">
        <path
           id="path901"
           style="font-size:39.90935898px;line-height:1.25;stroke-width:0.99999994"
           d="m -208.40118,-1020.7398 q 0,4.3651 -2.65023,6.9374 -2.63075,2.5723 -6.99583,2.5723 -4.18971,0 -6.62558,-2.0462 -2.65023,-2.1825 -2.65023,-6.2943 0,-0.6625 1.0523,-0.6625 h 2.55279 q 0.40923,0 0.76,0.1169 0.11692,0.1949 0.15589,0.5067 0.33128,2.202 1.26666,3.1569 1.05229,1.0717 3.23484,1.0717 2.18254,0 3.52714,-1.5394 1.26666,-1.4616 1.26666,-3.6636 0,-5.4369 -4.5015,-5.4369 -1.63691,0 -3.2933,1.1303 h -3.21535 q -0.4482,0 -0.85743,-0.1169 -0.19487,-0.1949 -0.19487,-0.4482 0,-2.7672 0.2923,-6.9764 0.25333,-3.5076 0.50667,-6.9958 h 14.61524 q 0.50666,0 0.91589,0.1559 0.17538,0.3897 0.17538,2.7282 0,0.3897 -0.039,0.643 -0.13641,0.6236 -1.13025,0.6236 h -10.58144 q 0.0585,1.0523 -0.17538,3.2154 -0.23384,2.1435 -0.17538,3.1958 2.00716,-1.2471 4.1897,-1.2471 4.01432,0 6.35276,2.7282 2.22152,2.5722 2.22152,6.645 z" />
      </g>
      <path
         sodipodi:nodetypes="csssssssscssssssssc"
         inkscape:connector-curvature="0"
         id="path3940-9-6-6"
         d="m 216.78358,991.02219 c -0.88441,1.89865 -2.02605,3.6728 -3.38244,5.2565 -0.87477,1.02133 -1.83631,1.96161 -2.81044,2.88508 -0.76095,0.72119 -1.53539,1.43853 -2.158,2.28623 -0.42062,0.5728 -0.77162,1.2099 -0.93886,1.9045 -0.30286,1.2581 0.0267,2.6066 0.64826,3.7367 0.36406,0.6618 0.82983,1.2705 1.40359,1.7544 0.85245,0.7188 1.96469,1.1487 3.0677,1.0548 1.01153,-0.086 1.95745,-0.6025 2.69561,-1.3121 0.65328,-0.6279 1.16211,-1.4106 1.48543,-2.2682 0.32333,0.8576 0.83216,1.6403 1.48543,2.2682 0.73817,0.7096 1.68408,1.2261 2.69561,1.3121 1.10298,0.094 2.21522,-0.336 3.06771,-1.0548 0.57376,-0.4839 1.03953,-1.0926 1.40359,-1.7544 0.62161,-1.1301 0.95112,-2.4786 0.64825,-3.7367 -0.16723,-0.6946 -0.51824,-1.3317 -0.93888,-1.9045 -0.62259,-0.8477 -1.39706,-1.56504 -2.15798,-2.28623 -0.97412,-0.92347 -1.93569,-1.86375 -2.81043,-2.88508 -1.35642,-1.5837 -2.49807,-3.35785 -3.38247,-5.2565"
         style="fill:#ff0000;fill-opacity:1;stroke:none;stroke-width:1" />
      <path
         sodipodi:nodetypes="csssssssscssssssssc"
         inkscape:connector-curvature="0"
         id="path3940-9"
         d="m 58.597133,814.07622 c -2.653214,-5.6959 -6.07814,-11.01839 -10.147368,-15.76948 -2.624249,-3.06397 -5.508873,-5.88505 -8.43128,-8.65507 -2.282814,-2.16374 -4.606141,-4.31575 -6.473992,-6.85891 -1.261866,-1.71812 -2.314885,-3.62962 -2.816556,-5.7134 -0.908632,-3.7741 0.07987,-7.82001 1.944736,-11.21026 1.092153,-1.98547 2.489526,-3.81146 4.21076,-5.26297 2.557405,-2.15664 5.894117,-3.44611 9.203118,-3.16465 3.034567,0.25809 5.872369,1.80791 8.086801,3.93638 1.959831,1.88374 3.486372,4.23196 4.456324,6.8049 0.969951,-2.57294 2.496492,-4.92116 4.456323,-6.8049 2.214432,-2.12847 5.052234,-3.67829 8.08677,-3.93638 3.309001,-0.28146 6.645713,1.00801 9.203118,3.16465 1.721265,1.45151 3.118607,3.2775 4.21076,5.26297 1.8649,3.39025 2.853402,7.43616 1.944767,11.21026 -0.501671,2.08378 -1.554722,3.99528 -2.816588,5.7134 -1.867819,2.54316 -4.191178,4.69517 -6.47396,6.85891 -2.922407,2.77002 -5.807063,5.5911 -8.431311,8.65507 -4.069228,4.75109 -7.494154,10.07358 -10.147368,15.76948"
         style="fill:#ff0000;fill-opacity:1;stroke:none;stroke-width:1" />
      <path
         inkscape:transform-center-y="71.513355"
         inkscape:transform-center-x="78.569003"
         sodipodi:nodetypes="csssssssscssssssssc"
         inkscape:connector-curvature="0"
         id="path3940-9-1"
         d="m 175.33779,814.07622 c -2.65322,-5.6959 -6.07814,-11.01839 -10.14737,-15.76948 -2.62425,-3.06397 -5.50887,-5.88505 -8.43128,-8.65507 -2.28281,-2.16374 -4.60614,-4.31575 -6.47399,-6.85891 -1.26187,-1.71812 -2.31489,-3.62962 -2.81656,-5.7134 -0.90863,-3.7741 0.0799,-7.82001 1.94474,-11.21026 1.09215,-1.98547 2.48952,-3.81146 4.21076,-5.26297 2.5574,-2.15664 5.89411,-3.44611 9.20311,-3.16465 3.03457,0.25809 5.87237,1.80791 8.08681,3.93638 1.95983,1.88374 3.48637,4.23196 4.45632,6.8049 0.96995,-2.57294 2.49649,-4.92116 4.45632,-6.8049 2.21443,-2.12847 5.05223,-3.67829 8.08677,-3.93638 3.309,-0.28146 6.64571,1.00801 9.20312,3.16465 1.72126,1.45151 3.1186,3.2775 4.21076,5.26297 1.8649,3.39025 2.8534,7.43616 1.94476,11.21026 -0.50167,2.08378 -1.55472,3.99528 -2.81658,5.7134 -1.86782,2.54316 -4.19118,4.69517 -6.47396,6.85891 -2.92241,2.77002 -5.80707,5.5911 -8.43131,8.65507 -4.06923,4.75109 -7.49416,10.07358 -10.14737,15.76948"
         style="fill:#ff0000;fill-opacity:1;stroke:none;stroke-width:1" />
      <path
         sodipodi:nodetypes="csssssssscssssssssc"
         inkscape:connector-curvature="0"
         id="path3940-9-9"
         d="m 116.96746,914.19868 c -2.65321,-5.6959 -6.07814,-11.01839 -10.14737,-15.76948 -2.62425,-3.06398 -5.50887,-5.88505 -8.431277,-8.65508 -2.282813,-2.16373 -4.606141,-4.31575 -6.473991,-6.8589 -1.261866,-1.71813 -2.314886,-3.62962 -2.816557,-5.7134 -0.908631,-3.77411 0.07987,-7.82001 1.944736,-11.21027 1.092153,-1.98546 2.489526,-3.81145 4.210761,-5.26296 2.557404,-2.15664 5.894118,-3.44611 9.203118,-3.16466 3.03457,0.2581 5.87237,1.80791 8.0868,3.93638 1.95983,1.88375 3.48637,4.23196 4.45632,6.8049 0.96996,-2.57294 2.4965,-4.92115 4.45633,-6.8049 2.21443,-2.12847 5.05223,-3.67828 8.08677,-3.93638 3.309,-0.28145 6.64571,1.00802 9.20312,3.16466 1.72126,1.45151 3.1186,3.2775 4.21076,5.26296 1.8649,3.39026 2.85339,7.43616 1.94476,11.21027 -0.50167,2.08378 -1.55472,3.99527 -2.81659,5.7134 -1.86781,2.54315 -4.19117,4.69517 -6.47396,6.8589 -2.9224,2.77003 -5.80706,5.5911 -8.43131,8.65508 -4.06922,4.75109 -7.49415,10.07358 -10.14736,15.76948"
         style="fill:#ff0000;fill-opacity:1;stroke:none;stroke-width:1" />
      <path
         sodipodi:nodetypes="csssssssscssssssssc"
         inkscape:connector-curvature="0"
         id="path3940-9-6"
         d="m 58.597133,957.64803 c -2.653214,5.6959 -6.07814,11.01839 -10.147368,15.76948 -2.624249,3.06397 -5.508873,5.88504 -8.43128,8.65502 -2.282814,2.16373 -4.606141,4.31579 -6.473992,6.859 -1.261866,1.71803 -2.314885,3.62963 -2.816556,5.71332 -0.908632,3.77421 0.07987,7.82005 1.944736,11.21025 1.092153,1.9855 2.489526,3.8115 4.21076,5.2631 2.557405,2.1566 5.894117,3.446 9.203118,3.1645 3.034567,-0.258 5.872369,-1.8078 8.086801,-3.9363 1.959831,-1.8837 3.486372,-4.2319 4.456324,-6.8049 0.969951,2.573 2.496492,4.9212 4.456323,6.8049 2.214432,2.1285 5.052234,3.6783 8.08677,3.9363 3.309001,0.2815 6.645713,-1.0079 9.203118,-3.1645 1.721265,-1.4516 3.118607,-3.2776 4.21076,-5.2631 1.8649,-3.3902 2.853399,-7.43604 1.944767,-11.21025 -0.501671,-2.08369 -1.554722,-3.99529 -2.816588,-5.71332 -1.867819,-2.54321 -4.191178,-4.69527 -6.47396,-6.859 -2.922407,-2.76998 -5.807063,-5.59105 -8.431311,-8.65502 -4.069228,-4.75109 -7.494154,-10.07358 -10.147368,-15.76948"
         style="fill:#ff0000;fill-opacity:1;stroke:none;stroke-width:1" />
      <path
         inkscape:transform-center-y="-71.51346"
         inkscape:transform-center-x="78.569004"
         sodipodi:nodetypes="csssssssscssssssssc"
         inkscape:connector-curvature="0"
         id="path3940-9-1-0"
         d="m 175.33779,957.64803 c -2.65321,5.6959 -6.07814,11.01839 -10.14737,15.76948 -2.62425,3.06397 -5.50887,5.88504 -8.43128,8.65502 -2.28281,2.16388 -4.60614,4.31579 -6.47399,6.859 -1.26187,1.71803 -2.31489,3.62963 -2.81656,5.71332 -0.90863,3.77421 0.0799,7.82005 1.94474,11.21025 1.09215,1.9855 2.48953,3.8115 4.21076,5.2631 2.5574,2.1566 5.89412,3.446 9.20312,3.1645 3.03456,-0.258 5.87237,-1.8078 8.0868,-3.9363 1.95983,-1.8837 3.48637,-4.2319 4.45632,-6.8049 0.96995,2.573 2.4965,4.9212 4.45633,6.8049 2.21443,2.1285 5.05223,3.6783 8.08677,3.9363 3.309,0.2815 6.64571,-1.0079 9.20311,-3.1645 1.72127,-1.4516 3.11861,-3.2776 4.21076,-5.2631 1.8649,-3.3902 2.8534,-7.43604 1.94477,-11.21025 -0.50167,-2.08369 -1.55472,-3.99529 -2.81659,-5.71332 -1.86782,-2.54321 -4.19117,-4.69512 -6.47396,-6.859 -2.9224,-2.76998 -5.80706,-5.59105 -8.43131,-8.65502 -4.06923,-4.75109 -7.49415,-10.07358 -10.14737,-15.76948"
         style="fill:#ff0000;fill-opacity:1;stroke:none;stroke-width:1" />
    </g>
  </g>
</svg>
