<?xml version="1.0" encoding="UTF-8" standalone="no"?>
<!-- Created with Inkscape (http://www.inkscape.org/) -->

<svg
   xmlns:dc="http://purl.org/dc/elements/1.1/"
   xmlns:cc="http://creativecommons.org/ns#"
   xmlns:rdf="http://www.w3.org/1999/02/22-rdf-syntax-ns#"
   xmlns:svg="http://www.w3.org/2000/svg"
   xmlns="http://www.w3.org/2000/svg"
   xmlns:sodipodi="http://sodipodi.sourceforge.net/DTD/sodipodi-0.dtd"
   xmlns:inkscape="http://www.inkscape.org/namespaces/inkscape"
   width="234"
   height="333.00003"
   id="svg2"
   version="1.1"
   inkscape:version="0.92.4 (5da689c313, 2019-01-14)"
   sodipodi:docname="hearts_3.svg"
   inkscape:export-filename="C:\Users\fowle\OneDrive\Projects\Playing-Cards\fronts\png-096-dpi\hearts_3.png"
   inkscape:export-xdpi="96"
   inkscape:export-ydpi="96">
  <title
     id="title915">Three of Hearts Playing Card</title>
  <defs
     id="defs4" />
  <sodipodi:namedview
     id="base"
     pagecolor="#ffffff"
     bordercolor="#666666"
     borderopacity="1.0"
     inkscape:pageopacity="0.0"
     inkscape:pageshadow="2"
     inkscape:zoom="2.1916676"
     inkscape:cx="156.74936"
     inkscape:cy="166.48677"
     inkscape:document-units="px"
     inkscape:current-layer="layer1"
     showgrid="false"
     inkscape:showpageshadow="false"
     showguides="true"
     inkscape:guide-bbox="true"
     inkscape:snap-global="true"
     inkscape:window-width="1456"
     inkscape:window-height="976"
     inkscape:window-x="436"
     inkscape:window-y="30"
     inkscape:window-maximized="0"
     showborder="false"
     fit-margin-top="0"
     fit-margin-left="0"
     fit-margin-right="0"
     fit-margin-bottom="0">
    <inkscape:grid
       type="xygrid"
       id="grid3767"
       empspacing="5"
       visible="true"
       enabled="true"
       snapvisiblegridlinesonly="true"
       originx="0"
       originy="5.1666068e-06" />
  </sodipodi:namedview>
  <metadata
     id="metadata7">
    <rdf:RDF>
      <cc:Work
         rdf:about="">
        <dc:format>image/svg+xml</dc:format>
        <dc:type
           rdf:resource="http://purl.org/dc/dcmitype/StillImage" />
        <dc:title>Three of Hearts Playing Card</dc:title>
        <dc:date>2020-05-05</dc:date>
        <dc:creator>
          <cc:Agent>
            <dc:title>Daniel S. Fowler</dc:title>
          </cc:Agent>
        </dc:creator>
        <dc:rights>
          <cc:Agent>
            <dc:title>Public Domain</dc:title>
          </cc:Agent>
        </dc:rights>
        <dc:publisher>
          <cc:Agent>
            <dc:title>https://tekeye.uk</dc:title>
          </cc:Agent>
        </dc:publisher>
        <dc:language>en-GB</dc:language>
        <dc:subject>
          <rdf:Bag>
            <rdf:li>three; hearts; playing; card; white; red;</rdf:li>
          </rdf:Bag>
        </dc:subject>
        <dc:description>A three of hearts playing card.</dc:description>
      </cc:Work>
    </rdf:RDF>
  </metadata>
  <g
     inkscape:label="Layer 1"
     inkscape:groupmode="layer"
     id="layer1"
     transform="translate(0,-719.36216)">
    <g
       id="g913">
      <rect
         rx="8.9191856"
         ry="8.9457436"
         y="719.74011"
         x="0.37795275"
         height="332.24411"
         width="233.24409"
         id="rect4266"
         style="fill:#ffffff;fill-opacity:1;stroke:#808080;stroke-width:0.75590551;stroke-linecap:butt;stroke-linejoin:miter;stroke-miterlimit:4;stroke-dasharray:none;stroke-opacity:1" />
      <g
         transform="matrix(0.07348588,0,0,0.07370838,-248.01731,933.60062)"
         id="g4233"
         style="fill:none;stroke:#000000;stroke-width:3.18132639;stroke-opacity:1" />
      <g
         clip-path="none"
         style="fill:none;stroke:#000000;stroke-width:3.18132639;stroke-opacity:1"
         id="g4211"
         transform="matrix(0.07348588,0,0,0.07370838,-248.01728,933.60062)" />
      <g
         transform="matrix(0.07348588,0,0,0.07370838,-248.01731,933.60062)"
         id="g4227"
         style="fill:none;stroke:#000000;stroke-width:3.18132639;stroke-opacity:1" />
      <path
         sodipodi:nodetypes="csssssssscssssssssc"
         inkscape:connector-curvature="0"
         id="path3940-9-0"
         d="m 17.194709,780.70209 c -0.884404,-1.89864 -2.026046,-3.67279 -3.382435,-5.25649 -0.87477,-1.02134 -1.836311,-1.96168 -2.810437,-2.88504 -0.760948,-0.72123 -1.5353906,-1.43858 -2.1580074,-2.28628 -0.4206116,-0.57272 -0.7716181,-1.20988 -0.9388522,-1.90447 -0.3028667,-1.25805 0.026675,-2.60668 0.6482558,-3.73677 0.3640614,-0.66182 0.8298315,-1.27049 1.4035868,-1.75432 0.852458,-0.71887 1.964695,-1.1487 3.067706,-1.05487 1.011533,0.086 1.957446,0.60262 2.695611,1.3121 0.653277,0.62794 1.162103,1.41066 1.48543,2.26831 0.323328,-0.85765 0.832154,-1.64037 1.485431,-2.26831 0.738165,-0.70948 1.684078,-1.22609 2.695611,-1.3121 1.102986,-0.0938 2.215223,0.336 3.06769,1.05487 0.573755,0.48383 1.039538,1.0925 1.403587,1.75432 0.621635,1.13009 0.951135,2.47872 0.648256,3.73677 -0.167222,0.69459 -0.518241,1.33175 -0.938862,1.90447 -0.622607,0.8477 -1.397059,1.56505 -2.157985,2.28628 -0.974135,0.92336 -1.935695,1.8637 -2.810434,2.88504 -1.35642,1.5837 -2.498062,3.35785 -3.382467,5.25649"
         style="fill:#ff0000;fill-opacity:1;stroke:none;stroke-width:1" />
      <path
         sodipodi:nodetypes="csssssssscssssssssc"
         inkscape:connector-curvature="0"
         id="path3940-9-6-6"
         d="m 216.78358,991.02223 c -0.88441,1.89861 -2.02605,3.67279 -3.38244,5.25649 -0.87477,1.02131 -1.83631,1.96168 -2.81044,2.88501 -0.76095,0.72126 -1.53539,1.43857 -2.158,2.28627 -0.42062,0.5728 -0.77162,1.2099 -0.93886,1.9045 -0.30286,1.258 0.0267,2.6067 0.64826,3.7368 0.36406,0.6618 0.82983,1.2704 1.40359,1.7543 0.85245,0.7189 1.96469,1.1487 3.0677,1.0549 1.01153,-0.086 1.95745,-0.6027 2.69561,-1.3122 0.65328,-0.6279 1.16211,-1.4106 1.48543,-2.2683 0.32333,0.8577 0.83216,1.6404 1.48543,2.2683 0.73817,0.7095 1.68408,1.2261 2.69561,1.3122 1.10298,0.094 2.21522,-0.336 3.06771,-1.0549 0.57376,-0.4839 1.03953,-1.0925 1.40359,-1.7543 0.62161,-1.1301 0.95112,-2.4788 0.64825,-3.7368 -0.16723,-0.6946 -0.51824,-1.3317 -0.93888,-1.9045 -0.62259,-0.8477 -1.39706,-1.56501 -2.15798,-2.28627 -0.97412,-0.92333 -1.93569,-1.8637 -2.81043,-2.88501 -1.35642,-1.5837 -2.49807,-3.35788 -3.38247,-5.25649"
         style="fill:#ff0000;fill-opacity:1;stroke:none;stroke-width:1" />
      <path
         sodipodi:nodetypes="csssssssscssssssssc"
         inkscape:connector-curvature="0"
         id="path3940-9"
         d="m 116.96746,814.07624 c -2.65321,-5.69589 -6.07814,-11.01838 -10.14737,-15.76947 -2.62425,-3.06398 -5.50887,-5.88504 -8.431277,-8.65507 -2.282813,-2.16375 -4.606141,-4.31575 -6.473991,-6.85891 -1.261866,-1.71812 -2.314886,-3.62962 -2.816557,-5.7134 -0.908631,-3.77411 0.07987,-7.82001 1.944736,-11.21027 1.092153,-1.98547 2.489526,-3.81145 4.210761,-5.26296 2.557404,-2.15664 5.894118,-3.44611 9.203118,-3.16466 3.03457,0.25811 5.87237,1.80791 8.0868,3.93638 1.95983,1.88375 3.48637,4.23197 4.45632,6.80491 0.96996,-2.57294 2.4965,-4.92116 4.45633,-6.80491 2.21443,-2.12847 5.05223,-3.67827 8.08677,-3.93638 3.309,-0.28145 6.64571,1.00802 9.20312,3.16466 1.72126,1.45151 3.1186,3.27749 4.21076,5.26296 1.8649,3.39026 2.8534,7.43616 1.94476,11.21027 -0.50167,2.08378 -1.55472,3.99528 -2.81659,5.7134 -1.86781,2.54316 -4.19117,4.69516 -6.47396,6.85891 -2.9224,2.77003 -5.80706,5.59109 -8.43131,8.65507 -4.06922,4.75109 -7.49415,10.07358 -10.14736,15.76947"
         style="fill:#ff0000;fill-opacity:1;stroke:none;stroke-width:1" />
      <path
         sodipodi:nodetypes="csssssssscssssssssc"
         inkscape:connector-curvature="0"
         id="path3940-9-3"
         d="m 116.96746,914.1987 c -2.65321,-5.69589 -6.07814,-11.01839 -10.14737,-15.76947 -2.62425,-3.06398 -5.50887,-5.88505 -8.431277,-8.65508 -2.282813,-2.16375 -4.606141,-4.31575 -6.473991,-6.85891 -1.261866,-1.71812 -2.314886,-3.62962 -2.816557,-5.7134 -0.908631,-3.77411 0.07987,-7.82001 1.944736,-11.21027 1.092153,-1.98547 2.489526,-3.81145 4.210761,-5.26296 2.557404,-2.15664 5.894118,-3.44611 9.203118,-3.16466 3.03457,0.25811 5.87237,1.80791 8.0868,3.93638 1.95983,1.88375 3.48637,4.23197 4.45632,6.80491 0.96996,-2.57294 2.4965,-4.92116 4.45633,-6.80491 2.21443,-2.12847 5.05223,-3.67827 8.08677,-3.93638 3.309,-0.28145 6.64571,1.00802 9.20312,3.16466 1.72126,1.45151 3.1186,3.27749 4.21076,5.26296 1.8649,3.39026 2.8534,7.43616 1.94476,11.21027 -0.50167,2.08378 -1.55472,3.99528 -2.81659,5.7134 -1.86781,2.54316 -4.19117,4.69516 -6.47396,6.85891 -2.9224,2.77003 -5.80706,5.5911 -8.43131,8.65508 -4.06922,4.75108 -7.49415,10.07358 -10.14736,15.76947"
         style="fill:#ff0000;fill-opacity:1;stroke:none;stroke-width:1" />
      <path
         sodipodi:nodetypes="csssssssscssssssssc"
         inkscape:connector-curvature="0"
         id="path3940-9-6"
         d="m 116.96746,957.64806 c -2.65321,5.6959 -6.07814,11.01839 -10.14737,15.76948 -2.62425,3.06398 -5.50887,5.88504 -8.431277,8.65508 -2.282813,2.16374 -4.606141,4.31575 -6.473991,6.85891 -1.261866,1.71812 -2.314886,3.62962 -2.816557,5.7134 -0.908631,3.77411 0.07987,7.81997 1.944736,11.21027 1.092153,1.9855 2.489526,3.8114 4.210761,5.263 2.557404,2.1566 5.894118,3.4461 9.203118,3.1646 3.03457,-0.2581 5.87237,-1.8079 8.0868,-3.9364 1.95983,-1.8837 3.48637,-4.2319 4.45632,-6.8049 0.96996,2.573 2.4965,4.9212 4.45633,6.8049 2.21443,2.1285 5.05223,3.6783 8.08677,3.9364 3.309,0.2815 6.64571,-1.008 9.20312,-3.1646 1.72126,-1.4516 3.1186,-3.2775 4.21076,-5.263 1.8649,-3.3903 2.85339,-7.43616 1.94476,-11.21027 -0.50167,-2.08378 -1.55472,-3.99528 -2.81659,-5.7134 -1.86781,-2.54316 -4.19117,-4.69517 -6.47396,-6.85891 -2.9224,-2.77004 -5.80706,-5.5911 -8.43131,-8.65508 -4.06922,-4.75109 -7.49415,-10.07358 -10.14736,-15.76948"
         style="fill:#ff0000;fill-opacity:1;stroke:none;stroke-width:1" />
      <g
         id="text3755-0"
         style="font-style:normal;font-variant:normal;font-weight:bold;font-stretch:normal;font-size:3.77201176px;line-height:0%;font-family:'Levenim MT';-inkscape-font-specification:'Sans Bold';letter-spacing:0px;word-spacing:0px;fill:#ff0000;fill-opacity:1;stroke:none;stroke-width:0.99999994"
         transform="scale(1.0092549,0.99082998)"
         aria-label="3">
        <path
           id="path894"
           style="font-size:39.92524338px;line-height:1.25;stroke-width:0.99999994"
           d="m 26.376029,754.4354 q 0,3.97693 -2.787749,6.12135 -2.514823,1.94948 -6.589225,1.94948 -9.2794998,0 -9.2794998,-8.77264 0,-0.40939 0.1364633,-0.77979 0.2924212,-0.17545 0.6628214,-0.17545 h 2.5343171 q 0.3704,0 0.682316,0.17545 0.09747,0.27293 0.155958,0.64333 0.331411,2.41735 1.364633,3.50905 1.15019,1.20868 3.528549,1.20868 1.949475,0 3.177644,-1.05272 1.286653,-1.13069 1.286653,-3.04118 0,-4.05491 -4.425308,-4.75672 -0.545853,-0.078 -0.818779,-0.23394 -0.155958,-0.31191 -0.155958,-3.15814 0,-0.3704 0.175453,-0.70182 1.462106,-0.42888 2.924212,-0.87726 1.540085,-0.70181 1.540085,-2.94371 0,-3.39208 -3.976929,-3.39208 -1.832506,0 -2.865727,0.89676 -0.545853,0.48737 -1.130696,1.65705 -0.428884,0.89676 -0.857769,0.89676 H 9.1426718 q -0.9552426,0 -0.9552426,-0.85777 0,-3.25562 2.5538118,-5.14661 2.30038,-1.69605 5.653477,-1.69605 3.85996,0 6.296803,1.61807 2.865728,1.89099 2.865728,5.57549 0,4.44481 -4.386318,6.04338 5.205098,2.2029 5.205098,7.29103 z" />
      </g>
      <g
         id="text3755-2-2"
         style="font-style:normal;font-variant:normal;font-weight:bold;font-stretch:normal;font-size:3.77201176px;line-height:0%;font-family:'Levenim MT';-inkscape-font-specification:'Sans Bold';letter-spacing:0px;word-spacing:0px;fill:#ff0000;fill-opacity:1;stroke:none;stroke-width:1"
         transform="scale(-1.0092549,-0.99082997)"
         aria-label="3">
        <path
           id="path897"
           style="font-size:39.92524338px;line-height:1.25;stroke-width:1"
           d="m -205.4782,-1033.6861 q 0,3.977 -2.78775,6.1214 -2.51482,1.9495 -6.58923,1.9495 -9.2795,0 -9.2795,-8.7727 0,-0.4094 0.13647,-0.7798 0.29242,-0.1754 0.66282,-0.1754 h 2.53432 q 0.3704,0 0.68231,0.1754 0.0975,0.273 0.15596,0.6434 0.33141,2.4173 1.36463,3.509 1.15019,1.2087 3.52855,1.2087 1.94948,0 3.17765,-1.0527 1.28665,-1.1307 1.28665,-3.0412 0,-4.0549 -4.42531,-4.7567 -0.54585,-0.078 -0.81878,-0.234 -0.15596,-0.3119 -0.15596,-3.1581 0,-0.3704 0.17546,-0.7018 1.4621,-0.4289 2.92421,-0.8773 1.54008,-0.7018 1.54008,-2.9437 0,-3.3921 -3.97692,-3.3921 -1.83251,0 -2.86573,0.8968 -0.54586,0.4874 -1.1307,1.657 -0.42888,0.8968 -0.85777,0.8968 h -2.51482 q -0.95524,0 -0.95524,-0.8578 0,-3.2556 2.55381,-5.1466 2.30038,-1.696 5.65348,-1.696 3.85996,0 6.2968,1.618 2.86573,1.891 2.86573,5.5755 0,4.4448 -4.38632,6.0434 5.2051,2.2029 5.2051,7.291 z" />
      </g>
    </g>
  </g>
</svg>
