<?xml version="1.0" encoding="UTF-8" standalone="no"?>
<!-- Created with Inkscape (http://www.inkscape.org/) -->

<svg
   xmlns:dc="http://purl.org/dc/elements/1.1/"
   xmlns:cc="http://creativecommons.org/ns#"
   xmlns:rdf="http://www.w3.org/1999/02/22-rdf-syntax-ns#"
   xmlns:svg="http://www.w3.org/2000/svg"
   xmlns="http://www.w3.org/2000/svg"
   xmlns:sodipodi="http://sodipodi.sourceforge.net/DTD/sodipodi-0.dtd"
   xmlns:inkscape="http://www.inkscape.org/namespaces/inkscape"
   width="234"
   height="333.00003"
   id="svg2"
   version="1.1"
   inkscape:version="0.92.4 (5da689c313, 2019-01-14)"
   sodipodi:docname="hearts_8.svg"
   inkscape:export-filename="C:\Users\fowle\OneDrive\Projects\Playing-Cards\fronts\png-096-dpi\hearts_8.png"
   inkscape:export-xdpi="96"
   inkscape:export-ydpi="96">
  <title
     id="title925">Eight of Hearts Playing Card</title>
  <defs
     id="defs4" />
  <sodipodi:namedview
     id="base"
     pagecolor="#ffffff"
     bordercolor="#666666"
     borderopacity="1.0"
     inkscape:pageopacity="0.0"
     inkscape:pageshadow="2"
     inkscape:zoom="2.1916676"
     inkscape:cx="127.40897"
     inkscape:cy="179.01224"
     inkscape:document-units="px"
     inkscape:current-layer="layer1"
     showgrid="false"
     inkscape:showpageshadow="false"
     showguides="true"
     inkscape:guide-bbox="true"
     inkscape:snap-global="true"
     inkscape:window-width="1456"
     inkscape:window-height="976"
     inkscape:window-x="410"
     inkscape:window-y="61"
     inkscape:window-maximized="0"
     showborder="false"
     fit-margin-top="0"
     fit-margin-left="0"
     fit-margin-right="0"
     fit-margin-bottom="0">
    <inkscape:grid
       type="xygrid"
       id="grid3767"
       empspacing="5"
       visible="true"
       enabled="true"
       snapvisiblegridlinesonly="true"
       originx="0"
       originy="5.1666068e-06" />
  </sodipodi:namedview>
  <metadata
     id="metadata7">
    <rdf:RDF>
      <cc:Work
         rdf:about="">
        <dc:format>image/svg+xml</dc:format>
        <dc:type
           rdf:resource="http://purl.org/dc/dcmitype/StillImage" />
        <dc:title>Eight of Hearts Playing Card</dc:title>
        <cc:license
           rdf:resource="http://creativecommons.org/publicdomain/zero/1.0/" />
        <dc:date>2020-05-05</dc:date>
        <dc:creator>
          <cc:Agent>
            <dc:title>Daniel S. Fowler</dc:title>
          </cc:Agent>
        </dc:creator>
        <dc:rights>
          <cc:Agent>
            <dc:title>Public Domain</dc:title>
          </cc:Agent>
        </dc:rights>
        <dc:publisher>
          <cc:Agent>
            <dc:title>https://tekeye.uk</dc:title>
          </cc:Agent>
        </dc:publisher>
        <dc:language>en-GB</dc:language>
        <dc:subject>
          <rdf:Bag>
            <rdf:li>eight; hearts; playing; card; white; red;</rdf:li>
          </rdf:Bag>
        </dc:subject>
        <dc:description>A eight of hearts playing card.</dc:description>
      </cc:Work>
      <cc:License
         rdf:about="http://creativecommons.org/publicdomain/zero/1.0/">
        <cc:permits
           rdf:resource="http://creativecommons.org/ns#Reproduction" />
        <cc:permits
           rdf:resource="http://creativecommons.org/ns#Distribution" />
        <cc:permits
           rdf:resource="http://creativecommons.org/ns#DerivativeWorks" />
      </cc:License>
    </rdf:RDF>
  </metadata>
  <g
     inkscape:label="Layer 1"
     inkscape:groupmode="layer"
     id="layer1"
     transform="translate(0,-719.36216)">
    <g
       id="g923">
      <rect
         rx="8.9191856"
         ry="8.9457436"
         y="719.74011"
         x="0.37795275"
         height="332.24411"
         width="233.24409"
         id="rect4266"
         style="fill:#ffffff;fill-opacity:1;stroke:#808080;stroke-width:0.75590551;stroke-linecap:butt;stroke-linejoin:miter;stroke-miterlimit:4;stroke-dasharray:none;stroke-opacity:1" />
      <g
         transform="matrix(0.07348588,0,0,0.07370838,-248.01731,933.60062)"
         id="g4233"
         style="fill:none;stroke:#000000;stroke-width:3.18132639;stroke-opacity:1" />
      <g
         clip-path="none"
         style="fill:none;stroke:#000000;stroke-width:3.18132639;stroke-opacity:1"
         id="g4211"
         transform="matrix(0.07348588,0,0,0.07370838,-248.01728,933.60062)" />
      <g
         transform="matrix(0.07348588,0,0,0.07370838,-248.01731,933.60062)"
         id="g4227"
         style="fill:none;stroke:#000000;stroke-width:3.18132639;stroke-opacity:1" />
      <path
         sodipodi:nodetypes="csssssssscssssssssc"
         inkscape:connector-curvature="0"
         id="path3940-9-0"
         d="m 17.194709,780.70209 c -0.884404,-1.89864 -2.026046,-3.67279 -3.382435,-5.25649 -0.87477,-1.02134 -1.836311,-1.96168 -2.810437,-2.88504 -0.760948,-0.72123 -1.5353906,-1.43858 -2.1580074,-2.28628 -0.4206116,-0.57272 -0.7716181,-1.20988 -0.9388522,-1.90447 -0.3028667,-1.25805 0.026675,-2.60668 0.6482558,-3.73677 0.3640614,-0.66182 0.8298315,-1.27049 1.4035868,-1.75432 0.852458,-0.71887 1.964695,-1.1487 3.067706,-1.05487 1.011533,0.086 1.957446,0.60262 2.695611,1.3121 0.653277,0.62794 1.162103,1.41066 1.48543,2.26831 0.323328,-0.85765 0.832154,-1.64037 1.485431,-2.26831 0.738165,-0.70948 1.684078,-1.22609 2.695611,-1.3121 1.102986,-0.0938 2.215223,0.336 3.06769,1.05487 0.573755,0.48383 1.039538,1.0925 1.403587,1.75432 0.621635,1.13009 0.951135,2.47872 0.648256,3.73677 -0.167222,0.69459 -0.518241,1.33175 -0.938862,1.90447 -0.622607,0.8477 -1.397059,1.56505 -2.157985,2.28628 -0.974135,0.92336 -1.935695,1.8637 -2.810434,2.88504 -1.35642,1.5837 -2.498062,3.35785 -3.382467,5.25649"
         style="fill:#ff0000;fill-opacity:1;stroke:none;stroke-width:1" />
      <g
         id="text3755"
         style="font-style:normal;font-variant:normal;font-weight:bold;font-stretch:normal;font-size:3.77201176px;line-height:0%;font-family:'Levenim MT';-inkscape-font-specification:'Sans Bold';letter-spacing:0px;word-spacing:0px;fill:#ff0000;fill-opacity:1;stroke:none;stroke-width:1"
         transform="scale(0.97854983,1.0219204)"
         aria-label="8">
        <path
           id="path899"
           style="font-size:38.71057892px;line-height:1.25;stroke-width:1"
           d="m 27.203661,731.19934 q 0,4.10166 -2.910854,6.23754 -2.551723,1.87127 -6.785692,1.87127 -4.196166,0 -6.747889,-2.00358 -2.7974443,-2.21149 -2.7974443,-6.29425 0,-4.29067 4.5174943,-6.31315 -3.4779036,-2.21149 -3.4779036,-6.31315 0,-3.61021 2.8352476,-5.36807 2.324903,-1.43652 6.124134,-1.43652 3.459002,0 5.689397,1.68224 2.457215,1.89017 2.457215,5.25466 0,3.85594 -3.459002,6.16194 4.555297,1.92797 4.555297,6.52107 z M 21.325248,719.2346 q 0,-3.53461 -3.78033,-3.53461 -1.72005,0 -2.740739,0.92618 -1.020689,0.90728 -1.020689,2.60843 0,1.64444 1.077394,2.60842 1.020689,0.94509 2.684034,0.94509 1.625542,0 2.702936,-0.96399 1.077394,-0.96398 1.077394,-2.58952 z m 0.888378,11.79463 q 0,-1.96578 -1.342017,-3.09988 -1.266411,-1.07739 -3.269986,-1.07739 -1.965771,0 -3.232182,1.0963 -1.360919,1.153 -1.360919,3.08097 0,2.02247 1.323116,3.13767 1.228607,1.03959 3.288887,1.03959 2.041378,0 3.269985,-1.05849 1.323116,-1.1152 1.323116,-3.11877 z" />
      </g>
      <g
         id="text3755-2"
         style="font-style:normal;font-variant:normal;font-weight:bold;font-stretch:normal;font-size:3.77201176px;line-height:0%;font-family:'Levenim MT';-inkscape-font-specification:'Sans Bold';letter-spacing:0px;word-spacing:0px;fill:#ff0000;fill-opacity:1;stroke:none;stroke-width:1"
         transform="scale(-0.97854983,-1.0219204)"
         aria-label="8">
        <path
           id="path902"
           style="font-size:38.71057892px;line-height:1.25;stroke-width:1"
           d="m -211.92571,-1002.5212 q 0,4.10168 -2.91086,6.23756 -2.55172,1.87127 -6.78569,1.87127 -4.19617,0 -6.74789,-2.00358 -2.79744,-2.21149 -2.79744,-6.29425 0,-4.2907 4.51749,-6.3131 -3.4779,-2.2115 -3.4779,-6.3132 0,-3.6102 2.83525,-5.3681 2.3249,-1.4365 6.12413,-1.4365 3.459,0 5.6894,1.6823 2.45721,1.8901 2.45721,5.2546 0,3.8559 -3.459,6.162 4.5553,1.9279 4.5553,6.521 z m -5.87842,-11.9647 q 0,-3.5346 -3.78033,-3.5346 -1.72005,0 -2.74074,0.9261 -1.02068,0.9073 -1.02068,2.6085 0,1.6444 1.07739,2.6084 1.02069,0.9451 2.68403,0.9451 1.62555,0 2.70294,-0.964 1.07739,-0.964 1.07739,-2.5895 z m 0.88838,11.7946 q 0,-1.9658 -1.34202,-3.0999 -1.26641,-1.0774 -3.26998,-1.0774 -1.96577,0 -3.23218,1.0963 -1.36092,1.153 -1.36092,3.081 0,2.0225 1.32311,3.13768 1.22861,1.03959 3.28889,1.03959 2.04138,0 3.26999,-1.05849 1.32311,-1.11518 1.32311,-3.11878 z" />
      </g>
      <path
         sodipodi:nodetypes="csssssssscssssssssc"
         inkscape:connector-curvature="0"
         id="path3940-9-6-6"
         d="m 216.78358,991.02223 c -0.88441,1.89861 -2.02605,3.67279 -3.38244,5.25649 -0.87477,1.02131 -1.83631,1.96168 -2.81044,2.88501 -0.76095,0.72126 -1.53539,1.43857 -2.158,2.28627 -0.42062,0.5728 -0.77162,1.2099 -0.93886,1.9045 -0.30286,1.258 0.0267,2.6067 0.64826,3.7368 0.36406,0.6618 0.82983,1.2704 1.40359,1.7543 0.85245,0.7189 1.96469,1.1487 3.0677,1.0549 1.01153,-0.086 1.95745,-0.6027 2.69561,-1.3122 0.65328,-0.6279 1.16211,-1.4106 1.48543,-2.2683 0.32333,0.8577 0.83216,1.6404 1.48543,2.2683 0.73817,0.7095 1.68408,1.2261 2.69561,1.3122 1.10298,0.094 2.21522,-0.336 3.06771,-1.0549 0.57376,-0.4839 1.03953,-1.0925 1.40359,-1.7543 0.62161,-1.1301 0.95112,-2.4788 0.64825,-3.7368 -0.16723,-0.6946 -0.51824,-1.3317 -0.93888,-1.9045 -0.62259,-0.8477 -1.39706,-1.56501 -2.15798,-2.28627 -0.97412,-0.92333 -1.93569,-1.8637 -2.81043,-2.88501 -1.35642,-1.5837 -2.49807,-3.35788 -3.38247,-5.25649"
         style="fill:#ff0000;fill-opacity:1;stroke:none;stroke-width:1" />
      <path
         sodipodi:nodetypes="csssssssscssssssssc"
         inkscape:connector-curvature="0"
         id="path3940-9"
         d="m 58.597133,814.07624 c -2.653214,-5.69589 -6.07814,-11.01838 -10.147368,-15.76947 -2.624249,-3.06398 -5.508873,-5.88504 -8.43128,-8.65507 -2.282814,-2.16375 -4.606141,-4.31575 -6.473992,-6.85891 -1.261866,-1.71812 -2.314885,-3.62962 -2.816556,-5.7134 -0.908632,-3.77411 0.07987,-7.82001 1.944736,-11.21027 1.092153,-1.98547 2.489526,-3.81145 4.21076,-5.26296 2.557405,-2.15664 5.894117,-3.44611 9.203118,-3.16466 3.034567,0.25811 5.872369,1.80791 8.086801,3.93638 1.959831,1.88375 3.486372,4.23197 4.456324,6.80491 0.969951,-2.57294 2.496492,-4.92116 4.456323,-6.80491 2.214432,-2.12847 5.052234,-3.67827 8.08677,-3.93638 3.309001,-0.28145 6.645713,1.00802 9.203118,3.16466 1.721265,1.45151 3.118607,3.27749 4.21076,5.26296 1.8649,3.39026 2.853402,7.43616 1.944767,11.21027 -0.501671,2.08378 -1.554722,3.99528 -2.816588,5.7134 -1.867819,2.54316 -4.191178,4.69516 -6.47396,6.85891 -2.922407,2.77003 -5.807063,5.59109 -8.431311,8.65507 -4.069228,4.75109 -7.494154,10.07358 -10.147368,15.76947"
         style="fill:#ff0000;fill-opacity:1;stroke:none;stroke-width:1" />
      <path
         sodipodi:nodetypes="csssssssscssssssssc"
         inkscape:connector-curvature="0"
         id="path3940-9-3"
         d="m 58.597133,914.1987 c -2.653214,-5.69589 -6.07814,-11.01839 -10.147368,-15.76947 -2.624249,-3.06398 -5.508873,-5.88505 -8.43128,-8.65508 -2.282814,-2.16375 -4.606141,-4.31575 -6.473992,-6.85891 -1.261866,-1.71812 -2.314885,-3.62962 -2.816556,-5.7134 -0.908632,-3.77411 0.07987,-7.82001 1.944736,-11.21027 1.092153,-1.98547 2.489526,-3.81145 4.21076,-5.26296 2.557405,-2.15664 5.894117,-3.44611 9.203118,-3.16466 3.034567,0.25811 5.872369,1.80791 8.086801,3.93638 1.959831,1.88375 3.486372,4.23197 4.456324,6.80491 0.969951,-2.57294 2.496492,-4.92116 4.456323,-6.80491 2.214432,-2.12847 5.052234,-3.67827 8.08677,-3.93638 3.309001,-0.28145 6.645713,1.00802 9.203118,3.16466 1.721265,1.45151 3.118607,3.27749 4.21076,5.26296 1.8649,3.39026 2.853402,7.43616 1.944767,11.21027 -0.501671,2.08378 -1.554722,3.99528 -2.816588,5.7134 -1.867819,2.54316 -4.191178,4.69516 -6.47396,6.85891 -2.922407,2.77003 -5.807063,5.5911 -8.431311,8.65508 -4.069228,4.75108 -7.494154,10.07358 -10.147368,15.76947"
         style="fill:#ff0000;fill-opacity:1;stroke:none;stroke-width:1" />
      <path
         inkscape:transform-center-y="71.51338"
         inkscape:transform-center-x="78.569003"
         sodipodi:nodetypes="csssssssscssssssssc"
         inkscape:connector-curvature="0"
         id="path3940-9-1"
         d="m 175.33779,814.07624 c -2.65322,-5.69589 -6.07814,-11.01838 -10.14737,-15.76947 -2.62425,-3.06398 -5.50887,-5.88504 -8.43128,-8.65508 -2.28281,-2.16374 -4.60614,-4.31574 -6.47399,-6.8589 -1.26187,-1.71813 -2.31489,-3.62962 -2.81656,-5.7134 -0.90863,-3.77411 0.0799,-7.82001 1.94474,-11.21027 1.09215,-1.98547 2.48952,-3.81145 4.21076,-5.26296 2.5574,-2.15664 5.89411,-3.44611 9.20311,-3.16466 3.03457,0.25811 5.87237,1.80791 8.08681,3.93638 1.95983,1.88375 3.48637,4.23197 4.45632,6.8049 0.96995,-2.57293 2.49649,-4.92115 4.45632,-6.8049 2.21443,-2.12847 5.05223,-3.67827 8.08677,-3.93638 3.309,-0.28145 6.64571,1.00802 9.20312,3.16466 1.72126,1.45151 3.1186,3.27749 4.21076,5.26296 1.8649,3.39026 2.8534,7.43616 1.94476,11.21027 -0.50167,2.08378 -1.55472,3.99527 -2.81658,5.7134 -1.86782,2.54316 -4.19118,4.69516 -6.47396,6.8589 -2.92241,2.77004 -5.80707,5.5911 -8.43131,8.65508 -4.06923,4.75109 -7.49416,10.07358 -10.14737,15.76947"
         style="fill:#ff0000;fill-opacity:1;stroke:none;stroke-width:1" />
      <path
         sodipodi:nodetypes="csssssssscssssssssc"
         inkscape:connector-curvature="0"
         id="path3940-9-9"
         d="m 116.96746,869.80478 c -2.65321,-5.69589 -6.07814,-11.01839 -10.14737,-15.76947 -2.62425,-3.06398 -5.50887,-5.88505 -8.431277,-8.65508 -2.282813,-2.16374 -4.606141,-4.31575 -6.473991,-6.85891 -1.261866,-1.71812 -2.314886,-3.62962 -2.816557,-5.7134 -0.908631,-3.7741 0.07987,-7.82001 1.944736,-11.21026 1.092153,-1.98547 2.489526,-3.81145 4.210761,-5.26296 2.557404,-2.15665 5.894118,-3.44611 9.203118,-3.16466 3.03457,0.2581 5.87237,1.80791 8.0868,3.93638 1.95983,1.88375 3.48637,4.23197 4.45632,6.8049 0.96996,-2.57293 2.4965,-4.92115 4.45633,-6.8049 2.21443,-2.12847 5.05223,-3.67828 8.08677,-3.93638 3.309,-0.28145 6.64571,1.00801 9.20312,3.16466 1.72126,1.45151 3.1186,3.27749 4.21076,5.26296 1.8649,3.39025 2.85339,7.43616 1.94476,11.21026 -0.50167,2.08378 -1.55472,3.99528 -2.81659,5.7134 -1.86781,2.54316 -4.19117,4.69517 -6.47396,6.85891 -2.9224,2.77003 -5.80706,5.5911 -8.43131,8.65508 -4.06922,4.75108 -7.49415,10.07358 -10.14736,15.76947"
         style="fill:#ff0000;fill-opacity:1;stroke:none;stroke-width:1" />
      <path
         sodipodi:nodetypes="csssssssscssssssssc"
         inkscape:connector-curvature="0"
         id="path3940-9-8"
         d="m 175.33779,914.1987 c -2.65322,-5.69589 -6.07814,-11.01839 -10.14737,-15.76947 -2.62425,-3.06398 -5.50887,-5.88505 -8.43128,-8.65508 -2.28281,-2.16375 -4.60614,-4.31575 -6.47399,-6.85891 -1.26187,-1.71812 -2.31489,-3.62962 -2.81656,-5.7134 -0.90863,-3.77411 0.0799,-7.82001 1.94474,-11.21027 1.09215,-1.98547 2.48952,-3.81145 4.21076,-5.26296 2.5574,-2.15664 5.89411,-3.44611 9.20311,-3.16466 3.03457,0.25811 5.87237,1.80791 8.08681,3.93638 1.95983,1.88375 3.48637,4.23197 4.45632,6.80491 0.96995,-2.57294 2.49649,-4.92116 4.45632,-6.80491 2.21443,-2.12847 5.05223,-3.67827 8.08677,-3.93638 3.309,-0.28145 6.64571,1.00802 9.20312,3.16466 1.72126,1.45151 3.1186,3.27749 4.21076,5.26296 1.8649,3.39026 2.8534,7.43616 1.94476,11.21027 -0.50167,2.08378 -1.55472,3.99528 -2.81658,5.7134 -1.86782,2.54316 -4.19118,4.69516 -6.47396,6.85891 -2.92241,2.77003 -5.80707,5.5911 -8.43131,8.65508 -4.06923,4.75108 -7.49416,10.07358 -10.14737,15.76947"
         style="fill:#ff0000;fill-opacity:1;stroke:none;stroke-width:1" />
      <path
         sodipodi:nodetypes="csssssssscssssssssc"
         inkscape:connector-curvature="0"
         id="path3940-9-6"
         d="m 58.597133,957.64806 c -2.653214,5.6959 -6.07814,11.01839 -10.147368,15.76948 -2.624249,3.06398 -5.508873,5.88504 -8.43128,8.65508 -2.282814,2.16374 -4.606141,4.31575 -6.473992,6.85891 -1.261866,1.71812 -2.314885,3.62962 -2.816556,5.7134 -0.908632,3.77411 0.07987,7.81997 1.944736,11.21027 1.092153,1.9855 2.489526,3.8114 4.21076,5.263 2.557405,2.1566 5.894117,3.4461 9.203118,3.1646 3.034567,-0.2581 5.872369,-1.8079 8.086801,-3.9364 1.959831,-1.8837 3.486372,-4.2319 4.456324,-6.8049 0.969951,2.573 2.496492,4.9212 4.456323,6.8049 2.214432,2.1285 5.052234,3.6783 8.08677,3.9364 3.309001,0.2815 6.645713,-1.008 9.203118,-3.1646 1.721265,-1.4516 3.118607,-3.2775 4.21076,-5.263 1.8649,-3.3903 2.853399,-7.43616 1.944767,-11.21027 -0.501671,-2.08378 -1.554722,-3.99528 -2.816588,-5.7134 -1.867819,-2.54316 -4.191178,-4.69517 -6.47396,-6.85891 -2.922407,-2.77004 -5.807063,-5.5911 -8.431311,-8.65508 -4.069228,-4.75109 -7.494154,-10.07358 -10.147368,-15.76948"
         style="fill:#ff0000;fill-opacity:1;stroke:none;stroke-width:1" />
      <path
         inkscape:transform-center-y="-71.513392"
         inkscape:transform-center-x="78.569004"
         sodipodi:nodetypes="csssssssscssssssssc"
         inkscape:connector-curvature="0"
         id="path3940-9-1-0"
         d="m 175.33779,957.64806 c -2.65321,5.6959 -6.07814,11.01839 -10.14737,15.76948 -2.62425,3.06398 -5.50887,5.88504 -8.43128,8.65508 -2.28281,2.16375 -4.60614,4.31575 -6.47399,6.85891 -1.26187,1.71812 -2.31489,3.62962 -2.81656,5.7134 -0.90863,3.77411 0.0799,7.81997 1.94474,11.21027 1.09215,1.9855 2.48953,3.8114 4.21076,5.263 2.5574,2.1566 5.89412,3.4461 9.20312,3.1646 3.03456,-0.2581 5.87237,-1.8079 8.0868,-3.9364 1.95983,-1.8837 3.48637,-4.2319 4.45632,-6.8049 0.96995,2.573 2.4965,4.9212 4.45633,6.8049 2.21443,2.1285 5.05223,3.6783 8.08677,3.9364 3.309,0.2815 6.64571,-1.008 9.20311,-3.1646 1.72127,-1.4516 3.11861,-3.2775 4.21076,-5.263 1.8649,-3.3903 2.8534,-7.43616 1.94477,-11.21027 -0.50167,-2.08378 -1.55472,-3.99528 -2.81659,-5.7134 -1.86782,-2.54316 -4.19117,-4.69516 -6.47396,-6.85891 -2.9224,-2.77004 -5.80706,-5.5911 -8.43131,-8.65508 -4.06923,-4.75109 -7.49415,-10.07358 -10.14737,-15.76948"
         style="fill:#ff0000;fill-opacity:1;stroke:none;stroke-width:1" />
      <path
         sodipodi:nodetypes="csssssssscssssssssc"
         inkscape:connector-curvature="0"
         id="path3940-9-8-8"
         d="m 116.96746,907.58684 c -2.65321,5.69589 -6.07814,11.01839 -10.14737,15.76947 -2.62425,3.06398 -5.50887,5.88505 -8.431277,8.65508 -2.282813,2.16375 -4.606141,4.31575 -6.473991,6.85891 -1.261866,1.71812 -2.314886,3.62962 -2.816557,5.7134 -0.908631,3.77411 0.07987,7.82001 1.944736,11.21027 1.092153,1.98547 2.489526,3.81145 4.210761,5.26296 2.557404,2.15664 5.894118,3.44611 9.203118,3.16466 3.03457,-0.25811 5.87237,-1.80791 8.0868,-3.93638 1.95983,-1.88375 3.48637,-4.23197 4.45632,-6.80491 0.96996,2.57294 2.4965,4.92116 4.45633,6.80491 2.21443,2.12847 5.05223,3.67827 8.08677,3.93638 3.309,0.28145 6.64571,-1.00802 9.20312,-3.16466 1.72126,-1.45151 3.1186,-3.27749 4.21076,-5.26296 1.8649,-3.39026 2.85339,-7.43616 1.94476,-11.21027 -0.50167,-2.08378 -1.55472,-3.99528 -2.81659,-5.7134 -1.86781,-2.54316 -4.19117,-4.69516 -6.47396,-6.85891 -2.9224,-2.77003 -5.80706,-5.5911 -8.43131,-8.65508 -4.06922,-4.75108 -7.49415,-10.07358 -10.14736,-15.76947"
         style="fill:#ff0000;fill-opacity:1;stroke:none;stroke-width:1" />
    </g>
  </g>
</svg>
