<?xml version="1.0" encoding="UTF-8" standalone="no"?>
<svg
   xmlns:dc="http://purl.org/dc/elements/1.1/"
   xmlns:cc="http://creativecommons.org/ns#"
   xmlns:rdf="http://www.w3.org/1999/02/22-rdf-syntax-ns#"
   xmlns:svg="http://www.w3.org/2000/svg"
   xmlns="http://www.w3.org/2000/svg"
   xmlns:sodipodi="http://sodipodi.sourceforge.net/DTD/sodipodi-0.dtd"
   xmlns:inkscape="http://www.inkscape.org/namespaces/inkscape"
   width="234.00009"
   height="333.00012"
   id="svg2"
   version="1.1"
   inkscape:version="1.0 (4035a4fb49, 2020-05-01)"
   sodipodi:docname="joker_red.svg"
   inkscape:export-filename="E:\DAN\OneDrive\projects\Playing_Cards\fronts\png-096-dpi\joker_red.png"
   inkscape:export-xdpi="96"
   inkscape:export-ydpi="96">
  <title
     id="title1406">Red Joker Playing Card</title>
  <defs
     id="defs4">
    <filter
       id="filter4594-85"
       style="color-interpolation-filters:sRGB">
      <feGaussianBlur
         id="feGaussianBlur4596-7"
         stdDeviation="0.93967823" />
    </filter>
    <filter
       id="filter4594-8-6"
       style="color-interpolation-filters:sRGB">
      <feGaussianBlur
         id="feGaussianBlur4596-1-1"
         stdDeviation="0.93967823" />
    </filter>
  </defs>
  <sodipodi:namedview
     id="base"
     pagecolor="#ffffff"
     bordercolor="#666666"
     borderopacity="1.0"
     inkscape:pageopacity="0.0"
     inkscape:pageshadow="2"
     inkscape:zoom="2.1916676"
     inkscape:cx="88.906285"
     inkscape:cy="170.17717"
     inkscape:document-units="px"
     inkscape:current-layer="layer1"
     showgrid="false"
     inkscape:showpageshadow="false"
     showguides="true"
     inkscape:guide-bbox="true"
     inkscape:snap-global="false"
     inkscape:window-width="1456"
     inkscape:window-height="976"
     inkscape:window-x="448"
     inkscape:window-y="40"
     inkscape:window-maximized="0"
     inkscape:snap-to-guides="false"
     showborder="false"
     fit-margin-top="0"
     fit-margin-left="0"
     fit-margin-right="0"
     fit-margin-bottom="0"
     inkscape:document-rotation="0">
    <inkscape:grid
       type="xygrid"
       id="grid3767"
       empspacing="5"
       visible="true"
       enabled="true"
       snapvisiblegridlinesonly="true"
       originx="4.7236681e-05"
       originy="5.2403288e-05" />
  </sodipodi:namedview>
  <metadata
     id="metadata7">
    <rdf:RDF>
      <cc:Work
         rdf:about="">
        <dc:format>image/svg+xml</dc:format>
        <dc:type
           rdf:resource="http://purl.org/dc/dcmitype/StillImage" />
        <dc:title>Red Joker Playing Card</dc:title>
        <cc:license
           rdf:resource="http://creativecommons.org/publicdomain/zero/1.0/" />
        <dc:date>2020-05-05</dc:date>
        <dc:creator>
          <cc:Agent>
            <dc:title>Daniel S. Fowler</dc:title>
          </cc:Agent>
        </dc:creator>
        <dc:rights>
          <cc:Agent>
            <dc:title>Public Domain</dc:title>
          </cc:Agent>
        </dc:rights>
        <dc:publisher>
          <cc:Agent>
            <dc:title>https://tekeye.uk</dc:title>
          </cc:Agent>
        </dc:publisher>
        <dc:language>en-GB</dc:language>
        <dc:subject>
          <rdf:Bag>
            <rdf:li>red; joker; playing; card;</rdf:li>
          </rdf:Bag>
        </dc:subject>
        <dc:description>A red joker playing card.</dc:description>
      </cc:Work>
      <cc:License
         rdf:about="http://creativecommons.org/publicdomain/zero/1.0/">
        <cc:permits
           rdf:resource="http://creativecommons.org/ns#Reproduction" />
        <cc:permits
           rdf:resource="http://creativecommons.org/ns#Distribution" />
        <cc:permits
           rdf:resource="http://creativecommons.org/ns#DerivativeWorks" />
      </cc:License>
    </rdf:RDF>
  </metadata>
  <g
     inkscape:label="Layer 1"
     inkscape:groupmode="layer"
     id="layer1"
     transform="translate(4.7236681e-5,-719.36211)">
    <g
       id="g11669">
      <rect
         rx="8.9191856"
         ry="8.9457436"
         y="719.74011"
         x="0.37795275"
         height="332.24411"
         width="233.24409"
         id="rect4266"
         style="fill:#ffffff;fill-opacity:1;stroke:#808080;stroke-width:0.756;stroke-linecap:butt;stroke-linejoin:miter;stroke-miterlimit:4;stroke-dasharray:none;stroke-opacity:1" />
      <g
         transform="matrix(0.07348586,0,0,0.07370835,-248.01734,933.60069)"
         id="g4233"
         style="fill:none;stroke:#000000;stroke-width:3.18133;stroke-opacity:1" />
      <g
         clip-path="none"
         style="fill:none;stroke:#000000;stroke-width:3.18133;stroke-opacity:1"
         id="g4211"
         transform="matrix(0.07348586,0,0,0.07370835,-248.01731,933.60069)" />
      <g
         transform="matrix(0.07348586,0,0,0.07370835,-248.01734,933.60069)"
         id="g4227"
         style="fill:none;stroke:#000000;stroke-width:3.18133;stroke-opacity:1" />
      <g
         id="text3755-0"
         style="font-style:normal;font-variant:normal;font-weight:bold;font-stretch:normal;font-size:3.77201px;line-height:0%;font-family:'Levenim MT';-inkscape-font-specification:'Sans Bold';letter-spacing:0px;word-spacing:0px;fill:#ff0000;fill-opacity:1;stroke:none;stroke-width:1"
         transform="scale(1.1356171,0.88057847)"
         aria-label="J">
        <path
           id="path1771"
           style="font-size:43.7026px;line-height:1.25;fill:#ff0000;stroke-width:1"
           d="m 23.441015,846.62242 q 0,3.88373 -0.405444,5.63354 -0.704192,3.0515 -2.987482,4.5239 -1.813829,1.19499 -4.353189,1.19499 -5.185417,0 -8.8344132,-4.54524 l 4.3105102,-4.0331 q 2.411326,2.73141 4.374528,2.73141 1.344368,0 1.728473,-1.66445 0.170713,-0.72553 0.170713,-2.71008 V 825.7954 h 5.996304 z" />
      </g>
      <g
         id="text3995-4"
         style="font-style:normal;font-variant:normal;font-weight:bold;font-stretch:normal;font-size:3.77201px;line-height:0%;font-family:'Levenim MT';-inkscape-font-specification:'Sans Bold';letter-spacing:0px;word-spacing:0px;fill:#ff0000;fill-opacity:1;stroke:none;stroke-width:1"
         transform="scale(0.81968001,1.2199883)"
         aria-label="O">
        <path
           id="path1774"
           style="font-weight:bold;font-size:30.7888px;line-height:1.25;-inkscape-font-specification:'Levenim MT Bold';fill:#ff0000;stroke-width:1"
           d="m 32.762523,636.12238 q 0,4.82579 -3.292357,8.19331 -3.292356,3.35249 -8.118139,3.35249 -4.885918,0 -8.223375,-3.36752 -3.3374572,-3.36753 -3.3374572,-8.25344 0,-3.15706 1.5183932,-5.818 1.518392,-2.66095 4.239472,-4.23948 2.67598,-1.54846 5.7729,-1.54846 4.810749,0 8.148206,3.44269 3.292357,3.41263 3.292357,8.23841 z m -4.209406,-0.0301 q 0,-3.12699 -2.059602,-5.30686 -2.104703,-2.22497 -5.216656,-2.22497 -3.187122,0 -5.23169,2.20993 -2.014501,2.14981 -2.014501,5.35196 0,3.6682 2.630878,5.80297 2.044569,1.66873 4.690481,1.66873 3.081886,0 5.171555,-2.22497 2.029535,-2.16484 2.029535,-5.27679 z" />
      </g>
      <g
         id="text3999-9"
         style="font-style:normal;font-variant:normal;font-weight:bold;font-stretch:normal;font-size:3.77201px;line-height:0%;font-family:'Levenim MT';-inkscape-font-specification:'Sans Bold';letter-spacing:0px;word-spacing:0px;fill:#ff0000;fill-opacity:1;stroke:none;stroke-width:1"
         transform="scale(0.95622314,1.045781)"
         aria-label="K">
        <path
           id="path1777"
           style="font-weight:bold;font-size:37.7245px;line-height:1.25;-inkscape-font-specification:'Levenim MT Bold';fill:#ff0000;stroke-width:1"
           d="M 27.838832,788.6748 H 21.723338 L 13.360585,776.64644 V 788.6748 H 8.147679 v -27.09605 h 5.212906 v 9.3206 l 7.349644,-9.3206 h 6.207595 l -9.467963,12.08362 z" />
      </g>
      <g
         id="text4003-8"
         style="font-style:normal;font-variant:normal;font-weight:bold;font-stretch:normal;font-size:3.77201px;line-height:0%;font-family:'Levenim MT';-inkscape-font-specification:'Sans Bold';letter-spacing:0px;word-spacing:0px;fill:#ff0000;fill-opacity:1;stroke:none;stroke-width:1"
         transform="scale(1.1032918,0.90637857)"
         aria-label="E">
        <path
           id="path1780"
           style="font-weight:bold;font-size:43.5266px;line-height:1.25;-inkscape-font-specification:'Levenim MT Bold';fill:#ff0000;stroke-width:1"
           d="M 24.127924,948.18518 H 7.0615949 V 916.92171 H 24.127924 v 5.82338 H 12.969988 v 5.65335 h 11.157936 v 5.71711 H 12.969988 v 8.225 h 11.157936 z" />
      </g>
      <g
         id="text4007-2"
         style="font-style:normal;font-variant:normal;font-weight:bold;font-stretch:normal;font-size:3.77201px;line-height:0%;font-family:'Levenim MT';-inkscape-font-specification:'Sans Bold';letter-spacing:0px;word-spacing:0px;fill:#ff0000;fill-opacity:1;stroke:none;stroke-width:1"
         transform="scale(1.0181043,0.98221762)"
         aria-label="R">
        <path
           id="path1783"
           style="font-weight:bold;font-size:40.1658px;line-height:1.25;-inkscape-font-specification:'Levenim MT Bold';fill:#ff0000;stroke-width:1"
           d="m 26.146769,910.23437 h -6.001335 l -6.491641,-12.2184 h -0.509918 v 12.2184 H 7.652457 v -28.84955 h 5.824826 q 3.843993,0 5.648316,0.4903 2.922219,0.76488 4.432359,3.19679 1.235569,1.98084 1.235569,4.68732 0,5.68754 -5.471806,7.64876 z m -6.668151,-20.53398 q 0,-1.98083 -1.804323,-2.64764 -0.823712,-0.29419 -3.02028,-0.29419 h -1.51014 v 5.90328 h 1.725875 q 2.176955,0 3.137953,-0.43147 1.470915,-0.66682 1.470915,-2.52998 z" />
      </g>
      <g
         id="text3755-0-7"
         style="font-style:normal;font-variant:normal;font-weight:bold;font-stretch:normal;font-size:3.77201px;line-height:0%;font-family:'Levenim MT';-inkscape-font-specification:'Sans Bold';letter-spacing:0px;word-spacing:0px;fill:#ff0000;fill-opacity:1;stroke:none;stroke-width:1"
         transform="scale(-1.1356166,-0.88057892)"
         aria-label="J">
        <path
           id="path1798"
           style="font-size:43.7026px;line-height:1.25;fill:#ff0000;stroke-width:1"
           d="m -182.61433,-1165.3776 q 0,3.8837 -0.40544,5.6336 -0.7042,3.0515 -2.98748,4.5239 -1.81383,1.195 -4.35319,1.195 -5.18541,0 -8.83441,-4.5453 l 4.31051,-4.0331 q 2.41132,2.7314 4.37452,2.7314 1.34437,0 1.72848,-1.6644 0.17071,-0.7256 0.17071,-2.7101 v -21.958 h 5.9963 z" />
      </g>
      <g
         id="text3995-4-1"
         style="font-style:normal;font-variant:normal;font-weight:bold;font-stretch:normal;font-size:3.77201px;line-height:0%;font-family:'Levenim MT';-inkscape-font-specification:'Sans Bold';letter-spacing:0px;word-spacing:0px;fill:#ff0000;fill-opacity:1;stroke:none;stroke-width:1"
         transform="scale(-0.81968001,-1.2199883)"
         aria-label="O">
        <path
           id="path1795"
           style="font-weight:bold;font-size:30.7888px;line-height:1.25;-inkscape-font-specification:'Levenim MT Bold';fill:#ff0000;stroke-width:1"
           d="m -253.00104,-816.12463 q 0,4.82579 -3.29235,8.19331 -3.29236,3.35249 -8.11814,3.35249 -4.88592,0 -8.22338,-3.36752 -3.33745,-3.36753 -3.33745,-8.25344 0,-3.15706 1.51839,-5.818 1.51839,-2.66095 4.23947,-4.23948 2.67598,-1.54846 5.7729,-1.54846 4.81075,0 8.14821,3.4427 3.29235,3.41262 3.29235,8.2384 z m -4.2094,-0.0301 q 0,-3.12699 -2.0596,-5.30686 -2.10471,-2.22497 -5.21666,-2.22497 -3.18712,0 -5.23169,2.20994 -2.0145,2.1498 -2.0145,5.35195 0,3.6682 2.63088,5.80297 2.04457,1.66873 4.69048,1.66873 3.08188,0 5.17155,-2.22497 2.02954,-2.16484 2.02954,-5.27679 z" />
      </g>
      <g
         id="text3999-9-2"
         style="font-style:normal;font-variant:normal;font-weight:bold;font-stretch:normal;font-size:3.77201px;line-height:0%;font-family:'Levenim MT';-inkscape-font-specification:'Sans Bold';letter-spacing:0px;word-spacing:0px;fill:#ff0000;fill-opacity:1;stroke:none;stroke-width:1"
         transform="scale(-0.95622269,-1.0457815)"
         aria-label="K">
        <path
           id="path1792"
           style="font-weight:bold;font-size:37.7245px;line-height:1.25;-inkscape-font-specification:'Levenim MT Bold';fill:#ff0000;stroke-width:1"
           d="m -216.87404,-905.48865 h -6.11549 l -8.36275,-12.02836 v 12.02836 h -5.2129 v -27.09604 h 5.2129 v 9.32059 l 7.34964,-9.32059 h 6.20759 l -9.46796,12.08362 z" />
      </g>
      <g
         id="text4003-8-2"
         style="font-style:normal;font-variant:normal;font-weight:bold;font-stretch:normal;font-size:3.77201px;line-height:0%;font-family:'Levenim MT';-inkscape-font-specification:'Sans Bold';letter-spacing:0px;word-spacing:0px;fill:#ff0000;fill-opacity:1;stroke:none;stroke-width:1"
         transform="scale(-1.1032911,-0.90637907)"
         aria-label="E">
        <path
           id="path1789"
           style="font-weight:bold;font-size:43.5266px;line-height:1.25;-inkscape-font-specification:'Levenim MT Bold';fill:#ff0000;stroke-width:1"
           d="m -187.96477,-1006.5432 h -17.06632 v -31.2635 h 17.06632 v 5.8234 h -11.15793 v 5.6534 h 11.15793 v 5.7171 h -11.15793 v 8.225 h 11.15793 z" />
      </g>
      <g
         id="text4007-2-1"
         style="font-style:normal;font-variant:normal;font-weight:bold;font-stretch:normal;font-size:3.77201px;line-height:0%;font-family:'Levenim MT';-inkscape-font-specification:'Sans Bold';letter-spacing:0px;word-spacing:0px;fill:#ff0000;fill-opacity:1;stroke:none;stroke-width:1"
         transform="scale(-1.0181038,-0.98221809)"
         aria-label="R">
        <path
           id="path1786"
           style="font-weight:bold;font-size:40.1658px;line-height:1.25;-inkscape-font-specification:'Levenim MT Bold';fill:#ff0000;stroke-width:1"
           d="m -203.69227,-893.56549 h -6.00133 l -6.49164,-12.2184 h -0.50991 v 12.2184 h -5.49142 v -28.84954 h 5.82482 q 3.84399,0 5.64832,0.4903 2.92221,0.76488 4.43235,3.19679 1.23557,1.98083 1.23557,4.68732 0,5.68753 -5.4718,7.64875 z m -6.66814,-20.53397 q 0,-1.98083 -1.80433,-2.64765 -0.82371,-0.29418 -3.02027,-0.29418 h -1.51014 v 5.90327 h 1.72587 q 2.17695,0 3.13795,-0.43147 1.47092,-0.66681 1.47092,-2.52997 z" />
      </g>
      <path
         style="fill:#ffffff;fill-opacity:1;stroke:#131f67;stroke-width:0.755906;stroke-miterlimit:4;stroke-dasharray:none;stroke-opacity:1"
         inkscape:connector-curvature="0"
         d="m 164.77006,822.39168 c -1.25964,-0.8637 -1.00255,-2.81514 -0.97441,-4.26995 0.0172,-0.88899 0.19311,-1.83145 0.696,-2.58777 0.2249,-0.33825 0.55611,-0.69295 0.97441,-0.77635 0.80392,-0.16028 1.78503,0.10653 2.3664,0.64694 0.58141,0.54043 0.67164,1.43569 0.696,2.19961 0.0184,0.57517 -0.31976,1.11386 -0.41759,1.68208 -0.16202,0.94079 0.44639,2.17287 -0.2784,2.84655 -0.72481,0.67371 -2.23755,0.82435 -3.06241,0.25878 z"
         id="path15686-8" />
      <path
         style="fill:#000000;fill-opacity:1;stroke:#000000;stroke-width:0.755906;stroke-miterlimit:4;stroke-dasharray:none;stroke-opacity:1"
         inkscape:connector-curvature="0"
         d="m 129.06393,880.38348 -2.2911,-6.21835 -6.02339,0.45667 2.06301,4.18735 z"
         id="path3384-9" />
      <path
         style="fill:#131f67;fill-opacity:1;stroke:#131f67;stroke-width:0.755906;stroke-miterlimit:4;stroke-dasharray:none;stroke-opacity:0.941176"
         inkscape:connector-curvature="0"
         d="m 81.462246,993.42167 c 0.582266,1.41221 1.451786,2.27605 0.909824,5.83396 -0.823997,1.66767 -5.319868,4.28627 -5.389244,6.19407 0.314839,1.7806 -1.165314,3.5887 7.941798,5.2344 l 23.233736,3.2607 c 11.06496,-0.3944 8.80122,-1.753 11.03651,-4.5598 0.73462,-2.3144 0.57049,-7.6447 -0.32983,-8.8149 -1.94491,-4.1812 -4.77771,-4.03375 -5.11719,-2.63049 -1.43674,2.47669 -0.73033,1.12796 -0.89965,4.33629 1.31034,-2.71199 3.56122,-2.47296 2.4762,-3.4265 1.96487,0.3637 2.09201,2.5387 0.62148,5.7557 -1.4431,3.0957 -6.07055,1.8262 -7.9227,2.2993 l -6.47863,-2.0253 -8.296095,-5.03551 c -2.08098,-3.84209 -0.264373,-4.6797 0.34217,-6.45021 z"
         id="path3958-2" />
      <path
         style="fill:#000000;fill-opacity:1;stroke:#000000;stroke-width:0.755906;stroke-miterlimit:4;stroke-dasharray:none;stroke-opacity:1"
         inkscape:connector-curvature="0"
         d="m 93.813816,993.45066 c -2.126503,0.50054 -3.810782,-0.007 -5.939197,0.48949 l -1.275304,2.72366 z m -12.576851,-0.14289 c 2.044888,1.56836 1.544005,0.68495 3.356671,2.41521 l 2.577655,-2.51509 c -1.996714,0.077 -3.951411,0.70096 -5.93452,0.0999 z"
         id="path3249-7" />
      <path
         style="fill:#131f67;fill-opacity:1;stroke:#131f67;stroke-width:0.755906;stroke-miterlimit:4;stroke-dasharray:none;stroke-opacity:0.941176"
         inkscape:connector-curvature="0"
         d="m 133.90478,987.78081 c 0.68391,1.32265 1.59876,2.09375 1.37909,5.57456 -0.65414,1.67364 -4.77771,4.53878 -4.68183,6.38863 0.45685,1.6987 -0.81982,3.5567 8.1285,4.4746 l 22.7477,1.4355 c 10.66663,-1.1995 8.36118,-2.346 10.2831,-5.2257 0.51238,-2.29246 -0.10248,-7.43488 -1.07329,-8.50002 -3.3953,-2.94628 -5.77004,-3.8323 -5.97817,-2.45013 -1.17751,2.50136 -0.95367,0.23262 -0.84286,3.34792 1.03509,-2.71953 1.19076,-1.4405 1.88777,-2.51168 1.93127,0.20645 3.60246,2.51223 2.45566,5.73216 -1.13062,3.10044 -5.71431,2.2149 -7.46512,2.80941 l -6.43848,-1.47966 -8.45395,-4.25619 c -2.34122,-3.56175 -0.65612,-4.50617 -0.22109,-6.26327 z"
         id="path3958-5-9" />
      <path
         style="fill:#000000;fill-opacity:1;stroke:#000000;stroke-width:0.755906;stroke-miterlimit:4;stroke-dasharray:none;stroke-opacity:1"
         inkscape:connector-curvature="0"
         d="m 145.22347,986.93306 c -1.29974,0.15698 -3.00545,0.48948 -4.11199,0.53332 l -0.87295,4.33444 z m -11.17565,0.85551 c 1.9478,2.72243 4.17279,4.07576 5.46681,4.01019 l -1.93942,-4.30111 c 0,0 -2.68722,0.55195 -3.52751,0.29095 z"
         id="path3249-2-5" />
      <path
         sodipodi:nodetypes="cccccccccscccccccccscccccccc"
         style="fill:#ff0000;fill-opacity:1;stroke:#131f67;stroke-width:0.755906;stroke-miterlimit:4;stroke-dasharray:none;stroke-opacity:0.941176"
         inkscape:connector-curvature="0"
         d="m 110.29297,903.35993 -16.139279,1.8595 c -1.467417,16.84468 -4.115111,31.44534 -3.475278,44.33708 l 0.424763,3.56917 -1.131948,1.79138 c 0,0 -3.709485,4.77897 -4.625701,7.95046 -2.494051,8.6341 -0.95063,25.53458 -0.82766,32.45795 1.209628,1.45264 1.651814,2.32047 1.651814,2.32047 0.719694,-2.25453 2.270365,-3.21323 2.270365,-3.21323 0,0 2.29122,-22.67929 6.255428,-35.23957 2.078631,-6.58597 -0.343001,0.98831 3.410171,-6.10899 0.362367,-0.91164 -0.496462,-2.55566 -0.496462,-2.55566 6.362087,-15.73644 8.543497,-31.40755 12.683557,-47.16971 z m 20.03184,2.13103 -14.79343,0.84236 c 3.95335,16.51971 3.69385,19.9698 10.14239,35.17839 l 5.01079,8.89966 -0.14677,2.80999 c 0,0 0.36247,9.60975 0.54314,12.77545 0.52602,9.21775 5.93179,21.73379 5.93179,21.73379 0,0 1.52814,2.16965 2.57344,4.58551 0.98755,-1.64752 0.9103,-2.19084 2.10195,-3.48132 -1.9971,-8.70076 -4.66116,-19.92742 -4.82564,-36.33047 0,0 1.32153,-2.50401 0.68785,-4.03012 -0.21108,-0.5084 -1.35099,-1.92561 -1.35099,-1.92561 -1.62648,-14.45103 -3.03754,-24.90963 -5.8745,-41.05835 z"
         id="path3239-4" />
      <path
         style="fill:#000000;fill-opacity:1;stroke:#000000;stroke-width:0.25;stroke-miterlimit:4;stroke-dasharray:none;stroke-opacity:1"
         inkscape:connector-curvature="0"
         d="m 110.23061,903.5918 -1.90543,0.0279 -14.172543,1.86525 c -0.190805,2.50278 -0.377675,5.00323 -0.559775,7.48673 l 14.812918,-0.99804 c 0.58733,-2.79224 1.18484,-5.59013 1.82451,-8.38194 z m 20.09303,2.20345 -14.79343,0.96253 c 0.44351,2.11766 0.91247,4.22503 1.40205,6.31472 3.20373,0.51438 6.88515,0.97391 9.41588,0.8249 1.38245,-0.0814 3.3875,-0.59589 5.01975,-1.07683 -0.33756,-2.32026 -0.68154,-4.66413 -1.0446,-7.02554 z"
         id="path4269-3" />
      <path
         style="fill:#131f67;fill-opacity:1;stroke:#131f67;stroke-width:0.755906;stroke-miterlimit:4;stroke-dasharray:none;stroke-opacity:0.941176"
         inkscape:connector-curvature="0"
         d="m 89.058715,869.60897 c 0,0 2.809486,10.5249 4.663117,15.02309 0.478474,1.161 1.438496,2.47669 1.438496,2.47669 0,0 -1.020241,3.64247 -2.255749,5.02859 -4.234379,4.75035 -12.557363,15.32488 -11.54905,15.65239 0,0 2.857545,-0.32815 4.789402,0.52938 2.217943,0.98459 3.377875,-0.12126 5.720151,0.57111 2.898974,0.85693 5.499548,-0.17928 8.246598,-0.3221 3.68719,-0.1917 8.36975,-0.68274 12.06002,-0.55959 4.90828,0.16377 9.02924,2.18388 13.57854,1.77359 3.78588,-0.34145 9.25257,-2.69138 9.25257,-2.69138 l -0.58753,-2.06814 c 2.81838,-0.35563 3.52537,-1.03908 4.93713,-1.9777 -6.08926,-6.9509 -10.19034,-12.09507 -16.48033,-18.01851 0,0 0.90842,-2.81224 1.23274,-4.24749 1.296,-5.73433 2.83783,-17.37907 2.83783,-17.37907 z"
         id="path3231-1" />
      <path
         style="fill:#000000;fill-opacity:1;stroke:#000000;stroke-width:0.377953;stroke-miterlimit:4;stroke-dasharray:none;stroke-opacity:1"
         inkscape:connector-curvature="0"
         d="m 92.995316,879.45602 c 0.933637,3.30188 -0.192556,2.26515 0.733844,4.59058 0.133207,0.33434 0.289153,0.66035 0.465924,0.98666 3.194062,0.0839 10.136546,0.11404 13.901656,-1.00756 4.39885,-1.31048 13.40432,-6.26654 13.40432,-6.26654 0.88265,1.11017 1.53488,1.95593 2.47818,2.73464 0.0348,-0.14254 0.0756,-0.31746 0.10286,-0.44239 0.58102,-2.65925 0.37496,-2.33648 0.89361,-5.81693 -21.10368,-0.78172 -31.830332,5.19923 -31.980001,5.22133 z"
         id="path4275-2" />
      <path
         style="fill:#000000;fill-opacity:1;stroke:#131f67;stroke-width:0.755906;stroke-miterlimit:4;stroke-dasharray:none;stroke-opacity:0.941176"
         inkscape:connector-curvature="0"
         d="m 140.0942,852.3241 -0.91586,21.48273 c -1.76687,0.0562 -4.48734,-1.22853 -8.98364,-2.51683 -5.13122,-1.47025 -3.39132,-10.60243 -4.46745,-12.63053 z"
         id="path3225-3" />
      <path
         style="fill:#d40000;fill-opacity:1;stroke:#131f67;stroke-width:0.755906;stroke-miterlimit:4;stroke-dasharray:none;stroke-opacity:0.941176"
         inkscape:connector-curvature="0"
         d="m 151.37392,827.16667 c 4.57893,-0.81215 11.09381,1.84402 12.74952,5.15031 1.67614,3.34688 1.52647,8.56455 -0.63449,11.68495 -3.29934,4.76412 -18.48838,13.3446 -24.6174,14.64378 -4.82408,1.02274 -3.27563,-12.69031 -1.54197,-18.07575 0.94416,-2.93307 4.68144,-4.46777 7.02196,-6.70165 2.34072,-2.23388 3.65137,-6.10386 7.02196,-6.70164 z"
         id="path3223-3" />
      <path
         style="fill:#000000;fill-opacity:1;stroke:#131f67;stroke-width:2.39093;stroke-miterlimit:4;stroke-dasharray:none;stroke-opacity:0.941176"
         inkscape:connector-curvature="0"
         d="m 113.34481,824.52919 c 0,0 10.15058,-3.36687 14.81526,-1.34101 6.33598,2.75163 11.41419,11.23425 12.62128,17.69425 0.9299,4.97751 -12.19021,10.70061 -12.19021,10.70061 z"
         id="path3207-4" />
      <path
         style="fill:#131f67;fill-opacity:1;stroke:#131f67;stroke-width:0.755906;stroke-miterlimit:4;stroke-dasharray:none;stroke-opacity:1"
         inkscape:connector-curvature="0"
         d="m 157.71536,827.54345 c -2.01761,0.33063 -5.46018,4.62753 -5.46018,4.62753 0,0 0.95733,5.10938 3.0905,6.27632 2.06161,1.12802 5.06847,0.57086 7.15526,-0.51648 2.22609,-1.15995 3.8162,-3.99099 3.8369,-6.28501 0.0267,-2.95238 -5.02326,-4.69239 -8.62233,-4.10258 z"
         id="path3227-1" />
      <path
         style="fill:#d40000;fill-opacity:1;stroke:#131f67;stroke-width:0.756;stroke-miterlimit:4;stroke-dasharray:none;stroke-opacity:0.941176"
         inkscape:connector-curvature="0"
         d="m 95.236448,821.48595 c -6.569442,1.97575 -11.954789,4.27612 -16.482271,6.82411 l 5.572433,30.01683 c -8.021699,2.68102 4.442902,15.60855 3.435599,23.58655 8.499159,2.20193 12.221391,2.0961 18.208531,0.0546 5.03885,-2.33945 9.69105,-4.97605 14.77901,-7.34652 3.96037,1.71776 5.24542,4.42791 8.31441,5.7615 l 1.12057,-14.8894 c 0,0 -0.17687,-14.17461 -0.85943,-21.22695 -0.42383,-4.379 0.27218,-9.20435 -2.00587,-13.0573 -1.65513,-2.79949 -5.12343,-4.62536 -7.83422,-6.22958 -2.16085,-1.27849 -6.97558,-3.06346 -6.97558,-3.06346 z"
         id="path3199-1" />
      <path
         style="fill:#000000;fill-opacity:1;stroke:#000000;stroke-width:2.39093;stroke-miterlimit:4;stroke-dasharray:none;stroke-opacity:1"
         inkscape:connector-curvature="0"
         d="m 114.45953,830.21353 -3.56044,-0.37979 -0.40489,-2.96585 c -0.59664,-2.94691 -1.02293,-0.40338 0.38651,-0.64597 l 0.77925,-2.08788 3.93192,1.93746 z"
         id="path3197-3" />
      <path
         style="fill:#000000;fill-opacity:1;stroke:#000000;stroke-width:0.755906;stroke-miterlimit:4;stroke-dasharray:none;stroke-opacity:1"
         inkscape:connector-curvature="0"
         d="m 118.86384,823.02931 -3.65784,6.73317 -1.83032,0.63353 2.30326,-7.15523 z"
         id="path3195-8" />
      <path
         style="fill:#ffffff;fill-opacity:1;stroke:#131f67;stroke-width:0.755906;stroke-miterlimit:4;stroke-dasharray:none;stroke-opacity:1"
         inkscape:connector-curvature="0"
         d="m 90.278673,791.82815 c 0.26208,4.44059 -1.800508,11.9842 3.840912,12.91601 0,0 1.413981,8.98588 4.327532,11.62191 4.396133,3.97686 7.788233,5.91511 11.981683,9.41266 2.38504,1.98923 4.4277,2.61378 6.80681,2.26019 1.63852,-0.24351 4.386,-1.35421 3.93193,-2.83768 -1.61171,-5.26408 -5.63948,-9.96153 -5.82345,-15.40023 -0.10112,-2.99006 1.61288,-5.08112 1.60364,-8.07256 -0.004,-1.1582 -0.0457,-2.74492 -0.0166,-3.90295 0.0432,-1.72109 1.8253,-3.16906 1.78706,-4.89019 -0.0715,-3.21989 -5.58062,-6.0738 -5.58062,-6.0738 l -11.63089,0.49435 z"
         id="path3115-7" />
      <path
         sodipodi:nodetypes="ccccc"
         style="fill:#131f67;fill-opacity:1;stroke:#131f67;stroke-width:0.755906;stroke-miterlimit:4;stroke-dasharray:none;stroke-opacity:1"
         inkscape:connector-curvature="0"
         d="m 95.310503,816.33781 c -4.640121,0.96837 -6.123945,4.02686 -8.936861,7.66026 3.391385,-1.94888 5.152659,-2.99595 9.049892,-1.73949 0.379395,-3.2012 0.0797,-3.10577 -0.112736,-5.92055 z"
         id="path3082-5-4-4" />
      <path
         sodipodi:nodetypes="cscccsccccccc"
         style="fill:#e2cf00;fill-opacity:1;stroke:#131f67;stroke-width:0.755906;stroke-miterlimit:4;stroke-dasharray:none;stroke-opacity:1"
         inkscape:connector-curvature="0"
         d="m 91.451857,803.51636 c -0.248359,-1.95217 -0.465494,6.0151 -3.647395,8.63772 -0.961272,0.79233 -3.240018,1.9121 -3.462221,3.35847 3.987268,-1.90761 6.141874,-2.52147 6.459142,-3.15116 -1.129764,1.71138 -4.530209,3.78086 -3.312356,5.60462 0,0 3.508835,-3.19076 3.162259,-1.95125 -0.358601,1.28254 1.260671,4.228 1.260671,4.228 1.016149,-1.28685 0.288333,-5.11091 0.971536,-4.46603 0.940534,0.8875 0.650475,4.48733 1.941874,4.63514 2.118087,-0.80424 1.824908,-3.49784 3.207161,-4.32284 0,0 -3.918281,-7.16321 -3.433029,-10.41404 0.145415,-0.97434 -3.03231,-1.25178 -3.147683,-2.15859 z"
         id="path3123-2" />
      <path
         style="fill:#e2cf00;fill-opacity:1;stroke:#131f67;stroke-width:0.755906;stroke-miterlimit:4;stroke-dasharray:none;stroke-opacity:1"
         inkscape:connector-curvature="0"
         d="m 101.92087,788.5929 -5.754448,0.0653 -5.898663,5.43399 -0.218911,4.13337 c 0,0 0.910056,-3.12019 2.026649,-2.68297 1.104313,0.43239 3.125816,9.28948 3.125816,9.28948 0,0 1.390165,0.59767 1.016733,-0.55786 -0.468884,-1.4509 -0.433843,-4.25147 -0.433843,-4.25147 0,0 0.153555,-1.24077 0.253488,-3.13874 0.119166,-2.26359 0.413889,-6.77338 0.413889,-6.77338 l 1.20885,1.44724 2.035687,-0.97409 1.776853,0.81103 z m 14.4446,0.40996 1.42033,3.91854 0.31789,-0.63963 1.20655,2.82445 -0.7913,-4.76846 z"
         id="path3119-7" />
      <path
         style="fill:#131f67;fill-opacity:1;stroke:#131f67;stroke-width:0.755906;stroke-miterlimit:4;stroke-dasharray:none;stroke-opacity:1"
         inkscape:connector-curvature="0"
         d="m 102.47434,795.80102 -0.57147,0.99054 c 2.64087,-0.60712 5.49253,-1.82724 7.8007,-1.629 l 0.25978,-1.69487 c -2.57672,0.35191 -3.31477,0.14566 -6.30792,1.69291 z"
         id="path3126-7" />
      <path
         style="fill:#131f67;fill-opacity:1;stroke:#131f67;stroke-width:0.755906;stroke-miterlimit:4;stroke-dasharray:none;stroke-opacity:1"
         inkscape:connector-curvature="0"
         d="m 112.67832,793.40121 -0.49188,1.93934 c 1.25437,-0.1197 2.38831,-0.38142 4.92152,1.00608 l -0.16733,-0.76638 c -1.17264,-1.3783 -2.4587,-2.20711 -4.26205,-2.17904 z"
         id="path3128-9" />
      <path
         style="fill:#131f67;fill-opacity:1;stroke:#131f67;stroke-width:0.755906;stroke-miterlimit:4;stroke-dasharray:none;stroke-opacity:1"
         inkscape:connector-curvature="0"
         d="m 107.95829,797.37916 c -1.19353,0.22121 -2.73523,0.47272 -3.60885,1.49347 -0.19956,0.23316 -0.35972,1.19918 -0.35972,1.19918 0,0 1.6094,0.097 2.40978,0.0326 0.57973,-0.0466 1.71608,-0.35621 1.71608,-0.35621 0,0 0.39441,-0.85555 0.21534,-1.47605 -0.0598,-0.20711 -0.14648,-0.93492 -0.37265,-0.89297 z"
         id="path3130-3" />
      <path
         style="fill:#131f67;fill-opacity:1;stroke:#131f67;stroke-width:0.755906;stroke-miterlimit:4;stroke-dasharray:none;stroke-opacity:0.941176"
         inkscape:connector-curvature="0"
         d="m 111.60257,795.52858 c 0,0 -1.05816,1.21813 -1.24993,2.22801 -0.46892,2.46941 1.06705,7.57513 1.06705,7.57513 0,0 1.3892,1.21737 1.81045,2.12592 0.15689,0.33838 -0.27765,0.90362 -0.67401,0.91076 -1.50663,0.0271 -3.73455,-0.25492 -3.73455,-0.25492 0,0 0.98095,1.13042 1.68319,1.35145 0.93979,0.29584 2.21155,0.42885 2.97139,-0.16422 0.77629,-0.6059 0.56796,-1.15962 0.61489,-2.10082 0.0334,-0.66998 -1.81142,-4.04968 -2.24106,-6.4042 0.44001,-0.10775 1.51442,-0.35326 2.05764,-0.82233 l -2.18735,-1.42797 z"
         id="path3138-1" />
      <path
         style="fill:#131f67;fill-opacity:1;stroke:#131f67;stroke-width:0.755906;stroke-miterlimit:4;stroke-dasharray:none;stroke-opacity:1"
         inkscape:connector-curvature="0"
         d="m 111.21281,798.00157 c -0.25753,0.51297 -0.21978,1.62314 -0.21978,1.62314 0,0 1.20702,0.26717 1.9377,0.38758 0.3466,0.0571 1.47299,0.27286 1.47299,0.27286 0,0 -0.0528,-0.52115 -0.22017,-0.8341 -0.46495,-0.86928 -1.34515,-1.8946 -2.26206,-2.01803 -0.41868,-0.0564 -0.57673,0.30574 -0.70871,0.56858 z"
         id="path3132-9" />
      <path
         style="fill:#000000;fill-opacity:1;stroke:#131f67;stroke-width:0.755906;stroke-miterlimit:4;stroke-dasharray:none;stroke-opacity:1"
         inkscape:connector-curvature="0"
         d="m 110.4177,812.75114 c -1.36394,-0.2539 -4.95817,-1.88496 -5.65078,-0.76371 -0.90277,1.46137 1.57713,4.59746 2.71212,5.91149 1.11352,1.28914 3.02573,2.15262 4.75393,1.76265 0.76593,-0.1728 1.5414,-0.84291 1.65731,-1.56756 0.18416,-1.15136 -0.59392,-1.96665 -0.82411,-3.11084 -0.19621,-0.97539 0.82006,-2.20765 0.22902,-3.03396 -0.40204,-0.5621 -2.87781,0.80207 -2.87781,0.80207 z"
         id="path3134-8" />
      <path
         style="fill:#ffffff;fill-opacity:1;stroke:#131f67;stroke-width:0.755906;stroke-miterlimit:4;stroke-dasharray:none;stroke-opacity:1"
         inkscape:connector-curvature="0"
         d="m 107.72443,817.21455 c 0.002,0.8874 2.2724,2.48224 3.89112,2.25689 0.87934,-0.1224 1.73039,-0.28687 1.67282,-1.57861 -0.0162,-0.36475 0.74718,-0.58252 -0.45446,-1.07991 0,0 -0.80276,0.42352 -0.95531,0.83153 0.23041,0.267 -0.47484,0.29498 -0.93668,0.36272 -1.61092,0.2526 -3.21749,-0.79262 -3.21749,-0.79262 z"
         id="path3136-6" />
      <path
         style="fill:#131f67;fill-opacity:1;stroke:#131f67;stroke-width:0.755906;stroke-miterlimit:4;stroke-dasharray:none;stroke-opacity:1"
         inkscape:connector-curvature="0"
         d="m 91.31544,797.62407 c 0.279164,-0.14087 0.691478,-0.002 0.929974,0.19326 0.905299,0.74008 1.233441,3.16047 1.233441,3.16047 l -0.668676,0.49685 c 0,0 -0.373486,-2.59447 -1.319659,-2.61961 -0.30705,-0.008 -0.709209,0.6047 -0.552642,0.53456 0.156599,-0.0702 -0.166349,-1.49112 0.377525,-1.76555 z"
         id="path3159-5" />
      <path
         style="fill:#131f67;fill-opacity:0.941176;stroke:#131f67;stroke-width:0.755906;stroke-miterlimit:4;stroke-dasharray:none;stroke-opacity:1"
         inkscape:connector-curvature="0"
         d="m 86.14719,826.77902 c -2.131687,-0.73824 -6.55736,-0.98826 -8.57633,-0.0138 -2.231197,1.07698 -3.443357,3.6863 -3.942056,5.97706 -1.459233,6.70201 2.927388,13.45292 3.311148,20.28173 0.543173,9.66627 -1.443643,29.00714 -1.443643,29.00714 1.514305,3.96889 3.326312,5.52565 5.17137,6.8154 l 0.792345,-8.47252 0.458597,-22.27469 2.605249,-4.87063 12.754975,7.02046 4.695075,-2.10328 -4.503702,-3.10667 -0.189471,-1.94449 -2.291023,-1.15527 c 0,0 3.429558,-11.14477 1.458762,-15.92447 -2.053892,-4.98149 -4.923088,-7.37333 -10.301418,-9.23586 z"
         id="path3201-0" />
      <path
         style="fill:#131f67;fill-opacity:1;stroke:#131f67;stroke-width:0.755906;stroke-miterlimit:4;stroke-dasharray:none;stroke-opacity:1"
         inkscape:connector-curvature="0"
         d="m 112.30024,831.25848 2.19893,18.4716 -0.87958,-18.4716 z"
         id="path4302-2" />
      <path
         style="fill:#131f67;fill-opacity:1;stroke:#131f67;stroke-width:0.755906;stroke-miterlimit:4;stroke-dasharray:none;stroke-opacity:1"
         inkscape:connector-curvature="0"
         d="m 115.34429,834.36537 c -2.44038,0.0124 -4.90204,0.34696 -7.23126,0.9754 -2.47125,0.66676 -6.57256,0.86123 -6.90074,3.23351 -0.061,0.44051 0.6166,0.794 1.08287,0.89105 2.59173,0.53953 5.03573,-1.65693 7.6526,-2.0786 2.71422,-0.43736 5.48941,-0.53956 8.24308,-0.46091 1.92792,0.0551 4.28934,1.82819 5.74315,0.65002 0.3907,-0.31657 0.33053,-1.04321 0.0224,-1.43061 -1.27827,-1.60701 -4.04807,-1.49093 -6.18904,-1.67555 -0.80497,-0.0694 -1.60944,-0.10845 -2.42292,-0.10432 z m 1.00227,6.04119 c -1.65033,-0.0379 -3.321,0.19233 -4.89736,0.61343 -2.20637,0.58952 -5.44381,0.91533 -6.10758,2.95807 -0.12084,0.37182 0.20828,0.8916 0.59969,1.0276 1.76715,0.61408 3.47797,-1.42703 5.31987,-1.80609 2.03425,-0.41866 4.14239,-0.60684 6.22334,-0.50609 1.78698,0.0865 3.76175,1.83276 5.27699,0.94779 0.36185,-0.21136 0.51604,-0.80236 0.32601,-1.1582 -0.8173,-1.53053 -3.29092,-1.68382 -5.10745,-1.94713 -0.54013,-0.0783 -1.08346,-0.11678 -1.63357,-0.12941 z"
         id="path3378-6" />
      <rect
         style="fill:#000000;fill-opacity:1;stroke:#000000;stroke-width:0.756006;stroke-linejoin:round;stroke-miterlimit:4;stroke-dasharray:none;stroke-opacity:1"
         x="279.34872"
         y="785.841"
         width="2.0363748"
         height="68.489738"
         transform="matrix(0.98893403,0.14835591,-0.17107023,0.98525884,0,0)"
         rx="0.27058026"
         ry="2.1503823"
         id="rect10679-0" />
      <path
         style="fill:#ffffff;fill-opacity:1;stroke:#131f67;stroke-width:0.755906;stroke-miterlimit:4;stroke-dasharray:none;stroke-opacity:0.941176"
         inkscape:connector-curvature="0"
         d="m 119.80317,855.62095 c 0,0 4.25543,-2.13346 6.42095,-3.57251 1.00196,-0.66586 2.77624,-1.27063 3.32159,-2.29283 0.5993,-1.12328 -0.11266,-2.12556 0.53164,-3.22735 0.42585,-0.72824 1.7222,-1.44199 2.54246,-1.9534 1.30141,-0.81142 3.86141,-1.54115 3.86141,-1.54115 0,0 0.41252,1.66889 0.0663,2.51488 -0.25442,0.62161 -1.99695,1.24004 -1.63256,1.81522 0.94217,1.48713 3.97909,0.40837 5.56815,-0.48718 1.02382,-0.57705 1.93517,-2.79905 1.93517,-2.79905 0,0 -3.37768,0.0825 -3.253,-0.66828 0.13759,-0.8286 2.52776,-1.44333 2.52776,-1.44333 0,0 3.50374,0.92561 3.97402,2.15903 0.37355,0.97971 -0.43454,1.80207 -0.44616,2.83768 -0.0109,0.97112 0.83967,1.63697 0.7729,2.50045 -0.10269,1.3282 -1.11971,2.45423 -1.76781,3.64247 -0.7591,1.39177 -1.12212,3.14895 -2.47943,4.07576 -2.72721,1.86236 -6.56594,2.26964 -9.95414,2.01014 -1.77704,-0.13611 -3.22377,-1.57647 -4.98896,-1.3512 -1.91802,0.24482 -4.57464,2.7859 -4.57464,2.7859 z"
         id="path3209-2" />
      <path
         style="fill:#131f67;fill-opacity:1;stroke:#131f67;stroke-width:0.755906;stroke-miterlimit:4;stroke-dasharray:none;stroke-opacity:0.941176"
         inkscape:connector-curvature="0"
         d="m 113.17721,855.96512 c 0,0 2.66905,-1.39297 4.09796,-1.88652 0.78339,-0.27058 1.63093,-0.81345 2.42815,-0.58039 3.64077,1.06427 6.43146,5.24742 6.79005,8.77938 0.0709,0.69835 -0.54669,1.38167 -1.01982,1.92815 -1.44683,1.6711 -4.56334,3.51552 -4.56334,3.51552 z"
         id="path3205-4" />
      <path
         style="fill:#d40000;fill-opacity:1;stroke:#131f67;stroke-width:0.755906;stroke-miterlimit:4;stroke-dasharray:none;stroke-opacity:0.941176"
         inkscape:connector-curvature="0"
         d="m 81.918269,858.09901 8.317138,16.5679 c 0,0 6.373786,3.98591 9.608425,4.32031 8.506948,0.87964 15.771338,-2.84789 21.685988,-8.5986 0.9852,-0.95786 1.56069,-3.70152 1.56069,-3.70152 0.16444,-0.39001 -1.80815,-7.853 -4.76212,-9.52642 -2.11555,-1.19846 -4.3591,-2.5119 -4.3591,-2.5119 -4.49513,-2.4175 -11.7872,1.38746 -16.691186,5.59991 L 84.52313,853.22823 Z"
         id="path3203-8" />
      <path
         style="fill:#ffffff;fill-opacity:1;stroke:#131f67;stroke-width:0.755906;stroke-miterlimit:4;stroke-dasharray:none;stroke-opacity:1"
         inkscape:connector-curvature="0"
         d="m 156.87347,825.18132 c 0,0 0.15166,1.54785 0.62604,2.15482 0.99783,1.27672 4.15837,1.28273 4.15837,1.28273 0,0 -3.72823,0.3899 -4.64285,1.57252 -0.91083,1.17777 0.53686,3.30963 1.4751,4.10837 1.57347,1.33928 3.92296,0.72581 5.60829,-0.0264 2.94103,-1.31269 6.2666,-6.96757 6.2666,-6.96757 0,0 1.77918,-4.8844 1.2129,-7.24037 -0.42363,-1.76233 -2.69595,-2.76464 -4.45304,-3.53523 -2.13051,-0.93446 -5.93179,-0.38682 -5.93179,-0.38682 0,0 -0.39105,2.08549 0.28662,2.76344 0.80794,0.80827 3.50989,0.55851 3.50989,0.55851 2.83497,0.62799 2.34216,1.89626 2.70195,3.00052 0,0 -3.07309,-1.74442 -4.80656,-2.00694 -1.27424,-0.19292 -4.62374,0.3463 -4.62374,0.3463 0,0 0.55478,1.6898 1.06256,2.36514 0.64229,0.85424 2.62724,0.75096 2.62724,0.75096 l 2.17627,1.46031 c 0,0 -2.52858,-0.74588 -3.83647,-0.76733 -1.15701,-0.019 -3.41755,0.56702 -3.41755,0.56702 z"
         id="path3221-6" />
      <path
         style="fill:#000000;fill-opacity:1;stroke:#000000;stroke-width:0.755906;stroke-miterlimit:4;stroke-dasharray:none;stroke-opacity:1"
         inkscape:connector-curvature="0"
         d="m 93.860587,885.64394 c -0.465337,0.57934 -0.604365,1.72388 -0.06332,4.04642 14.542033,0.65785 25.710673,-1.05984 30.838383,-3.12425 0.25653,-1.4764 0.45692,-2.93872 -0.714,-4.05692 -3.92725,1.57806 -16.49747,3.7968 -30.061205,3.13475 z"
         id="path3235-5" />
      <path
         style="fill:#e2cf00;fill-opacity:1;stroke:#000000;stroke-width:0.755906;stroke-miterlimit:4;stroke-dasharray:none;stroke-opacity:1"
         inkscape:connector-curvature="0"
         d="m 111.60647,884.36868 c 0.14197,1.76942 0.0696,3.99642 0.76686,5.64738 0.32319,0.7653 1.35602,1.43112 2.23396,1.33109 1.61993,-0.18456 3.73003,-0.36066 5.2996,-0.79559 0.73377,-0.20334 0.87837,-1.23099 0.96337,-1.93829 0.21338,-1.7758 -0.0248,-3.48951 -0.54722,-4.77716 -0.19027,-0.46902 -0.38988,-1.12154 -0.91361,-1.24099 -2.22796,-0.50807 -5.0521,-0.15122 -7.0087,0.7002 -0.42309,0.18415 -0.82907,0.64028 -0.7943,1.07332 z"
         id="path3233-0" />
      <path
         style="fill:#ffffff;fill-opacity:1;stroke:#000000;stroke-width:1.5;stroke-miterlimit:4;stroke-dasharray:none;stroke-opacity:1"
         inkscape:connector-curvature="0"
         d="m 77.954387,827.17754 c -1.878423,11.24367 4.510718,17.06278 6.569054,26.05193 0,0 -8.292585,-16.2922 -7.313112,-24.52633 0.153489,-1.29012 0.744058,-1.52553 0.744058,-1.52553 z"
         id="path3361-9" />
      <path
         style="fill:#000000;fill-opacity:1;stroke:#000000;stroke-width:0.25;stroke-miterlimit:4;stroke-dasharray:none;stroke-opacity:1"
         inkscape:connector-curvature="0"
         d="m 78.550722,827.69923 c -0.740666,-0.0123 -1.699364,0.23819 -2.220241,0.4708 -0.879616,0.39279 -1.123999,1.73765 -1.123999,1.73765 1.928311,-1.43025 3.820529,-0.7311 5.720154,-0.33403 0,0 -0.951722,-1.41507 -1.723529,-1.75826 -0.173774,-0.0773 -0.405548,-0.11212 -0.652423,-0.11614 z m -0.317554,4.30619 c -1.023596,0.0128 -2.097857,0.48709 -2.63686,1.27004 -0.178877,0.25982 -0.183493,1.09046 0.100874,0.93145 0.682706,-0.38175 2.639939,-0.97746 4.069121,-0.57101 0.639522,0.18188 0.641471,-0.72117 0.133056,-1.12502 -0.456102,-0.36232 -1.052047,-0.51314 -1.666156,-0.50546 z m 2.364338,5.07604 c -1.364909,0.002 -3.292052,0.87733 -4.098354,1.21451 -0.465531,0.19465 0.03641,1.42272 0.537211,1.33084 1.057347,-0.19394 3.342056,-1.12278 4.524363,-1.36971 0.418525,-0.0874 -0.0096,-1.01594 -0.425115,-1.1147 -0.167517,-0.0398 -0.342844,-0.0612 -0.537832,-0.0609 z m 1.381591,3.93593 c -1.04363,0.008 -1.85114,1.11444 -3.453531,1.81344 -0.57942,0.25275 0.308023,1.22041 0.308023,1.22041 0,0 1.748668,-0.55014 3.661505,-1.57814 0.590177,-0.31715 0.370121,-1.34496 -0.304659,-1.43499 -0.07206,-0.01 -0.141771,-0.0213 -0.211338,-0.0207 z m 1.56778,4.3319 c -1.365339,0.065 -3.173407,1.54165 -3.762454,1.88083 -0.287236,0.16539 -0.139782,0.90819 0.197065,0.93275 0.843991,0.0616 2.798572,-1.31634 4.312723,-1.37257 0.573185,-0.0213 -0.174257,-1.46829 -0.747137,-1.44101 z m 0.924281,4.87751 c -0.91138,0.0732 -1.9363,0.52091 -2.679537,1.53775 -0.286118,0.39145 0.426477,1.78761 0.306341,1.32772 -0.157735,-0.60394 1.322072,-1.21556 3.547774,-1.68697 0.507859,-0.10757 0.201791,-1.03822 -0.30942,-1.131 -0.262208,-0.0476 -0.561375,-0.0719 -0.865192,-0.0475 z"
         id="path3363-0" />
      <path
         style="fill:#000000;fill-opacity:1;stroke:#000000;stroke-width:0.755906;stroke-miterlimit:4;stroke-dasharray:none;stroke-opacity:1"
         inkscape:connector-curvature="0"
         d="m 81.918269,858.09901 -0.458593,22.27469 c 1.972509,-3.07588 5.423931,-4.33009 8.775888,-5.70715 z"
         id="path3386-0" />
      <path
         style="fill:#ffffff;fill-opacity:1;stroke:#000000;stroke-width:2.39093;stroke-miterlimit:4;stroke-dasharray:none;stroke-opacity:1"
         inkscape:connector-curvature="0"
         d="M 91.549298,793.39542"
         id="path3009-6" />
      <path
         style="fill:#000000;fill-opacity:1;stroke:#000000;stroke-width:0.755906;stroke-miterlimit:4;stroke-dasharray:none;stroke-opacity:1"
         inkscape:connector-curvature="0"
         d="m 71.329714,773.60883 c -2.451761,4.76701 -0.16767,10.57888 1.180395,16.18387 1.33326,-4.59602 2.889037,-9.53294 6.87385,-11.69183 -1.986891,-3.15747 -5.302329,-3.27174 -8.05444,-4.49204 z"
         id="path3082-1" />
      <path
         style="fill:#000000;fill-opacity:1;stroke:#000000;stroke-width:0.755906;stroke-miterlimit:4;stroke-dasharray:none;stroke-opacity:1"
         inkscape:connector-curvature="0"
         d="m 96.206958,782.94334 c -0.719113,-7.55846 -0.480227,-15.04628 1.340431,-22.41707 l 1.962533,-0.92496 6.631028,6.27667 c -0.0119,5.20358 -1.16235,10.33216 0.38984,15.63935 z"
         id="path3084-8" />
      <path
         style="fill:#000000;fill-opacity:1;stroke:#000000;stroke-width:0.755906;stroke-miterlimit:4;stroke-dasharray:none;stroke-opacity:1"
         inkscape:connector-curvature="0"
         d="m 130.52554,761.86667 c 0.60763,6.25132 0.65215,12.07151 4.22112,18.23226 -4.47447,-2.83673 -8.53579,-6.0988 -11.52138,-10.46004 1.40705,-3.47872 4.89932,-5.05214 7.30026,-7.77222 z"
         id="path3088-93" />
      <path
         style="fill:#131f67;fill-opacity:1;stroke:#131f67;stroke-width:0.756;stroke-miterlimit:4;stroke-dasharray:none;stroke-opacity:1"
         inkscape:connector-curvature="0"
         d="m 105.93543,781.87277 c 3.39576,-6.73534 5.96999,-13.66196 11.27153,-19.95313 5.0751,-0.79429 8.32104,-0.25629 13.3482,-0.17137 -5.20411,6.4792 -10.51735,11.58676 -12.3317,20.0995 z"
         id="path3086-4" />
      <path
         style="fill:#131f67;fill-opacity:1;stroke:#131f67;stroke-width:0.755906;stroke-miterlimit:4;stroke-dasharray:none;stroke-opacity:1"
         inkscape:connector-curvature="0"
         d="m 89.900603,794.27651 c 9.256856,-5.1496 18.973237,-5.85353 28.953887,-3.99933 -0.15638,-1.79815 -0.42067,-3.6258 0.21352,-5.20792 -10.4316,-3.16642 -20.944267,-3.07563 -30.683648,4.23844 1.031309,1.58364 1.403844,3.25825 1.516175,4.96881 z"
         id="path3072-4" />
      <path
         style="fill:#d40000;fill-opacity:1;stroke:#d40000;stroke-width:0.755906;stroke-miterlimit:4;stroke-dasharray:none;stroke-opacity:1"
         inkscape:connector-curvature="0"
         d="m 97.649079,761.166 c 1.538821,5.30429 5.178771,9.29565 10.407041,12.29396 0.0699,-4.32357 -0.51698,-8.52107 2.77235,-13.46053 -2.37163,-1.63408 -4.23322,-2.00995 -7.39419,-2.24809 l -5.887748,2.77489 z"
         id="path3090-6" />
      <path
         style="fill:#d40000;fill-opacity:1;stroke:#d40000;stroke-width:1;stroke-miterlimit:4;stroke-dasharray:none;stroke-opacity:1"
         inkscape:connector-curvature="0"
         d="m 88.688443,789.18633 c 9.618943,-3.90078 19.465517,-5.04236 30.053407,-4.12504 -0.24982,-1.23653 0.18462,-2.32228 0.90896,-3.34412 -11.2614,-1.37522 -22.644021,-1.10382 -32.84761,4.61594 1.212901,0.68383 1.525958,1.77903 1.885475,2.85297 z"
         id="path3074-06" />
      <path
         style="fill:#ffffff;fill-opacity:1;stroke:#131f67;stroke-width:0.755906;stroke-miterlimit:4;stroke-dasharray:none;stroke-opacity:1"
         inkscape:connector-curvature="0"
         d="m 161.2505,817.0479 2.39112,0.12939 0.35867,-0.90573 h -2.51066 z"
         id="path15561-1" />
      <path
         style="fill:#ffffff;fill-opacity:1;stroke:#131f67;stroke-width:0.755906;stroke-miterlimit:4;stroke-dasharray:none;stroke-opacity:1"
         inkscape:connector-curvature="0"
         d="m 158.85347,822.17068 1.30219,-0.27541 0.0766,-1.23936 -1.68521,0.13771 z"
         id="path15563-8" />
      <path
         style="fill:#ffffff;fill-opacity:1;stroke:#131f67;stroke-width:0.755906;stroke-miterlimit:4;stroke-dasharray:none;stroke-opacity:1"
         inkscape:connector-curvature="0"
         d="m 157.19308,826.40223 1.11515,0.51757 0.23896,-1.16451 -0.15931,-0.64694 -1.27444,0.38816 z"
         id="path15565-4" />
      <path
         style="fill:#ffffff;fill-opacity:1;stroke:#000000;stroke-width:2.39093;stroke-miterlimit:4;stroke-dasharray:none;stroke-opacity:1"
         inkscape:connector-curvature="0"
         d="m 112.88879,1001.5877 c 0.005,0.032 0.0278,0.3183 -0.10373,0.5173 -0.13442,0.2035 0.0832,0.1626 0.0832,0.1626 0.16398,0.029 0.10448,-0.3372 0.2895,-0.536 z"
         id="path4558-9" />
      <path
         style="opacity:0.25;fill:#000000;fill-opacity:1;stroke:#000000;stroke-width:0.755906;stroke-miterlimit:4;stroke-dasharray:none;stroke-opacity:1"
         inkscape:connector-curvature="0"
         d="m 77.038444,1005.7432 c 2.570212,3.1185 32.534246,9.4449 38.155786,6.2908 1.98549,-1.0918 3.45119,-3.0588 4.36105,-4.6623 l -0.38422,2.0511 c -0.76425,0.6797 -0.96797,2.5224 -2.70106,3.4384 -1.40988,0.6228 -3.85669,0.8416 -8.43484,1.0727 -5.99494,-1.0454 -13.023133,-1.8313 -18.902309,-2.6303 -5.338183,-0.7254 -9.418608,-1.5259 -11.164351,-2.899 -0.764168,-0.6741 -1.058869,-1.4586 -0.929661,-2.6613 z"
         id="path4573-6" />
      <path
         style="opacity:0.13;fill:#ffffff;fill-opacity:1;stroke:#000000;stroke-width:12.394;stroke-miterlimit:4;stroke-dasharray:none;stroke-opacity:1;filter:url(#filter4594-85)"
         inkscape:connector-curvature="0"
         transform="matrix(0.06684425,0,0,0.05564779,132.2288,956.64921)"
         d="m -287,898.27 c 52.987,-11.463 33.102,14.3 70.046,7.1308 33.82,-15.085 28.753,-17.592 27.788,-62.464 -5.0606,-48.954 -41.301,-18.35 -52.666,15.709 -15.58,32.766 -23.246,31.868 -45.169,39.625 z"
         id="path4586-3" />
      <path
         style="opacity:0.25;fill:#ffffff;fill-opacity:1;stroke:#000000;stroke-width:0.755906;stroke-miterlimit:4;stroke-dasharray:none;stroke-opacity:1"
         inkscape:connector-curvature="0"
         d="m 108.00117,1006.9061 c -1.69391,0.116 -2.0431,1.2116 -2.20275,2.3145 -0.16032,0.6628 -0.53362,0.9081 -0.3464,0.3106 0.19093,-1.4 0.17321,-2.6017 2.17604,-2.7508 z"
         id="path4588-7" />
      <path
         style="opacity:0.25;fill:#ffffff;fill-opacity:1;stroke:#000000;stroke-width:0.755906;stroke-miterlimit:4;stroke-dasharray:none;stroke-opacity:1"
         inkscape:connector-curvature="0"
         d="m 101.49993,1004.8737 c -2.201026,0.2735 -2.569974,1.6217 -2.668001,2.6337 0.0077,0.446 -0.218585,0.6901 -0.274052,-0.1526 0.173664,-1.8372 1.607853,-2.4052 2.537313,-2.6662 z"
         id="path4794-8" />
      <path
         style="fill:#e2cf00;fill-opacity:1;stroke:#131f67;stroke-width:0.755906;stroke-linejoin:round;stroke-miterlimit:4;stroke-dasharray:none;stroke-opacity:1"
         inkscape:connector-curvature="0"
         d="m 115.15117,1001.3512 c 0,1.1172 -0.97433,2.0228 -2.17618,2.0228 -1.20192,0 -2.17618,-0.9056 -2.17618,-2.0228 0,-1.1172 0.97433,-2.02285 2.17618,-2.02285 1.20192,0 2.17618,0.90575 2.17618,2.02285 z"
         id="path9399-3-8-8" />
      <path
         style="opacity:0.25;fill:#000000;fill-opacity:1;stroke:#000000;stroke-width:0.755906;stroke-miterlimit:4;stroke-dasharray:none;stroke-opacity:1"
         inkscape:connector-curvature="0"
         d="m 130.40471,1000.211 c 2.77725,2.8258 32.56192,6.7281 37.7746,3.2626 1.84315,-1.2027 3.10348,-3.2133 3.85272,-4.83154 l -0.19781,2.01194 c -0.68707,0.7138 -0.72675,2.5109 -2.33873,3.5249 -1.32196,0.7065 -3.69066,1.099 -8.13824,1.661 -5.93998,-0.5677 -12.86567,-0.8082 -18.67195,-1.1461 -5.27154,-0.3068 -9.32234,-0.7792 -11.14409,-1.978 -0.80389,-0.5954 -1.15919,-1.3323 -1.13694,-2.505 z"
         id="path4573-2-2" />
      <path
         style="opacity:0.13;fill:#ffffff;fill-opacity:1;stroke:#000000;stroke-width:12.7727;stroke-miterlimit:4;stroke-dasharray:none;stroke-opacity:1;filter:url(#filter4594-8-6)"
         inkscape:connector-curvature="0"
         transform="matrix(0.06464209,-0.00494236,0.00476212,0.05381822,180.31768,949.05923)"
         d="m -287,898.27 c 52.987,-11.463 33.102,14.3 70.046,7.1308 33.82,-15.085 28.753,-17.592 27.788,-62.464 -5.0606,-48.954 -41.301,-18.35 -52.666,15.709 -15.58,32.766 -23.246,31.868 -45.169,39.625 z"
         id="path4586-4-9" />
      <path
         style="opacity:0.25;fill:#ffffff;fill-opacity:1;stroke:#000000;stroke-width:2.39093;stroke-miterlimit:4;stroke-dasharray:none;stroke-opacity:1"
         inkscape:connector-curvature="0"
         d="m 161.18424,999.45743 c -1.62819,0.23737 -1.8721,1.32277 -1.93213,2.40117 -0.0983,0.6528 -0.43836,0.9176 -0.30842,0.326 0.0648,-1.3681 -0.0551,-2.52888 1.86899,-2.82114 z"
         id="path4588-6-1" />
      <path
         style="opacity:0.25;fill:#ffffff;fill-opacity:1;stroke:#000000;stroke-width:0.755906;stroke-miterlimit:4;stroke-dasharray:none;stroke-opacity:1"
         inkscape:connector-curvature="0"
         d="m 154.72588,997.96842 c -2.10514,0.42728 -2.34656,1.75837 -2.35475,2.74418 0.0455,0.4307 -0.15233,0.6836 -0.27809,-0.1273 0.0107,-1.78947 1.34909,-2.44482 2.22562,-2.76599 z"
         id="path4794-6-3" />
      <path
         style="fill:#d40000;fill-opacity:1;stroke:#d40000;stroke-width:0.755906;stroke-miterlimit:4;stroke-dasharray:none;stroke-opacity:1"
         inkscape:connector-curvature="0"
         d="m 138.89373,816.86313 c -1.93875,1.68498 -0.795,3.99679 -1.0066,6.54912 1.36546,-1.76356 2.46689,-4.22285 4.75004,-4.59819 -0.8588,-1.26446 -2.58775,-1.06357 -3.74328,-1.95104 z"
         id="path3082-2-5" />
      <path
         style="fill:#131f67;fill-opacity:1;stroke:#131f67;stroke-width:0.755906;stroke-miterlimit:4;stroke-dasharray:none;stroke-opacity:1"
         inkscape:connector-curvature="0"
         d="m 147.35547,817.92826 c -0.59742,2.98133 -0.64595,3.60697 0.26979,6.92953 -1.85581,-1.89615 -3.87962,-3.85368 -4.76095,-6.26508 1.21669,-1.43315 2.8814,0.28816 4.49123,-0.66434 z"
         id="path3088-9-9" />
      <path
         style="fill:#131f67;fill-opacity:1;stroke:#131f67;stroke-width:0.755906;stroke-miterlimit:4;stroke-dasharray:none;stroke-opacity:1"
         inkscape:connector-curvature="0"
         d="m 135.26894,814.93212 c -2.29383,1.37902 -1.64452,2.93071 -2.38534,5.39813 1.73499,-1.53557 3.19769,-3.07755 5.56542,-3.12725 -0.15026,-1.63538 -2.20485,-1.24212 -3.18023,-2.27095 z"
         id="path3082-5-8" />
      <path
         style="fill:#d40000;fill-opacity:1;stroke:#d40000;stroke-width:1;stroke-miterlimit:4;stroke-dasharray:none;stroke-opacity:1"
         inkscape:connector-curvature="0"
         d="m 149.64728,816.81966 c 0.64342,0.84178 2.02964,1.22794 2.86339,4.24749 -2.18396,-2.31261 -2.87423,-1.61901 -6.21126,-2.73497 1.57675,-1.04151 2.04665,-0.91587 3.34787,-1.5126 z"
         id="path3082-5-5-4" />
      <path
         style="fill:#d40000;fill-opacity:1;stroke:#d40000;stroke-width:0.755906;stroke-miterlimit:4;stroke-dasharray:none;stroke-opacity:1"
         inkscape:connector-curvature="0"
         d="m 146.67339,815.08791 c -3.88909,1.04963 -2.90763,1.4851 -6.37378,-0.84653 -0.0676,0.55673 -4.72509,0.41693 -5.17722,0.76389 4.2488,3.97795 10.67949,5.52746 14.50969,1.81098 -0.42009,-0.43848 -0.93138,0.0511 -2.95853,-1.72831 z"
         id="path3074-0-0" />
      <path
         style="fill:#ffffff;fill-opacity:1;stroke:#000000;stroke-width:0.377953;stroke-miterlimit:4;stroke-dasharray:none;stroke-opacity:1"
         inkscape:connector-curvature="0"
         d="m 148.4507,810.18514 c -0.76947,4.43149 -3.30255,7.73779 -5.6577,7.38449 -2.35515,-0.35331 -3.64066,-4.23214 -2.87115,-8.66393 0.76946,-4.4315 3.30255,-7.7378 5.6577,-7.38449 2.35515,0.3533 3.64065,4.23213 2.87115,8.66393 z"
         id="path13374-7" />
      <path
         style="fill:#ffffff;fill-opacity:1;fill-rule:evenodd;stroke:#131f67;stroke-width:0.377953;stroke-miterlimit:4;stroke-dasharray:none;stroke-opacity:1"
         inkscape:connector-curvature="0"
         d="m 143.92556,810.1825 c -0.43423,0.21535 -0.53619,0.29424 -0.80244,0.5647 -0.0976,0.10515 -0.28943,0.35634 -0.3607,0.53347 -0.0712,0.1771 -0.14689,0.43823 -0.17119,0.57887 -0.0823,0.47663 0.029,0.80005 0.20905,0.81638 0.16218,0.007 0.39163,-0.11704 0.75956,-0.42155"
         id="path584-7-6" />
      <path
         style="fill:#ffffff;fill-opacity:1;fill-rule:evenodd;stroke:#131f67;stroke-width:0.377953;stroke-linejoin:bevel;stroke-miterlimit:4;stroke-dasharray:none;stroke-opacity:1"
         inkscape:connector-curvature="0"
         d="m 144.2023,810.2296 c 0.3393,0.33139 0.4094,0.43609 0.57061,0.77066 0.0571,0.12836 0.15413,0.42287 0.16184,0.61184 0.008,0.18893 -0.009,0.45891 -0.0334,0.59951 -0.0832,0.47649 -0.29832,0.75096 -0.47473,0.71379 -0.15629,-0.0409 -0.33213,-0.22562 -0.57833,-0.62224"
         id="path585-6-3" />
      <path
         style="fill:#ffffff;fill-opacity:1;stroke:#131f67;stroke-width:0.377953;stroke-linecap:round;stroke-linejoin:round;stroke-miterlimit:4;stroke-dasharray:none;stroke-opacity:1"
         inkscape:connector-curvature="0"
         d="m 139.15877,808.54857 c -0.64354,-0.80425 -0.96918,-2.08132 -0.81877,-3.3851 0.16696,-1.43655 1.21964,-2.73 2.56904,-3.35495 1.50893,-0.68321 3.81702,-0.58854 5.21424,-0.31104 0.95406,0.14376 2.99969,0.9225 3.65979,1.55441 1.16165,1.0869 1.64823,2.45527 1.44731,3.9015 -0.17865,1.45623 -1.02473,2.45886 -1.94601,3.02567"
         id="path573-6-6" />
      <path
         style="fill:#ffffff;fill-opacity:1;stroke:#131f67;stroke-width:0.377953;stroke-miterlimit:4;stroke-dasharray:none;stroke-opacity:1"
         inkscape:connector-curvature="0"
         d="m 139.6031,811.48312 c 0.16866,0.66404 0.35659,1.31515 0.27351,1.95727 -0.21662,0.4954 -0.2833,1.10832 -0.2289,1.6127 0.0619,0.69028 0.61711,1.58118 1.26346,1.94739 0.66692,0.3455 1.09901,0.47369 1.8905,0.59241"
         id="path613-8-1" />
      <path
         style="fill:#ffffff;fill-opacity:1;stroke:#131f67;stroke-width:0.377953;stroke-miterlimit:4;stroke-dasharray:none;stroke-opacity:1"
         inkscape:connector-curvature="0"
         d="m 140.24621,811.86715 c 0.14106,0.5288 0.17862,0.72737 0.25664,1.24515 0.0603,0.47656 0.0633,0.76252 0.037,1.42297"
         id="path611-1-5" />
      <path
         style="fill:#ffffff;fill-opacity:1;stroke:#131f67;stroke-width:0.377953;stroke-linejoin:round;stroke-miterlimit:4;stroke-dasharray:none;stroke-opacity:1"
         inkscape:connector-curvature="0"
         d="m 139.90712,804.50179 c -0.35288,0.20507 -0.37951,0.58894 -0.42177,1.16139 -0.0305,0.43522 0.1905,0.90124 0.138,1.29515 -0.0353,0.84251 -0.44153,1.62933 -0.68252,2.2862 -0.21977,0.7632 -0.0961,1.46735 0.16817,1.77239 0.26488,0.30148 0.64564,0.467 1.04429,0.64879 0.3649,0.14978 0.53452,0.34048 0.78798,0.5834 0.28446,0.39026 0.31771,0.68277 0.25008,1.02648"
         id="path580-4-4" />
      <path
         style="fill:#ffffff;fill-opacity:1;stroke:#131f67;stroke-width:0.377953;stroke-miterlimit:4;stroke-dasharray:none;stroke-opacity:1"
         inkscape:connector-curvature="0"
         d="m 147.86217,812.72215 c -0.38484,0.58101 -0.78358,1.14412 -0.92203,1.77791 0.038,0.53358 -0.10619,1.13487 -0.32854,1.59773 -0.29237,0.63713 -1.1252,1.2961 -1.86267,1.45467 -0.73743,0.15861 -1.19092,0.15392 -1.98241,0.0352"
         id="path614-9-2" />
      <g
         style="fill:#ffffff;fill-opacity:1;stroke:#131f67;stroke-width:9.70242;stroke-miterlimit:4;stroke-dasharray:none;stroke-opacity:1"
         transform="matrix(0.03988828,0.00598395,-0.0064377,0.03707679,133.83462,798.78847)"
         id="g637-0-0">
        <path
           style="fill:#ffffff;fill-opacity:1;stroke:#131f67;stroke-width:9.70242;stroke-miterlimit:4;stroke-dasharray:none;stroke-opacity:1"
           inkscape:connector-curvature="0"
           d="m 236.52,349.73 c 14.718,9.027 40.161,10.419 62.956,10.009 25.394,-0.129 47.133,-1.963 61.409,-10.597"
           id="path588-9-9" />
        <path
           style="fill:#ffffff;fill-opacity:1;stroke:#131f67;stroke-width:9.70242;stroke-miterlimit:4;stroke-dasharray:none;stroke-opacity:1"
           inkscape:connector-curvature="0"
           d="m 241.67,373.28 c 16.238,10.204 35.334,13.708 57.326,12.878 22.842,-0.556 40.351,-2.478 56.001,-13.172"
           id="path608-5-7" />
        <g
           style="fill:#ffffff;fill-opacity:1;stroke:#131f67;stroke-width:9.70242;stroke-miterlimit:4;stroke-dasharray:none;stroke-opacity:1"
           id="g625-8-3">
          <path
             style="fill:#ffffff;fill-opacity:1;stroke:#131f67;stroke-width:9.70242;stroke-miterlimit:4;stroke-dasharray:none;stroke-opacity:1"
             inkscape:connector-curvature="0"
             d="m 229.89,385.64 c 17.367,20.948 41.608,24.585 69.173,25.315 29.519,1.077 59.166,-10.645 66.819,-25.314"
             id="path609-9-7" />
          <g
             style="fill:#ffffff;fill-opacity:1;stroke:#131f67;stroke-width:9.70242;stroke-miterlimit:4;stroke-dasharray:none;stroke-opacity:1"
             id="g615-0-2">
            <path
               style="fill:#ffffff;fill-opacity:1;stroke:#131f67;stroke-width:9.70242;stroke-miterlimit:4;stroke-dasharray:none;stroke-opacity:1"
               inkscape:connector-curvature="0"
               d="m 241.44,354.26 -0.416,41.212"
               id="path589-0-6" />
            <path
               style="fill:#ffffff;fill-opacity:1;stroke:#131f67;stroke-width:9.70242;stroke-miterlimit:4;stroke-dasharray:none;stroke-opacity:1"
               inkscape:connector-curvature="0"
               d="m 254.97,358.63 -0.208,44.126"
               id="path592-0-0" />
            <path
               style="fill:#ffffff;fill-opacity:1;stroke:#131f67;stroke-width:9.70242;stroke-miterlimit:4;stroke-dasharray:none;stroke-opacity:1"
               inkscape:connector-curvature="0"
               d="m 269.96,360.5 -0.416,46.208"
               id="path593-7-1" />
            <path
               style="fill:#ffffff;fill-opacity:1;stroke:#131f67;stroke-width:9.70242;stroke-miterlimit:4;stroke-dasharray:none;stroke-opacity:1"
               inkscape:connector-curvature="0"
               d="m 283.49,361.54 -0.209,46.832"
               id="path594-2-6" />
            <path
               style="fill:#ffffff;fill-opacity:1;stroke:#131f67;stroke-width:9.70242;stroke-miterlimit:4;stroke-dasharray:none;stroke-opacity:1"
               inkscape:connector-curvature="0"
               d="m 298.68,361.96 v 46.832"
               id="path595-5-5" />
            <path
               style="fill:#ffffff;fill-opacity:1;stroke:#131f67;stroke-width:9.70242;stroke-miterlimit:4;stroke-dasharray:none;stroke-opacity:1"
               inkscape:connector-curvature="0"
               d="m 313.25,361.75 0.208,46.832"
               id="path598-5-7" />
            <path
               style="fill:#ffffff;fill-opacity:1;stroke:#131f67;stroke-width:9.70242;stroke-miterlimit:4;stroke-dasharray:none;stroke-opacity:1"
               inkscape:connector-curvature="0"
               transform="translate(-0.41626,-3.0518e-5)"
               d="m 326.78,360.5 0.416,46"
               id="path599-2-5" />
            <path
               style="fill:#ffffff;fill-opacity:1;stroke:#131f67;stroke-width:9.70242;stroke-miterlimit:4;stroke-dasharray:none;stroke-opacity:1"
               inkscape:connector-curvature="0"
               d="m 341.56,358 0.208,44.126"
               id="path604-1-4" />
            <path
               style="fill:#ffffff;fill-opacity:1;stroke:#131f67;stroke-width:9.70242;stroke-miterlimit:4;stroke-dasharray:none;stroke-opacity:1"
               inkscape:connector-curvature="0"
               d="m 355.3,352.59 0.417,41.628"
               id="path606-4-1" />
          </g>
        </g>
      </g>
      <path
         style="fill:#ffffff;fill-opacity:1;stroke:#000000;stroke-width:0.377953;stroke-miterlimit:4;stroke-dasharray:none;stroke-opacity:1"
         inkscape:connector-curvature="0"
         d="m 147.10603,812.86707 c -0.31288,0.46072 -0.41572,0.63821 -0.66501,1.10687 -0.21857,0.43471 -0.31814,0.70531 -0.51671,1.33989"
         id="path612-6-2" />
      <path
         style="fill:#131f67;fill-opacity:1;fill-rule:evenodd;stroke:#131f67;stroke-width:0.377953;stroke-miterlimit:4;stroke-dasharray:none;stroke-opacity:1"
         inkscape:connector-curvature="0"
         d="m 140.99845,807.60661 c 0.5521,-0.007 1.08218,0.0145 1.6289,0.0385 0.73154,-0.0592 0.95628,0.73997 0.66516,1.27171 -0.33017,0.46253 -0.74928,0.84837 -1.21551,1.21128 -0.35981,0.2733 -0.73143,0.27051 -1.05848,0.1104 -0.26665,-0.1138 -0.49675,-0.31202 -0.70917,-0.72396 -0.0663,-0.33728 -0.14291,-0.51772 -0.22913,-0.9371 -0.0583,-0.38356 0.22598,-0.90196 0.91824,-0.97084 z"
         id="path586-7-0" />
      <path
         style="fill:#ffffff;fill-opacity:1;stroke:#131f67;stroke-width:0.377953;stroke-linejoin:round;stroke-miterlimit:4;stroke-dasharray:none;stroke-opacity:1"
         inkscape:connector-curvature="0"
         d="m 149.97857,805.9908 c 0.26556,0.29785 0.16092,0.66998 0.007,1.22577 -0.11837,0.42203 -0.48583,0.79979 -0.56932,1.18904 -0.25164,0.81004 -0.13232,1.67574 -0.12589,2.36967 -0.0497,0.7887 -0.4054,1.42097 -0.7595,1.63324 -0.35346,0.20871 -0.9431,0.26082 -1.21083,0.31047 -0.31088,0.0516 -0.64186,0.17983 -0.9481,0.33879 -0.37747,0.24346 -0.52996,0.53978 -0.58211,0.8858"
         id="path581-6-0" />
      <path
         style="fill:#131f67;fill-opacity:1;fill-rule:evenodd;stroke:#131f67;stroke-width:0.377953;stroke-miterlimit:4;stroke-dasharray:none;stroke-opacity:1"
         inkscape:connector-curvature="0"
         d="m 147.86217,808.63552 c -0.52174,-0.16801 -1.03217,-0.30264 -1.55925,-0.43975 -0.67437,-0.27011 -1.15814,0.42279 -1.06179,1.01264 0.15687,0.53561 0.4241,1.02441 0.74382,1.50521 0.24905,0.36464 0.60277,0.47065 0.96739,0.41431 0.29163,-0.0301 0.57713,-0.15092 0.91821,-0.47985 0.17713,-0.30075 0.31086,-0.44964 0.53467,-0.82251 0.18517,-0.34702 0.0908,-0.92225 -0.54305,-1.19005 z"
         id="path587-8-1" />
      <path
         sodipodi:nodetypes="ccccc"
         style="fill:#000000;fill-opacity:1;stroke:#000000;stroke-width:0.755906;stroke-miterlimit:4;stroke-dasharray:none;stroke-opacity:1"
         inkscape:connector-curvature="0"
         d="m 132.28336,793.26898 c -1.70754,1.42166 -1.50019,3.77434 -1.6713,5.94264 1.19891,-1.49165 2.38893,-2.9961 4.41016,-3.30227 -0.43649,-1.36576 -1.59476,-1.82257 -2.62471,-2.58349 z"
         id="path3082-0-4" />
      <path
         style="fill:#000000;fill-opacity:1;stroke:#000000;stroke-width:0.755906;stroke-miterlimit:4;stroke-dasharray:none;stroke-opacity:1"
         inkscape:connector-curvature="0"
         d="m 142.76797,800.09271 c 0.71974,-2.7934 1.86903,-5.44522 3.72761,-7.86387 l 1.02858,-0.0934 2.16997,3.05067 c -0.72804,1.86173 -1.9678,3.55852 -1.99282,5.64666 z"
         id="path3084-9-6" />
      <path
         style="fill:#000000;fill-opacity:1;stroke:#000000;stroke-width:0.755906;stroke-miterlimit:4;stroke-dasharray:none;stroke-opacity:1"
         inkscape:connector-curvature="0"
         d="m 162.20542,796.46728 c -0.6143,2.51252 -1.40006,4.98185 -0.71833,7.82003 -1.54089,-1.65161 -3.10298,-3.75441 -3.78491,-5.81947 1.09832,-1.18548 3.08127,-1.23193 4.50332,-2.00064 z"
         id="path3088-5-0" />
      <path
         style="fill:#131f67;fill-opacity:1;stroke:#131f67;stroke-width:0.755906;stroke-miterlimit:4;stroke-dasharray:none;stroke-opacity:1"
         inkscape:connector-curvature="0"
         d="m 147.26193,800.70498 c 2.60736,-2.42488 4.1767,-3.85694 7.60465,-5.84084 2.08789,0.2713 5.08719,0.86783 7.4164,1.56745 -3.41096,2.07694 -7.15097,2.49256 -9.29193,5.88432 z"
         id="path3086-3-7" />
      <path
         style="fill:#131f67;fill-opacity:1;stroke:#131f67;stroke-width:0.755906;stroke-miterlimit:4;stroke-dasharray:none;stroke-opacity:1"
         inkscape:connector-curvature="0"
         d="m 138.41822,803.90038 c 4.7629,-1.04477 9.06744,-0.10897 13.10888,1.96652 0.19803,-0.79737 0.35377,-1.62125 0.86165,-2.22425 -4.04223,-2.70044 -8.6005,-4.00294 -13.89191,-2.084 0.21192,0.81631 0.1256,1.58785 -0.0785,2.34173 z"
         id="path3072-1-1" />
      <path
         style="fill:#d40000;fill-opacity:1;stroke:#d40000;stroke-width:0.755906;stroke-miterlimit:4;stroke-dasharray:none;stroke-opacity:1"
         inkscape:connector-curvature="0"
         d="m 146.55646,792.38716 c -0.0477,2.08306 0.99382,3.94208 2.85891,5.63144 0.61368,-1.5423 0.92533,-3.11671 3.01972,-4.50182 -0.80907,-0.8646 -1.56645,-1.21805 -2.90646,-1.67472 l -2.93023,0.30364 z"
         id="path3090-4-7" />
      <path
         sodipodi:nodetypes="ccccc"
         style="fill:#131f67;fill-opacity:1;stroke:#131f67;stroke-width:0.755906;stroke-miterlimit:4;stroke-dasharray:none;stroke-opacity:1;filter:url(#filter4519-2)"
         inkscape:connector-curvature="0"
         d="m 138.4611,800.13981 c -1.20242,-2.67765 -3.82461,-4.80024 -6.24815,-6.89754 1.12816,-1.10759 2.5046,-1.22396 4.08847,-1.60171 3.5841,2.42238 5.51163,5.35899 6.89139,8.46599 z"
         id="path3080-1-7" />
      <path
         sodipodi:nodetypes="cccccc"
         style="fill:#d40000;fill-opacity:1;stroke:#d40000;stroke-width:0.755906;stroke-miterlimit:4;stroke-dasharray:none;stroke-opacity:1"
         inkscape:connector-curvature="0"
         d="m 138.64429,801.54188 c 4.73483,-0.4587 9.16058,0.30456 13.60231,2.05252 0.0747,-0.56648 0.42289,-0.98044 0.88698,-1.32979 -4.66545,-2.03191 -9.62674,-3.36742 -14.88307,-2.19686 0.42336,0.45048 0.11176,0.90688 0.10853,1.41706 z"
         id="path3074-7-7" />
      <path
         style="fill:#131f67;fill-opacity:1;stroke:#131f67;stroke-width:0.755906;stroke-miterlimit:4;stroke-dasharray:none;stroke-opacity:1"
         inkscape:connector-curvature="0"
         d="m 120.01754,821.80839 0.55681,-2.1507 -1.9488,-0.88993 1.39199,3.04067 z"
         id="path16597-7" />
      <path
         style="fill:#e2cf00;fill-opacity:1;stroke:#131f67;stroke-width:0.755906;stroke-linejoin:round;stroke-miterlimit:4;stroke-dasharray:none;stroke-opacity:1"
         inkscape:connector-curvature="0"
         d="m 165.71123,992.86697 c 0.17496,1.0944 -0.63766,2.11333 -1.81496,2.27595 -1.17739,0.16263 -2.27358,-0.59271 -2.44853,-1.68703 -0.17497,-1.0944 0.63766,-2.11333 1.81496,-2.27595 1.17738,-0.16263 2.27358,0.59271 2.44853,1.68703 z"
         id="path9399-4-3" />
      <path
         style="fill:#131f67;fill-opacity:1;stroke:#131f67;stroke-width:0.755906;stroke-miterlimit:4;stroke-dasharray:none;stroke-opacity:1"
         inkscape:connector-curvature="0"
         d="m 95.571644,821.75043 c -3.936209,2.75989 -0.05212,4.89997 -0.613447,8.1595 2.804265,-2.66428 2.715165,-3.64754 7.260883,-4.88766 -1.14208,-1.19328 -4.406652,-2.55378 -6.647395,-3.27181 z"
         id="path3082-5-2-3" />
      <path
         style="fill:#131f67;fill-opacity:1;stroke:#131f67;stroke-width:0.755906;stroke-miterlimit:4;stroke-dasharray:none;stroke-opacity:1"
         inkscape:connector-curvature="0"
         d="m 102.30674,824.87337 c -3.599884,2.9444 -0.77306,6.13647 -1.2129,10.20101 2.54678,-2.98542 2.51747,-4.84817 6.72457,-5.77201 -1.54868,-2.07625 -4.09952,-3.45256 -5.51202,-4.429 z"
         id="path3082-5-81-5" />
      <path
         style="fill:#131f67;fill-opacity:1;stroke:#131f67;stroke-width:0.755906;stroke-miterlimit:4;stroke-dasharray:none;stroke-opacity:1"
         inkscape:connector-curvature="0"
         d="m 121.42458,825.89141 c 1.26849,2.90944 2.37755,2.04715 3.99117,5.83649 -3.62405,-1.97271 -6.71756,-2.54614 -10.57269,-3.54439 1.65329,-1.04677 5.41574,-0.53989 6.58152,-2.29203 z"
         id="path3088-9-8-9" />
      <path
         style="fill:#e2cf00;fill-opacity:1;stroke:#131f67;stroke-width:0.755906;stroke-linejoin:round;stroke-miterlimit:4;stroke-dasharray:none;stroke-opacity:0.941176"
         inkscape:connector-curvature="0"
         d="m 74.086929,789.90998 c 0.174961,1.0944 -0.637658,2.11333 -1.814962,2.27595 -1.177383,0.16263 -2.273578,-0.59272 -2.448529,-1.68704 -0.174963,-1.09439 0.637655,-2.11332 1.814963,-2.27594 1.17738,-0.16263 2.273577,0.59271 2.448528,1.68703 z"
         id="path9399-4-2-9" />
      <path
         style="fill:#e2cf00;fill-opacity:1;stroke:#131f67;stroke-width:0.755906;stroke-linejoin:round;stroke-miterlimit:4;stroke-dasharray:none;stroke-opacity:1"
         inkscape:connector-curvature="0"
         d="m 126.58792,832.06028 c 0.17496,1.0944 -0.63766,2.11333 -1.81496,2.27595 -1.17739,0.16263 -2.27358,-0.59272 -2.44853,-1.68704 -0.17496,-1.0944 0.63766,-2.11332 1.81496,-2.27595 1.17738,-0.16262 2.27358,0.59272 2.44853,1.68704 z"
         id="path9399-4-2-4-8" />
      <path
         style="fill:#e2cf00;fill-opacity:1;stroke:#000000;stroke-width:0.755906;stroke-linejoin:round;stroke-miterlimit:4;stroke-dasharray:none;stroke-opacity:1"
         inkscape:connector-curvature="0"
         d="m 103.70497,834.77746 c 0.17496,1.09439 -0.63766,2.11332 -1.81496,2.27594 -1.17738,0.16263 -2.273578,-0.59271 -2.448529,-1.68703 -0.174963,-1.0944 0.637659,-2.11333 1.814959,-2.27595 1.17738,-0.16263 2.27358,0.59271 2.44853,1.68704 z"
         id="path9399-4-2-4-9-1" />
      <path
         style="fill:#e2cf00;fill-opacity:1;stroke:#000000;stroke-width:0.755906;stroke-linejoin:round;stroke-miterlimit:4;stroke-dasharray:none;stroke-opacity:1"
         inkscape:connector-curvature="0"
         d="m 97.71822,830.37925 c 0.174963,1.0944 -0.637655,2.11333 -1.814963,2.27595 -1.17738,0.16263 -2.273578,-0.59271 -2.448529,-1.68703 -0.17496,-1.0944 0.637659,-2.11333 1.814963,-2.27596 1.177383,-0.16262 2.273581,0.59272 2.448529,1.68704 z"
         id="path9399-4-2-4-0-8" />
      <path
         style="fill:#e2cf00;fill-opacity:1;stroke:#131f67;stroke-width:0.755906;stroke-linejoin:round;stroke-miterlimit:4;stroke-dasharray:none;stroke-opacity:0.941176"
         inkscape:connector-curvature="0"
         d="m 134.90155,821.322 c 0.17496,1.09439 -0.63766,2.11332 -1.81496,2.27594 -1.17738,0.16263 -2.27358,-0.59271 -2.44853,-1.68703 -0.17496,-1.0944 0.63766,-2.11333 1.81496,-2.27595 1.17738,-0.16263 2.27358,0.59271 2.44853,1.68704 z"
         id="path9399-4-2-4-2-2" />
      <path
         style="fill:#e2cf00;fill-opacity:1;stroke:#131f67;stroke-width:0.755906;stroke-linejoin:round;stroke-miterlimit:4;stroke-dasharray:none;stroke-opacity:0.941176"
         inkscape:connector-curvature="0"
         d="m 132.93715,799.84253 c 0.17496,1.0944 -0.63766,2.11333 -1.81496,2.27595 -1.17739,0.16263 -2.27358,-0.59271 -2.44853,-1.68704 -0.17496,-1.0944 0.63766,-2.11332 1.81496,-2.27595 1.17738,-0.16262 2.27358,0.59272 2.44853,1.68704 z"
         id="path9399-4-2-4-21-6" />
      <path
         style="fill:#e2cf00;fill-opacity:1;stroke:#131f67;stroke-width:0.755906;stroke-linejoin:round;stroke-miterlimit:4;stroke-dasharray:none;stroke-opacity:0.941176"
         inkscape:connector-curvature="0"
         d="m 151.17024,798.93681 c 0.17496,1.09439 -0.63767,2.11332 -1.81497,2.27594 -1.17738,0.16263 -2.27358,-0.59271 -2.44853,-1.68703 -0.17496,-1.0944 0.63766,-2.11333 1.81496,-2.27595 1.17739,-0.16263 2.27358,0.59271 2.44854,1.68704 z"
         id="path9399-4-2-4-5-6" />
      <path
         style="fill:#e2cf00;fill-opacity:1;stroke:#131f67;stroke-width:0.755906;stroke-linejoin:round;stroke-miterlimit:4;stroke-dasharray:none;stroke-opacity:0.941176"
         inkscape:connector-curvature="0"
         d="m 163.7011,804.88887 c 0.17496,1.0944 -0.63766,2.11333 -1.81497,2.27595 -1.17738,0.16263 -2.27358,-0.59272 -2.44853,-1.68704 -0.17496,-1.09439 0.63766,-2.11332 1.81496,-2.27595 1.17739,-0.16262 2.27358,0.59272 2.44854,1.68704 z"
         id="path9399-4-2-4-4-0" />
      <path
         style="fill:#e2cf00;fill-opacity:1;stroke:#131f67;stroke-width:0.755906;stroke-linejoin:round;stroke-miterlimit:4;stroke-dasharray:none;stroke-opacity:0.941176"
         inkscape:connector-curvature="0"
         d="m 154.70928,822.0973 c 0.17496,1.0944 -0.63766,2.11332 -1.81497,2.27594 -1.17738,0.16263 -2.27357,-0.59271 -2.44853,-1.68703 -0.17496,-1.0944 0.63766,-2.11333 1.81497,-2.27595 1.17738,-0.16263 2.27358,0.59271 2.44853,1.68704 z"
         id="path9399-4-2-4-44-3" />
      <path
         style="fill:#e2cf00;fill-opacity:1;stroke:#131f67;stroke-width:0.755906;stroke-linejoin:round;stroke-miterlimit:4;stroke-dasharray:none;stroke-opacity:0.941176"
         inkscape:connector-curvature="0"
         d="m 149.37733,825.19488 c 0.17496,1.0944 -0.63766,2.11332 -1.81497,2.27595 -1.17738,0.16262 -2.27357,-0.59272 -2.44853,-1.68704 -0.17496,-1.0944 0.63766,-2.11333 1.81497,-2.27595 1.17738,-0.16263 2.27357,0.59272 2.44853,1.68704 z"
         id="path9399-4-2-4-25-8" />
      <path
         style="fill:#e2cf00;fill-opacity:1;stroke:#131f67;stroke-width:0.755906;stroke-linejoin:round;stroke-miterlimit:4;stroke-dasharray:none;stroke-opacity:0.941176"
         inkscape:connector-curvature="0"
         d="m 139.92169,824.53189 c 0.17496,1.09439 -0.63766,2.11332 -1.81496,2.27594 -1.17738,0.16263 -2.27358,-0.59271 -2.44853,-1.68703 -0.17496,-1.0944 0.63766,-2.11333 1.81496,-2.27595 1.17738,-0.16263 2.27358,0.59271 2.44853,1.68704 z"
         id="path9399-4-2-4-25-0-0" />
      <path
         style="fill:#e2cf00;fill-opacity:1;stroke:#131f67;stroke-width:0.755906;stroke-linejoin:round;stroke-miterlimit:4;stroke-dasharray:none;stroke-opacity:1"
         inkscape:connector-curvature="0"
         d="m 87.833848,823.65152 c 0.17496,1.0944 -0.637658,2.11333 -1.814963,2.27595 -1.177383,0.16263 -2.273577,-0.59271 -2.448528,-1.68704 -0.174964,-1.09439 0.637655,-2.11332 1.814962,-2.27594 1.17738,-0.16263 2.273578,0.59271 2.448529,1.68703 z"
         id="path9399-4-2-4-0-2-1" />
      <path
         style="fill:#e2cf00;fill-opacity:1;stroke:#131f67;stroke-width:0.755906;stroke-linejoin:round;stroke-miterlimit:4;stroke-dasharray:none;stroke-opacity:0.941176"
         inkscape:connector-curvature="0"
         d="m 110.52582,774.22354 c 0.17496,1.09439 -0.63767,2.11332 -1.81497,2.27594 -1.17738,0.16263 -2.27358,-0.59271 -2.44853,-1.68703 -0.17496,-1.0944 0.63766,-2.11333 1.81496,-2.27595 1.17739,-0.16263 2.27358,0.59271 2.44854,1.68704 z"
         id="path9399-4-2-4-0-1-2" />
      <path
         style="fill:#e2cf00;fill-opacity:1;stroke:#131f67;stroke-width:0.755906;stroke-linejoin:round;stroke-miterlimit:4;stroke-dasharray:none;stroke-opacity:0.941176"
         inkscape:connector-curvature="0"
         d="m 136.41773,779.91671 c 0.17496,1.0944 -0.63766,2.11333 -1.81496,2.27595 -1.17739,0.16263 -2.27358,-0.59271 -2.44854,-1.68704 -0.17496,-1.09439 0.63767,-2.11332 1.81497,-2.27594 1.17738,-0.16263 2.27358,0.59271 2.44853,1.68703 z"
         id="path9399-4-2-4-0-27-5" />
      <path
         sodipodi:nodetypes="cc"
         inkscape:connector-curvature="0"
         id="path4452-1"
         d="m 109.61356,830.68686 -0.80406,-7.06153"
         style="fill:none;stroke:#000000;stroke-width:0.566929;stroke-linecap:butt;stroke-linejoin:miter;stroke-miterlimit:4;stroke-dasharray:none;stroke-opacity:1" />
      <path
         d="m 95.933222,816.29825 c -0.14875,0.40462 -0.70001,2.9181 -0.0607,5.04646 0,0 2.79825,1.4918 4.256398,2.26325 3.39556,1.79659 9.40409,6.28575 9.40409,6.28575 l 1.13449,-0.62899 -0.35516,-6.63331 -1.89705,0.53303 c -4.34479,-1.00596 -8.775118,-4.32624 -12.481898,-6.86609 z"
         id="path3188"
         inkscape:connector-curvature="0"
         style="fill:#131f67;stroke:#131f67;stroke-width:0.755906;stroke-miterlimit:4;stroke-dasharray:none;stroke-opacity:0.94118" />
      <path
         d="m 109.84446,822.20946 -3.07441,-0.95809 c -4.00228,-2.49787 -3.27259,-1.83567 -5.4619,-3.28775 l -2.879057,-2.78607 -2.550033,-0.39913 -0.08998,1.12705 5.60905,4.15803 6.74764,3.04019 z"
         id="path15558"
         inkscape:connector-curvature="0"
         style="stroke:#131f67;stroke-width:0.755906;stroke-miterlimit:4;stroke-dasharray:none" />
      <path
         style="fill:#131f67;fill-opacity:1;stroke:#131f67;stroke-width:0.756;stroke-miterlimit:4;stroke-dasharray:none;stroke-opacity:1"
         inkscape:connector-curvature="0"
         d="m 96.809183,781.42854 c -4.52498,-6.25139 -9.03501,-7.85454 -16.11104,-13.50045 -4.91378,0.33493 -5.0947,2.97005 -8.99264,5.31341 5.20411,6.4792 12.61447,6.2633 14.75146,12.67892 z"
         id="path3086-4-2"
         sodipodi:nodetypes="ccccc" />
    </g>
  </g>
</svg>
