<?xml version="1.0" encoding="UTF-8" standalone="no"?>
<!-- Created with Inkscape (http://www.inkscape.org/) -->

<svg
   xmlns:dc="http://purl.org/dc/elements/1.1/"
   xmlns:cc="http://creativecommons.org/ns#"
   xmlns:rdf="http://www.w3.org/1999/02/22-rdf-syntax-ns#"
   xmlns:svg="http://www.w3.org/2000/svg"
   xmlns="http://www.w3.org/2000/svg"
   xmlns:sodipodi="http://sodipodi.sourceforge.net/DTD/sodipodi-0.dtd"
   xmlns:inkscape="http://www.inkscape.org/namespaces/inkscape"
   width="234"
   height="333.00003"
   id="svg2"
   version="1.1"
   inkscape:version="0.92.4 (5da689c313, 2019-01-14)"
   sodipodi:docname="hearts_9.svg"
   inkscape:export-filename="C:\Users\fowle\OneDrive\Projects\Playing-Cards\fronts\png-096-dpi\hearts_9.png"
   inkscape:export-xdpi="96"
   inkscape:export-ydpi="96">
  <title
     id="title893">Nine of Hearts Playing Card</title>
  <defs
     id="defs4" />
  <sodipodi:namedview
     id="base"
     pagecolor="#ffffff"
     bordercolor="#666666"
     borderopacity="1.0"
     inkscape:pageopacity="0.0"
     inkscape:pageshadow="2"
     inkscape:zoom="1.549743"
     inkscape:cx="107.43024"
     inkscape:cy="163.89266"
     inkscape:document-units="px"
     inkscape:current-layer="layer1"
     showgrid="false"
     inkscape:showpageshadow="false"
     showguides="true"
     inkscape:guide-bbox="true"
     inkscape:snap-global="true"
     inkscape:window-width="1456"
     inkscape:window-height="976"
     inkscape:window-x="444"
     inkscape:window-y="38"
     inkscape:window-maximized="0"
     fit-margin-top="0"
     fit-margin-left="0"
     fit-margin-right="0"
     fit-margin-bottom="0"
     showborder="false">
    <inkscape:grid
       type="xygrid"
       id="grid3767"
       empspacing="5"
       visible="true"
       enabled="true"
       snapvisiblegridlinesonly="true"
       originx="0"
       originy="5.1666068e-06" />
  </sodipodi:namedview>
  <metadata
     id="metadata7">
    <rdf:RDF>
      <cc:Work
         rdf:about="">
        <dc:format>image/svg+xml</dc:format>
        <dc:type
           rdf:resource="http://purl.org/dc/dcmitype/StillImage" />
        <dc:title>Nine of Hearts Playing Card</dc:title>
        <cc:license
           rdf:resource="http://creativecommons.org/publicdomain/zero/1.0/" />
        <dc:date>2020-05-05</dc:date>
        <dc:creator>
          <cc:Agent>
            <dc:title>Daniel S. Fowler</dc:title>
          </cc:Agent>
        </dc:creator>
        <dc:rights>
          <cc:Agent>
            <dc:title>Public Domain</dc:title>
          </cc:Agent>
        </dc:rights>
        <dc:publisher>
          <cc:Agent>
            <dc:title>https://tekeye.uk</dc:title>
          </cc:Agent>
        </dc:publisher>
        <dc:language>en-GB</dc:language>
        <dc:subject>
          <rdf:Bag>
            <rdf:li>nine; hearts; playing; card; white; red;</rdf:li>
          </rdf:Bag>
        </dc:subject>
        <dc:description>A nine of hearts playing card.</dc:description>
      </cc:Work>
      <cc:License
         rdf:about="http://creativecommons.org/publicdomain/zero/1.0/">
        <cc:permits
           rdf:resource="http://creativecommons.org/ns#Reproduction" />
        <cc:permits
           rdf:resource="http://creativecommons.org/ns#Distribution" />
        <cc:permits
           rdf:resource="http://creativecommons.org/ns#DerivativeWorks" />
      </cc:License>
    </rdf:RDF>
  </metadata>
  <g
     inkscape:label="Layer 1"
     inkscape:groupmode="layer"
     id="layer1"
     transform="translate(0,-719.36216)">
    <g
       id="g920">
      <rect
         rx="8.9191856"
         ry="8.9457436"
         y="719.74011"
         x="0.37795275"
         height="332.24411"
         width="233.24409"
         id="rect4266"
         style="fill:#ffffff;fill-opacity:1;stroke:#808080;stroke-width:0.75590551;stroke-linecap:butt;stroke-linejoin:miter;stroke-miterlimit:4;stroke-dasharray:none;stroke-opacity:1" />
      <g
         transform="matrix(0.07348588,0,0,0.07370838,-248.01731,933.60062)"
         id="g4233"
         style="fill:none;stroke:#000000;stroke-width:3.18132639;stroke-opacity:1" />
      <g
         clip-path="none"
         style="fill:none;stroke:#000000;stroke-width:3.18132639;stroke-opacity:1"
         id="g4211"
         transform="matrix(0.07348588,0,0,0.07370838,-248.01728,933.60062)" />
      <g
         transform="matrix(0.07348588,0,0,0.07370838,-248.01731,933.60062)"
         id="g4227"
         style="fill:none;stroke:#000000;stroke-width:3.18132639;stroke-opacity:1" />
      <path
         sodipodi:nodetypes="csssssssscssssssssc"
         inkscape:connector-curvature="0"
         id="path3940-9"
         d="m 58.597133,814.07624 c -2.653214,-5.69589 -6.07814,-11.01838 -10.147368,-15.76947 -2.624249,-3.06398 -5.508873,-5.88504 -8.43128,-8.65507 -2.282814,-2.16375 -4.606141,-4.31575 -6.473992,-6.85891 -1.261866,-1.71813 -2.314885,-3.62962 -2.816556,-5.7134 -0.908632,-3.77411 0.07987,-7.82001 1.944736,-11.21027 1.092153,-1.98547 2.489526,-3.81145 4.21076,-5.26296 2.557405,-2.15665 5.894117,-3.44611 9.203118,-3.16466 3.034567,0.2581 5.872369,1.80791 8.086801,3.93638 1.959831,1.88375 3.486372,4.23197 4.456324,6.8049 0.969951,-2.57293 2.496492,-4.92115 4.456323,-6.8049 2.214432,-2.12847 5.052234,-3.67828 8.08677,-3.93638 3.309001,-0.28145 6.645713,1.00801 9.203118,3.16466 1.721265,1.45151 3.118607,3.27749 4.21076,5.26296 1.8649,3.39026 2.853399,7.43616 1.944767,11.21027 -0.501671,2.08378 -1.554722,3.99527 -2.816588,5.7134 -1.867819,2.54316 -4.191178,4.69516 -6.47396,6.85891 -2.922407,2.77003 -5.807063,5.59109 -8.431311,8.65507 -4.069228,4.75109 -7.494154,10.07358 -10.147368,15.76947"
         style="fill:#ff0000;fill-opacity:1;stroke:none;stroke-width:1" />
      <path
         sodipodi:nodetypes="csssssssscssssssssc"
         inkscape:connector-curvature="0"
         id="path3940-9-3"
         d="m 58.597133,880.82455 c -2.653214,-5.6959 -6.07814,-11.01839 -10.147368,-15.76947 -2.624249,-3.06398 -5.508873,-5.88505 -8.43128,-8.65508 -2.282814,-2.16375 -4.606141,-4.31575 -6.473992,-6.85891 -1.261866,-1.71812 -2.314885,-3.62962 -2.816556,-5.7134 -0.908632,-3.77411 0.07987,-7.82001 1.944736,-11.21027 1.092153,-1.98547 2.489526,-3.81145 4.21076,-5.26296 2.557405,-2.15664 5.894117,-3.44611 9.203118,-3.16466 3.034567,0.2581 5.872369,1.80791 8.086801,3.93638 1.959831,1.88375 3.486372,4.23197 4.456324,6.8049 0.969951,-2.57293 2.496492,-4.92115 4.456323,-6.8049 2.214432,-2.12847 5.052234,-3.67828 8.08677,-3.93638 3.309001,-0.28145 6.645713,1.00802 9.203118,3.16466 1.721265,1.45151 3.118607,3.27749 4.21076,5.26296 1.8649,3.39026 2.853399,7.43616 1.944767,11.21027 -0.501671,2.08378 -1.554722,3.99528 -2.816588,5.7134 -1.867819,2.54316 -4.191178,4.69516 -6.47396,6.85891 -2.922407,2.77003 -5.807063,5.5911 -8.431311,8.65508 -4.069228,4.75108 -7.494154,10.07357 -10.147368,15.76947"
         style="fill:#ff0000;fill-opacity:1;stroke:none;stroke-width:1" />
      <path
         inkscape:transform-center-y="71.513382"
         inkscape:transform-center-x="78.569004"
         sodipodi:nodetypes="csssssssscssssssssc"
         inkscape:connector-curvature="0"
         id="path3940-9-1"
         d="m 175.33779,814.07624 c -2.65321,-5.69589 -6.07814,-11.01838 -10.14737,-15.76947 -2.62425,-3.06398 -5.50887,-5.88504 -8.43128,-8.65508 -2.28281,-2.16374 -4.60614,-4.31575 -6.47399,-6.85891 -1.26187,-1.71812 -2.31489,-3.62962 -2.81656,-5.7134 -0.90863,-3.7741 0.0799,-7.82001 1.94474,-11.21026 1.09215,-1.98547 2.48953,-3.81145 4.21076,-5.26296 2.5574,-2.15665 5.89412,-3.44611 9.20312,-3.16466 3.03456,0.2581 5.87237,1.80791 8.0868,3.93638 1.95983,1.88375 3.48637,4.23197 4.45632,6.8049 0.96995,-2.57293 2.4965,-4.92115 4.45633,-6.8049 2.21443,-2.12847 5.05223,-3.67828 8.08677,-3.93638 3.309,-0.28145 6.64571,1.00801 9.20311,3.16466 1.72127,1.45151 3.11861,3.27749 4.21076,5.26296 1.8649,3.39025 2.8534,7.43616 1.94477,11.21026 -0.50167,2.08378 -1.55472,3.99528 -2.81659,5.7134 -1.86782,2.54316 -4.19117,4.69517 -6.47396,6.85891 -2.9224,2.77004 -5.80706,5.5911 -8.43131,8.65508 -4.06923,4.75109 -7.49415,10.07358 -10.14737,15.76947"
         style="fill:#ff0000;fill-opacity:1;stroke:none;stroke-width:1" />
      <path
         sodipodi:nodetypes="csssssssscssssssssc"
         inkscape:connector-curvature="0"
         id="path3940-9-9"
         d="m 116.96746,914.1987 c -2.65321,-5.69589 -6.07814,-11.01839 -10.14737,-15.76947 -2.62425,-3.06398 -5.50887,-5.88505 -8.431277,-8.65508 -2.282813,-2.16374 -4.606141,-4.31575 -6.473991,-6.85891 -1.261866,-1.71812 -2.314886,-3.62962 -2.816557,-5.7134 -0.908631,-3.77411 0.07987,-7.82001 1.944736,-11.21026 1.092153,-1.98547 2.489526,-3.81146 4.210761,-5.26297 2.557404,-2.15664 5.894118,-3.4461 9.203118,-3.16466 3.03457,0.25811 5.87237,1.80791 8.0868,3.93639 1.95983,1.88374 3.48637,4.23196 4.45632,6.8049 0.96996,-2.57294 2.4965,-4.92116 4.45633,-6.8049 2.21443,-2.12848 5.05223,-3.67828 8.08677,-3.93639 3.309,-0.28144 6.64571,1.00802 9.20312,3.16466 1.72126,1.45151 3.1186,3.2775 4.21076,5.26297 1.8649,3.39025 2.85339,7.43615 1.94476,11.21026 -0.50167,2.08378 -1.55472,3.99528 -2.81659,5.7134 -1.86781,2.54316 -4.19117,4.69517 -6.47396,6.85891 -2.9224,2.77003 -5.80706,5.5911 -8.43131,8.65508 -4.06922,4.75108 -7.49415,10.07358 -10.14736,15.76947"
         style="fill:#ff0000;fill-opacity:1;stroke:none;stroke-width:1" />
      <path
         sodipodi:nodetypes="csssssssscssssssssc"
         inkscape:connector-curvature="0"
         id="path3940-9-8"
         d="m 175.33779,880.82455 c -2.65321,-5.6959 -6.07814,-11.01839 -10.14737,-15.76947 -2.62425,-3.06398 -5.50887,-5.88505 -8.43128,-8.65508 -2.28281,-2.16375 -4.60614,-4.31575 -6.47399,-6.85891 -1.26187,-1.71812 -2.31489,-3.62962 -2.81656,-5.7134 -0.90863,-3.77411 0.0799,-7.82001 1.94474,-11.21027 1.09215,-1.98547 2.48953,-3.81145 4.21076,-5.26296 2.5574,-2.15664 5.89412,-3.44611 9.20312,-3.16466 3.03456,0.2581 5.87237,1.80791 8.0868,3.93638 1.95983,1.88375 3.48637,4.23197 4.45632,6.8049 0.96995,-2.57293 2.4965,-4.92115 4.45633,-6.8049 2.21443,-2.12847 5.05223,-3.67828 8.08677,-3.93638 3.309,-0.28145 6.64571,1.00802 9.20311,3.16466 1.72127,1.45151 3.11861,3.27749 4.21076,5.26296 1.8649,3.39026 2.8534,7.43616 1.94477,11.21027 -0.50167,2.08378 -1.55472,3.99528 -2.81659,5.7134 -1.86782,2.54316 -4.19117,4.69516 -6.47396,6.85891 -2.9224,2.77003 -5.80706,5.5911 -8.43131,8.65508 -4.06923,4.75108 -7.49415,10.07357 -10.14737,15.76947"
         style="fill:#ff0000;fill-opacity:1;stroke:none;stroke-width:1" />
      <path
         sodipodi:nodetypes="csssssssscssssssssc"
         inkscape:connector-curvature="0"
         id="path3940-9-6"
         d="m 58.597133,957.64807 c -2.653214,5.69589 -6.07814,11.01839 -10.147368,15.76947 -2.624249,3.06398 -5.508873,5.88505 -8.43128,8.65508 -2.282814,2.16374 -4.606141,4.31575 -6.473992,6.85891 -1.261866,1.71812 -2.314885,3.62962 -2.816556,5.7134 -0.908632,3.77411 0.07987,7.81997 1.944736,11.21027 1.092153,1.9855 2.489526,3.8114 4.21076,5.263 2.557405,2.1566 5.894117,3.4461 9.203118,3.1646 3.034567,-0.2581 5.872369,-1.8079 8.086801,-3.9364 1.959831,-1.8837 3.486372,-4.2319 4.456324,-6.8049 0.969951,2.573 2.496492,4.9212 4.456323,6.8049 2.214432,2.1285 5.052234,3.6783 8.08677,3.9364 3.309001,0.2815 6.645713,-1.008 9.203118,-3.1646 1.721265,-1.4516 3.118607,-3.2775 4.21076,-5.263 1.8649,-3.3903 2.853399,-7.43616 1.944767,-11.21027 -0.501671,-2.08378 -1.554722,-3.99528 -2.816588,-5.7134 -1.867819,-2.54316 -4.191178,-4.69517 -6.47396,-6.85891 -2.922407,-2.77003 -5.807063,-5.5911 -8.431311,-8.65508 -4.069228,-4.75108 -7.494154,-10.07358 -10.147368,-15.76947"
         style="fill:#ff0000;fill-opacity:1;stroke:none;stroke-width:1" />
      <path
         sodipodi:nodetypes="csssssssscssssssssc"
         inkscape:connector-curvature="0"
         id="path3940-9-3-5"
         d="m 58.597133,890.89976 c -2.653214,5.6959 -6.07814,11.01839 -10.147368,15.76948 -2.624249,3.06398 -5.508873,5.88504 -8.43128,8.65508 -2.282814,2.16374 -4.606141,4.31575 -6.473992,6.8589 -1.261866,1.71813 -2.314885,3.62963 -2.816556,5.7134 -0.908632,3.77411 0.07987,7.82001 1.944736,11.21027 1.092153,1.98547 2.489526,3.81145 4.21076,5.26296 2.557405,2.15665 5.894117,3.44611 9.203118,3.16466 3.034567,-0.2581 5.872369,-1.80791 8.086801,-3.93638 1.959831,-1.88374 3.486372,-4.23197 4.456324,-6.8049 0.969951,2.57293 2.496492,4.92116 4.456323,6.8049 2.214432,2.12847 5.052234,3.67828 8.08677,3.93638 3.309001,0.28145 6.645713,-1.00801 9.203118,-3.16466 1.721265,-1.45151 3.118607,-3.27749 4.21076,-5.26296 1.8649,-3.39026 2.853399,-7.43616 1.944767,-11.21027 -0.501671,-2.08377 -1.554722,-3.99527 -2.816588,-5.7134 -1.867819,-2.54315 -4.191178,-4.69516 -6.47396,-6.8589 -2.922407,-2.77004 -5.807063,-5.5911 -8.431311,-8.65508 -4.069228,-4.75109 -7.494154,-10.07358 -10.147368,-15.76948"
         style="fill:#ff0000;fill-opacity:1;stroke:none;stroke-width:1" />
      <path
         inkscape:transform-center-y="-71.513389"
         inkscape:transform-center-x="78.569004"
         sodipodi:nodetypes="csssssssscssssssssc"
         inkscape:connector-curvature="0"
         id="path3940-9-1-0"
         d="m 175.33779,957.64807 c -2.65321,5.69589 -6.07814,11.01839 -10.14737,15.76947 -2.62425,3.06398 -5.50887,5.88505 -8.43128,8.65508 -2.28281,2.16375 -4.60614,4.31575 -6.47399,6.85891 -1.26187,1.71812 -2.31489,3.62962 -2.81656,5.7134 -0.90863,3.77411 0.0799,7.81997 1.94474,11.21027 1.09215,1.9855 2.48953,3.8114 4.21076,5.263 2.5574,2.1566 5.89412,3.4461 9.20312,3.1646 3.03456,-0.2581 5.87237,-1.8079 8.0868,-3.9364 1.95983,-1.8837 3.48637,-4.2319 4.45632,-6.8049 0.96995,2.573 2.4965,4.9212 4.45633,6.8049 2.21443,2.1285 5.05223,3.6783 8.08677,3.9364 3.309,0.2815 6.64571,-1.008 9.20311,-3.1646 1.72127,-1.4516 3.11861,-3.2775 4.21076,-5.263 1.8649,-3.3903 2.8534,-7.43616 1.94477,-11.21027 -0.50167,-2.08378 -1.55472,-3.99528 -2.81659,-5.7134 -1.86782,-2.54316 -4.19117,-4.69516 -6.47396,-6.85891 -2.9224,-2.77003 -5.80706,-5.5911 -8.43131,-8.65508 -4.06923,-4.75108 -7.49415,-10.07358 -10.14737,-15.76947"
         style="fill:#ff0000;fill-opacity:1;stroke:none;stroke-width:1" />
      <path
         sodipodi:nodetypes="csssssssscssssssssc"
         inkscape:connector-curvature="0"
         id="path3940-9-8-8"
         d="m 175.33779,890.89976 c -2.65321,5.6959 -6.07814,11.01839 -10.14737,15.76948 -2.62425,3.06398 -5.50887,5.88504 -8.43128,8.65508 -2.28281,2.16374 -4.60614,4.31575 -6.47399,6.8589 -1.26187,1.71813 -2.31489,3.62963 -2.81656,5.7134 -0.90863,3.77411 0.0799,7.82001 1.94474,11.21027 1.09215,1.98547 2.48953,3.81145 4.21076,5.26296 2.5574,2.15665 5.89412,3.44611 9.20312,3.16466 3.03456,-0.2581 5.87237,-1.80791 8.0868,-3.93638 1.95983,-1.88374 3.48637,-4.23197 4.45632,-6.8049 0.96995,2.57293 2.4965,4.92116 4.45633,6.8049 2.21443,2.12847 5.05223,3.67828 8.08677,3.93638 3.309,0.28145 6.64571,-1.00801 9.20311,-3.16466 1.72127,-1.45151 3.11861,-3.27749 4.21076,-5.26296 1.8649,-3.39026 2.8534,-7.43616 1.94477,-11.21027 -0.50167,-2.08377 -1.55472,-3.99527 -2.81659,-5.7134 -1.86782,-2.54315 -4.19117,-4.69516 -6.47396,-6.8589 -2.9224,-2.77004 -5.80706,-5.5911 -8.43131,-8.65508 -4.06923,-4.75109 -7.49415,-10.07358 -10.14737,-15.76948"
         style="fill:#ff0000;fill-opacity:1;stroke:none;stroke-width:1" />
      <path
         sodipodi:nodetypes="csssssssscssssssssc"
         inkscape:connector-curvature="0"
         id="path3940-9-6-6"
         d="m 216.78358,991.02223 c -0.88441,1.89861 -2.02605,3.67279 -3.38244,5.25649 -0.87477,1.02131 -1.83631,1.96168 -2.81044,2.88501 -0.76095,0.72126 -1.53539,1.43857 -2.158,2.28627 -0.42062,0.5728 -0.77162,1.2099 -0.93886,1.9045 -0.30286,1.258 0.0267,2.6067 0.64826,3.7368 0.36406,0.6618 0.82983,1.2704 1.40359,1.7543 0.85245,0.7189 1.96469,1.1487 3.0677,1.0549 1.01153,-0.086 1.95745,-0.6027 2.69561,-1.3122 0.65328,-0.6279 1.16211,-1.4106 1.48543,-2.2683 0.32333,0.8577 0.83216,1.6404 1.48543,2.2683 0.73817,0.7095 1.68408,1.2261 2.69561,1.3122 1.10298,0.094 2.21522,-0.336 3.06771,-1.0549 0.57376,-0.4839 1.03953,-1.0925 1.40359,-1.7543 0.62161,-1.1301 0.95112,-2.4788 0.64825,-3.7368 -0.16723,-0.6946 -0.51824,-1.3317 -0.93888,-1.9045 -0.62259,-0.8477 -1.39706,-1.56501 -2.15798,-2.28627 -0.97412,-0.92333 -1.93569,-1.8637 -2.81043,-2.88501 -1.35642,-1.5837 -2.49807,-3.35788 -3.38247,-5.25649"
         style="fill:#ff0000;fill-opacity:1;stroke:none;stroke-width:1" />
      <path
         sodipodi:nodetypes="csssssssscssssssssc"
         inkscape:connector-curvature="0"
         id="path3940-9-0"
         d="m 17.194721,780.70209 c -0.884405,-1.89863 -2.026047,-3.67279 -3.382454,-5.25649 -0.874748,-1.02132 -1.83629,-1.96168 -2.810428,-2.88502 -0.760935,-0.72125 -1.5353778,-1.43859 -2.1579946,-2.28631 -0.4206242,-0.5727 -0.7716307,-1.20987 -0.9388523,-1.90447 -0.3028792,-1.25803 0.026612,-2.60666 0.6482433,-3.73675 0.364052,-0.66182 0.8298441,-1.27049 1.4035868,-1.75432 0.8524708,-0.71888 1.9647078,-1.1487 3.0677058,-1.05489 1.011523,0.086 1.957455,0.60264 2.695602,1.31213 0.653276,0.62792 1.162121,1.41066 1.48544,2.2683 0.323318,-0.85764 0.832163,-1.64038 1.48544,-2.2683 0.738146,-0.70949 1.684078,-1.22609 2.695592,-1.31213 1.102998,-0.0938 2.215235,0.33601 3.067703,1.05489 0.573755,0.48383 1.039537,1.0925 1.403586,1.75432 0.621635,1.13009 0.951135,2.47872 0.648256,3.73675 -0.167221,0.6946 -0.518241,1.33177 -0.938861,1.90447 -0.622608,0.84772 -1.39706,1.56506 -2.157986,2.28631 -0.974135,0.92334 -1.935689,1.8637 -2.810437,2.88502 -1.356411,1.5837 -2.498053,3.35786 -3.382457,5.25649"
         style="fill:#ff0000;fill-opacity:1;stroke:none;stroke-width:1" />
      <g
         id="text3755"
         style="font-style:normal;font-variant:normal;font-weight:bold;font-stretch:normal;font-size:3.77201176px;line-height:0%;font-family:'Levenim MT';-inkscape-font-specification:'Sans Bold';letter-spacing:0px;word-spacing:0px;fill:#ff0000;fill-opacity:1;stroke:none;stroke-width:1"
         transform="scale(0.99079139,1.0092942)"
         aria-label="9">
        <path
           id="path895"
           style="font-size:39.19484329px;line-height:1.25;stroke-width:1"
           d="m 26.867551,734.10756 q 0,5.99023 -2.12433,9.7413 -2.660197,4.70797 -8.19111,4.70797 -3.23434,0 -5.339532,-1.28225 -2.5453681,-1.56932 -2.5453681,-4.63142 0,-0.66983 0.9377672,-0.66983 h 2.8324399 q 0.555005,0 0.937767,0.63155 0.574143,0.93777 0.880353,1.2057 0.784663,0.63156 2.296573,0.63156 2.545368,0 3.961588,-2.37312 1.11001,-1.91381 1.243977,-4.70798 -2.239158,1.77985 -5.35867,1.77985 -3.961588,0 -6.315575,-2.79417 -2.2200206,-2.62192 -2.2200206,-6.66006 0,-4.24866 2.4305396,-6.71747 2.43054,-2.48796 6.660061,-2.48796 9.91354,0 9.91354,13.62633 z m -5.224704,-4.30607 q 0,-2.08605 -1.129148,-3.54055 -1.243977,-1.6076 -3.253478,-1.6076 -2.066916,0 -3.291754,1.56932 -1.110011,1.43536 -1.110011,3.57883 0,2.18174 1.090872,3.59796 1.186563,1.55019 3.310893,1.55019 2.105192,0 3.291754,-1.56932 1.090872,-1.41622 1.090872,-3.57883 z" />
      </g>
      <g
         id="text3755-2"
         style="font-style:normal;font-variant:normal;font-weight:bold;font-stretch:normal;font-size:3.77201176px;line-height:0%;font-family:'Levenim MT';-inkscape-font-specification:'Sans Bold';letter-spacing:0px;word-spacing:0px;fill:#ff0000;fill-opacity:1;stroke:none;stroke-width:1"
         transform="scale(-0.99079138,-1.0092942)"
         aria-label="9">
        <path
           id="path898"
           style="font-size:39.19484329px;line-height:1.25;stroke-width:1"
           d="m -209.30728,-1021.3016 q 0,5.9902 -2.12433,9.7413 -2.6602,4.708 -8.19111,4.708 -3.23434,0 -5.33953,-1.2823 -2.54537,-1.5693 -2.54537,-4.6314 0,-0.6699 0.93777,-0.6699 h 2.83244 q 0.555,0 0.93776,0.6316 0.57415,0.9378 0.88036,1.2057 0.78466,0.6316 2.29657,0.6316 2.54537,0 3.96159,-2.3732 1.11001,-1.9138 1.24397,-4.7079 -2.23916,1.7798 -5.35867,1.7798 -3.96158,0 -6.31557,-2.7942 -2.22002,-2.6219 -2.22002,-6.66 0,-4.2487 2.43054,-6.7175 2.43054,-2.4879 6.66006,-2.4879 9.91354,0 9.91354,13.6263 z m -5.22471,-4.3061 q 0,-2.086 -1.12914,-3.5405 -1.24398,-1.6076 -3.25348,-1.6076 -2.06692,0 -3.29176,1.5693 -1.11001,1.4353 -1.11001,3.5788 0,2.1818 1.09088,3.598 1.18656,1.5502 3.31089,1.5502 2.10519,0 3.29175,-1.5694 1.09087,-1.4162 1.09087,-3.5788 z" />
      </g>
    </g>
  </g>
</svg>
